G75*
%MOIN*%
%OFA0B0*%
%FSLAX25Y25*%
%IPPOS*%
%LPD*%
%AMOC8*
5,1,8,0,0,1.08239X$1,22.5*
%
%ADD10C,0.22454*%
%ADD11C,0.06800*%
%ADD12R,0.06737X0.06737*%
%ADD13R,0.13461X0.13461*%
%ADD14C,0.06000*%
%ADD15OC8,0.10800*%
%ADD16OC8,0.06000*%
%ADD17C,0.03778*%
D10*
X0111413Y0031396D03*
X0111413Y0142420D03*
D11*
X0035358Y0016396D02*
X0029358Y0016396D01*
X0029358Y0026396D02*
X0035358Y0026396D01*
X0035358Y0036396D02*
X0029358Y0036396D01*
X0029358Y0046396D02*
X0035358Y0046396D01*
X0035358Y0056396D02*
X0029358Y0056396D01*
X0029358Y0066396D02*
X0035358Y0066396D01*
X0035358Y0076396D02*
X0029358Y0076396D01*
X0029358Y0086396D02*
X0035358Y0086396D01*
X0035358Y0096396D02*
X0029358Y0096396D01*
X0029358Y0106396D02*
X0035358Y0106396D01*
X0035358Y0116396D02*
X0029358Y0116396D01*
X0029358Y0126396D02*
X0035358Y0126396D01*
X0035358Y0136396D02*
X0029358Y0136396D01*
X0029358Y0146396D02*
X0035358Y0146396D01*
X0035358Y0156396D02*
X0029358Y0156396D01*
X0087468Y0156396D02*
X0093468Y0156396D01*
X0093468Y0146396D02*
X0087468Y0146396D01*
X0087468Y0136396D02*
X0093468Y0136396D01*
X0093468Y0126396D02*
X0087468Y0126396D01*
X0087468Y0116396D02*
X0093468Y0116396D01*
X0093468Y0106396D02*
X0087468Y0106396D01*
X0087468Y0096396D02*
X0093468Y0096396D01*
X0093468Y0086396D02*
X0087468Y0086396D01*
X0087468Y0076396D02*
X0093468Y0076396D01*
X0093468Y0066396D02*
X0087468Y0066396D01*
X0087468Y0056396D02*
X0093468Y0056396D01*
X0093468Y0046396D02*
X0087468Y0046396D01*
X0087468Y0036396D02*
X0093468Y0036396D01*
X0093468Y0026396D02*
X0087468Y0026396D01*
X0087468Y0016396D02*
X0093468Y0016396D01*
X0014413Y0071396D02*
X0008413Y0071396D01*
X0008413Y0081396D02*
X0014413Y0081396D01*
X0014413Y0091396D02*
X0008413Y0091396D01*
X0008413Y0101396D02*
X0014413Y0101396D01*
X0184213Y0136296D02*
X0190213Y0136296D01*
X0190213Y0146296D02*
X0184213Y0146296D01*
D12*
X0179130Y0104270D03*
X0179130Y0084585D03*
X0122043Y0084585D03*
X0122043Y0094428D03*
X0122043Y0104270D03*
D13*
X0151571Y0118443D03*
X0151571Y0070412D03*
D14*
X0151213Y0148796D02*
X0151213Y0153996D01*
X0141213Y0153996D02*
X0141213Y0148796D01*
X0161213Y0148796D02*
X0161213Y0153996D01*
D15*
X0152913Y0034896D03*
X0182913Y0034896D03*
D16*
X0131913Y0030239D03*
X0131913Y0060239D03*
D17*
X0021162Y0081553D03*
X0021295Y0103207D03*
M02*
