%
M48
M72
T01C0.01378
T02C0.03200
T03C0.03937
T04C0.04000
T05C0.08661
T06C0.21654
%
T01
X21162Y81553
X21295Y103207
T02
X131913Y60239
X131913Y30239
X141213Y151396
X151213Y151396
X161213Y151396
T03
X179130Y104270
X179130Y84585
X122043Y84585
X122043Y94428
X122043Y104270
T04
X32358Y16396
X32358Y26396
X32358Y36396
X32358Y46396
X32358Y56396
X32358Y66396
X32358Y76396
X32358Y86396
X32358Y96396
X32358Y106396
X32358Y116396
X32358Y126396
X32358Y136396
X32358Y146396
X32358Y156396
X90468Y156396
X90468Y146396
X90468Y136396
X90468Y126396
X90468Y116396
X90468Y106396
X90468Y96396
X90468Y86396
X90468Y76396
X90468Y66396
X90468Y56396
X90468Y46396
X90468Y36396
X90468Y26396
X90468Y16396
X152913Y34896
X182913Y34896
X187213Y136296
X187213Y146296
X11413Y101396
X11413Y91396
X11413Y81396
X11413Y71396
T05
X151571Y70412
X151571Y118443
T06
X111413Y142420
X111413Y31396
M30
