G75*
%MOIN*%
%OFA0B0*%
%FSLAX25Y25*%
%IPPOS*%
%LPD*%
%AMOC8*
5,1,8,0,0,1.08239X$1,22.5*
%
%ADD10C,0.06000*%
%ADD11R,0.05937X0.05937*%
%ADD12R,0.12661X0.12661*%
%ADD13C,0.05200*%
%ADD14OC8,0.10000*%
%ADD15OC8,0.05200*%
%ADD16C,0.01600*%
%ADD17C,0.00600*%
%ADD18C,0.02978*%
D10*
X0029358Y0016396D02*
X0035358Y0016396D01*
X0035358Y0026396D02*
X0029358Y0026396D01*
X0029358Y0036396D02*
X0035358Y0036396D01*
X0035358Y0046396D02*
X0029358Y0046396D01*
X0029358Y0056396D02*
X0035358Y0056396D01*
X0035358Y0066396D02*
X0029358Y0066396D01*
X0029358Y0076396D02*
X0035358Y0076396D01*
X0035358Y0086396D02*
X0029358Y0086396D01*
X0029358Y0096396D02*
X0035358Y0096396D01*
X0035358Y0106396D02*
X0029358Y0106396D01*
X0029358Y0116396D02*
X0035358Y0116396D01*
X0035358Y0126396D02*
X0029358Y0126396D01*
X0029358Y0136396D02*
X0035358Y0136396D01*
X0035358Y0146396D02*
X0029358Y0146396D01*
X0029358Y0156396D02*
X0035358Y0156396D01*
X0087468Y0156396D02*
X0093468Y0156396D01*
X0093468Y0146396D02*
X0087468Y0146396D01*
X0087468Y0136396D02*
X0093468Y0136396D01*
X0093468Y0126396D02*
X0087468Y0126396D01*
X0087468Y0116396D02*
X0093468Y0116396D01*
X0093468Y0106396D02*
X0087468Y0106396D01*
X0087468Y0096396D02*
X0093468Y0096396D01*
X0093468Y0086396D02*
X0087468Y0086396D01*
X0087468Y0076396D02*
X0093468Y0076396D01*
X0093468Y0066396D02*
X0087468Y0066396D01*
X0087468Y0056396D02*
X0093468Y0056396D01*
X0093468Y0046396D02*
X0087468Y0046396D01*
X0087468Y0036396D02*
X0093468Y0036396D01*
X0093468Y0026396D02*
X0087468Y0026396D01*
X0087468Y0016396D02*
X0093468Y0016396D01*
X0014413Y0071396D02*
X0008413Y0071396D01*
X0008413Y0081396D02*
X0014413Y0081396D01*
X0014413Y0091396D02*
X0008413Y0091396D01*
X0008413Y0101396D02*
X0014413Y0101396D01*
X0184213Y0136296D02*
X0190213Y0136296D01*
X0190213Y0146296D02*
X0184213Y0146296D01*
D11*
X0179130Y0104270D03*
X0179130Y0084585D03*
X0122043Y0084585D03*
X0122043Y0094428D03*
X0122043Y0104270D03*
D12*
X0151571Y0118443D03*
X0151571Y0070412D03*
D13*
X0151213Y0148796D02*
X0151213Y0153996D01*
X0141213Y0153996D02*
X0141213Y0148796D01*
X0161213Y0148796D02*
X0161213Y0153996D01*
D14*
X0152913Y0034896D03*
X0182913Y0034896D03*
D15*
X0131913Y0030239D03*
X0131913Y0060239D03*
D16*
X0131813Y0060596D02*
X0131813Y0142547D01*
X0117881Y0160416D01*
X0108032Y0160416D01*
X0093342Y0146514D01*
X0090468Y0146396D01*
X0090468Y0156396D02*
X0098887Y0163870D01*
X0119945Y0163870D01*
X0146723Y0132368D01*
X0170739Y0132349D01*
X0179169Y0126435D01*
X0179130Y0104270D01*
X0167515Y0141259D02*
X0147451Y0141259D01*
X0141451Y0147259D01*
X0141413Y0151196D01*
X0151013Y0151796D02*
X0150975Y0163607D01*
X0146700Y0167883D01*
X0065347Y0167883D01*
X0052405Y0154547D01*
X0052405Y0023790D01*
X0043837Y0016402D01*
X0032358Y0016396D01*
X0091013Y0056396D02*
X0118613Y0083996D01*
X0121613Y0083996D01*
X0122043Y0084585D01*
X0109424Y0085007D02*
X0091013Y0066596D01*
X0109424Y0085007D02*
X0109424Y0101018D01*
X0113345Y0104152D01*
X0121613Y0104190D01*
X0122043Y0104270D01*
X0167515Y0141259D02*
X0173234Y0146190D01*
X0187213Y0146296D01*
X0152913Y0034896D02*
X0148613Y0030596D01*
X0132413Y0030596D01*
X0032358Y0076396D02*
X0032319Y0076435D01*
X0027200Y0076435D01*
X0024838Y0078010D01*
X0024838Y0083522D01*
X0016177Y0091396D01*
X0011413Y0091396D01*
X0011571Y0081553D02*
X0011413Y0081396D01*
X0011571Y0081553D02*
X0021162Y0081553D01*
X0027200Y0086278D02*
X0032240Y0086278D01*
X0032358Y0086396D01*
X0027200Y0086278D02*
X0024051Y0089428D01*
X0024051Y0094939D01*
X0017594Y0101396D01*
X0011413Y0101396D01*
X0021295Y0103207D02*
X0021295Y0143758D01*
X0023933Y0146396D01*
X0032358Y0146396D01*
D17*
X0090468Y0066396D02*
X0091013Y0066596D01*
X0091013Y0056396D02*
X0090468Y0056396D01*
X0131813Y0060596D02*
X0131913Y0060239D01*
X0132413Y0030596D02*
X0131913Y0030239D01*
X0141413Y0151196D02*
X0141213Y0151396D01*
X0151013Y0151796D02*
X0151213Y0151396D01*
D18*
X0021295Y0103207D03*
X0021162Y0081553D03*
M02*
