G75*
%MOIN*%
%OFA0B0*%
%FSLAX25Y25*%
%IPPOS*%
%LPD*%
%AMOC8*
5,1,8,0,0,1.08239X$1,22.5*
%
%ADD10C,0.00400*%
%ADD11C,0.06000*%
%ADD12R,0.05937X0.05937*%
%ADD13R,0.12661X0.12661*%
%ADD14C,0.05200*%
%ADD15OC8,0.10000*%
%ADD16OC8,0.05200*%
%ADD17C,0.00600*%
%ADD18C,0.02978*%
%ADD19C,0.01600*%
D10*
X0183346Y0075499D02*
X0187950Y0075499D01*
X0187950Y0077801D01*
X0187183Y0078568D01*
X0185648Y0078568D01*
X0184881Y0077801D01*
X0184881Y0075499D01*
X0185648Y0073964D02*
X0187183Y0073964D01*
X0187950Y0073197D01*
X0187950Y0071662D01*
X0187183Y0070895D01*
X0185648Y0070895D01*
X0184881Y0071662D01*
X0184881Y0073197D01*
X0185648Y0073964D01*
X0184881Y0069360D02*
X0185648Y0068593D01*
X0188717Y0068593D01*
X0187950Y0069360D02*
X0187950Y0067825D01*
X0187950Y0066291D02*
X0187950Y0063989D01*
X0187183Y0063222D01*
X0186415Y0063989D01*
X0186415Y0065524D01*
X0185648Y0066291D01*
X0184881Y0065524D01*
X0184881Y0063222D01*
X0184881Y0061687D02*
X0184881Y0060152D01*
X0184881Y0060920D02*
X0187950Y0060920D01*
X0187950Y0060152D01*
X0187950Y0058618D02*
X0187950Y0057850D01*
X0186415Y0056316D01*
X0184881Y0056316D02*
X0187950Y0056316D01*
X0187183Y0054781D02*
X0184881Y0054781D01*
X0187183Y0054781D02*
X0187950Y0054014D01*
X0187950Y0052479D01*
X0187183Y0051712D01*
X0188717Y0050177D02*
X0189485Y0049410D01*
X0189485Y0047875D01*
X0188717Y0047108D01*
X0185648Y0047108D01*
X0184881Y0047875D01*
X0184881Y0049410D01*
X0185648Y0050177D01*
X0184881Y0051712D02*
X0189485Y0051712D01*
X0192381Y0052479D02*
X0193148Y0051712D01*
X0193915Y0052479D01*
X0193915Y0054781D01*
X0194683Y0054781D02*
X0192381Y0054781D01*
X0192381Y0052479D01*
X0192381Y0050177D02*
X0196985Y0050177D01*
X0195450Y0052479D02*
X0195450Y0054014D01*
X0194683Y0054781D01*
X0195450Y0056316D02*
X0192381Y0056316D01*
X0192381Y0059385D02*
X0194683Y0059385D01*
X0195450Y0058618D01*
X0195450Y0056316D01*
X0194683Y0060920D02*
X0193148Y0060920D01*
X0192381Y0061687D01*
X0192381Y0063222D01*
X0193148Y0063989D01*
X0194683Y0063989D01*
X0195450Y0063222D01*
X0195450Y0061687D01*
X0194683Y0060920D01*
X0190252Y0060920D02*
X0189485Y0060920D01*
X0192381Y0065524D02*
X0192381Y0067825D01*
X0193148Y0068593D01*
X0193915Y0068593D01*
X0194683Y0067825D01*
X0194683Y0065524D01*
X0192381Y0065524D02*
X0196985Y0065524D01*
X0196985Y0067825D01*
X0196217Y0068593D01*
X0195450Y0068593D01*
X0194683Y0067825D01*
X0195450Y0070127D02*
X0193148Y0070127D01*
X0192381Y0070895D01*
X0192381Y0073197D01*
X0195450Y0073197D01*
X0194683Y0074731D02*
X0195450Y0075499D01*
X0195450Y0077801D01*
X0196985Y0077801D02*
X0192381Y0077801D01*
X0192381Y0075499D01*
X0193148Y0074731D01*
X0194683Y0074731D01*
X0189485Y0080103D02*
X0184881Y0080103D01*
X0187183Y0080103D02*
X0187950Y0080870D01*
X0187950Y0082405D01*
X0187183Y0083172D01*
X0184881Y0083172D01*
X0185648Y0084707D02*
X0187183Y0084707D01*
X0187950Y0085474D01*
X0187950Y0087008D01*
X0187183Y0087776D01*
X0186415Y0087776D01*
X0186415Y0084707D01*
X0185648Y0084707D02*
X0184881Y0085474D01*
X0184881Y0087008D01*
X0192381Y0085474D02*
X0195450Y0087009D01*
X0195450Y0088543D02*
X0196985Y0090078D01*
X0192381Y0090078D01*
X0192381Y0091612D02*
X0192381Y0088543D01*
X0192381Y0085474D02*
X0195450Y0083939D01*
X0193148Y0093147D02*
X0192381Y0093147D01*
X0192381Y0093914D01*
X0193148Y0093914D01*
X0193148Y0093147D01*
X0193148Y0095449D02*
X0192381Y0096216D01*
X0192381Y0097751D01*
X0193148Y0098518D01*
X0196217Y0098518D01*
X0193148Y0095449D01*
X0196217Y0095449D01*
X0196985Y0096216D01*
X0196985Y0097751D01*
X0196217Y0098518D01*
X0189485Y0096216D02*
X0189485Y0094682D01*
X0188717Y0093914D01*
X0185648Y0093914D01*
X0184881Y0094682D01*
X0184881Y0096216D01*
X0185648Y0096984D01*
X0185648Y0098518D02*
X0186415Y0099286D01*
X0186415Y0101588D01*
X0187183Y0101588D02*
X0184881Y0101588D01*
X0184881Y0099286D01*
X0185648Y0098518D01*
X0187950Y0099286D02*
X0187950Y0100820D01*
X0187183Y0101588D01*
X0187183Y0103122D02*
X0185648Y0103122D01*
X0184881Y0103890D01*
X0184881Y0106192D01*
X0184881Y0107726D02*
X0189485Y0107726D01*
X0187950Y0108493D02*
X0187950Y0110028D01*
X0187183Y0110795D01*
X0184881Y0110795D01*
X0184881Y0112330D02*
X0184881Y0113865D01*
X0184881Y0113097D02*
X0187950Y0113097D01*
X0187950Y0112330D01*
X0189485Y0113097D02*
X0190252Y0113097D01*
X0187950Y0115399D02*
X0187950Y0117701D01*
X0187183Y0118469D01*
X0184881Y0118469D01*
X0184881Y0115399D02*
X0187950Y0115399D01*
X0187950Y0108493D02*
X0187183Y0107726D01*
X0187950Y0106192D02*
X0187950Y0103890D01*
X0187183Y0103122D01*
X0188717Y0096984D02*
X0189485Y0096216D01*
X0188717Y0124607D02*
X0189485Y0125375D01*
X0189485Y0126909D01*
X0188717Y0127676D01*
X0187950Y0127676D01*
X0184881Y0124607D01*
X0184881Y0127676D01*
X0185648Y0129211D02*
X0188717Y0132280D01*
X0185648Y0132280D01*
X0184881Y0131513D01*
X0184881Y0129978D01*
X0185648Y0129211D01*
X0188717Y0129211D01*
X0189485Y0129978D01*
X0189485Y0131513D01*
X0188717Y0132280D01*
X0187950Y0133815D02*
X0189485Y0135350D01*
X0184881Y0135350D01*
X0184881Y0136884D02*
X0184881Y0133815D01*
X0184881Y0138419D02*
X0185648Y0138419D01*
X0188717Y0141488D01*
X0189485Y0141488D01*
X0189485Y0138419D01*
X0192381Y0050177D02*
X0196985Y0047108D01*
X0192381Y0047108D01*
D11*
X0093468Y0046396D02*
X0087468Y0046396D01*
X0087468Y0036396D02*
X0093468Y0036396D01*
X0093468Y0026396D02*
X0087468Y0026396D01*
X0087468Y0016396D02*
X0093468Y0016396D01*
X0093468Y0056396D02*
X0087468Y0056396D01*
X0087468Y0066396D02*
X0093468Y0066396D01*
X0093468Y0076396D02*
X0087468Y0076396D01*
X0087468Y0086396D02*
X0093468Y0086396D01*
X0093468Y0096396D02*
X0087468Y0096396D01*
X0087468Y0106396D02*
X0093468Y0106396D01*
X0093468Y0116396D02*
X0087468Y0116396D01*
X0087468Y0126396D02*
X0093468Y0126396D01*
X0093468Y0136396D02*
X0087468Y0136396D01*
X0087468Y0146396D02*
X0093468Y0146396D01*
X0093468Y0156396D02*
X0087468Y0156396D01*
X0035358Y0156396D02*
X0029358Y0156396D01*
X0029358Y0146396D02*
X0035358Y0146396D01*
X0035358Y0136396D02*
X0029358Y0136396D01*
X0029358Y0126396D02*
X0035358Y0126396D01*
X0035358Y0116396D02*
X0029358Y0116396D01*
X0029358Y0106396D02*
X0035358Y0106396D01*
X0035358Y0096396D02*
X0029358Y0096396D01*
X0029358Y0086396D02*
X0035358Y0086396D01*
X0035358Y0076396D02*
X0029358Y0076396D01*
X0029358Y0066396D02*
X0035358Y0066396D01*
X0035358Y0056396D02*
X0029358Y0056396D01*
X0029358Y0046396D02*
X0035358Y0046396D01*
X0035358Y0036396D02*
X0029358Y0036396D01*
X0029358Y0026396D02*
X0035358Y0026396D01*
X0035358Y0016396D02*
X0029358Y0016396D01*
X0014413Y0071396D02*
X0008413Y0071396D01*
X0008413Y0081396D02*
X0014413Y0081396D01*
X0014413Y0091396D02*
X0008413Y0091396D01*
X0008413Y0101396D02*
X0014413Y0101396D01*
X0184213Y0136296D02*
X0190213Y0136296D01*
X0190213Y0146296D02*
X0184213Y0146296D01*
D12*
X0179130Y0104270D03*
X0179130Y0084585D03*
X0122043Y0084585D03*
X0122043Y0094428D03*
X0122043Y0104270D03*
D13*
X0151571Y0118443D03*
X0151571Y0070412D03*
D14*
X0151213Y0148796D02*
X0151213Y0153996D01*
X0141213Y0153996D02*
X0141213Y0148796D01*
X0161213Y0148796D02*
X0161213Y0153996D01*
D15*
X0152913Y0034896D03*
X0182913Y0034896D03*
D16*
X0131913Y0030239D03*
X0131913Y0060239D03*
D17*
X0015090Y0012011D02*
X0012621Y0014218D01*
X0010414Y0016687D01*
X0008498Y0019387D01*
X0006896Y0022285D01*
X0005629Y0025344D01*
X0004712Y0028526D01*
X0004158Y0031791D01*
X0004119Y0032479D01*
X0005313Y0033672D01*
X0006013Y0035363D01*
X0006013Y0067825D01*
X0006159Y0067718D01*
X0006762Y0067411D01*
X0007406Y0067202D01*
X0008075Y0067096D01*
X0011113Y0067096D01*
X0011113Y0071096D01*
X0011713Y0071096D01*
X0011713Y0067096D01*
X0014751Y0067096D01*
X0015420Y0067202D01*
X0016064Y0067411D01*
X0016667Y0067718D01*
X0017214Y0068116D01*
X0017693Y0068595D01*
X0018091Y0069142D01*
X0018398Y0069745D01*
X0018607Y0070389D01*
X0018713Y0071058D01*
X0018713Y0071096D01*
X0011713Y0071096D01*
X0011713Y0071696D01*
X0011113Y0071696D01*
X0011113Y0075696D01*
X0008075Y0075696D01*
X0007406Y0075590D01*
X0006762Y0075381D01*
X0006159Y0075074D01*
X0006013Y0074967D01*
X0006013Y0078281D01*
X0006204Y0078090D01*
X0007637Y0077496D01*
X0015189Y0077496D01*
X0016622Y0078090D01*
X0017719Y0079187D01*
X0018313Y0080620D01*
X0018313Y0082172D01*
X0017719Y0083605D01*
X0016622Y0084702D01*
X0015189Y0085296D01*
X0007637Y0085296D01*
X0006204Y0084702D01*
X0006013Y0084511D01*
X0006013Y0088281D01*
X0006204Y0088090D01*
X0007637Y0087496D01*
X0015189Y0087496D01*
X0016622Y0088090D01*
X0017719Y0089187D01*
X0018313Y0090620D01*
X0018313Y0092172D01*
X0017719Y0093605D01*
X0016622Y0094702D01*
X0015189Y0095296D01*
X0007637Y0095296D01*
X0006204Y0094702D01*
X0006013Y0094511D01*
X0006013Y0098281D01*
X0006204Y0098090D01*
X0007637Y0097496D01*
X0015189Y0097496D01*
X0016622Y0098090D01*
X0017719Y0099187D01*
X0018313Y0100620D01*
X0018313Y0102172D01*
X0017719Y0103605D01*
X0016622Y0104702D01*
X0015189Y0105296D01*
X0007637Y0105296D01*
X0006204Y0104702D01*
X0006013Y0104511D01*
X0006013Y0142311D01*
X0005313Y0144002D01*
X0004019Y0145296D01*
X0003972Y0145315D01*
X0003972Y0145333D01*
X0004144Y0148180D01*
X0004659Y0150986D01*
X0005507Y0153710D01*
X0006678Y0156311D01*
X0008154Y0158752D01*
X0009913Y0160997D01*
X0011930Y0163014D01*
X0014175Y0164774D01*
X0016616Y0166249D01*
X0019218Y0167420D01*
X0021941Y0168269D01*
X0024747Y0168783D01*
X0027340Y0168940D01*
X0027435Y0168712D01*
X0028729Y0167418D01*
X0030419Y0166717D01*
X0167289Y0166717D01*
X0168979Y0167418D01*
X0170273Y0168712D01*
X0170350Y0168898D01*
X0172632Y0168769D01*
X0175897Y0168215D01*
X0179079Y0167298D01*
X0182138Y0166031D01*
X0185036Y0164429D01*
X0187737Y0162513D01*
X0190206Y0160307D01*
X0192412Y0157838D01*
X0194328Y0155137D01*
X0195930Y0152239D01*
X0197197Y0149180D01*
X0198114Y0145998D01*
X0198668Y0142734D01*
X0198801Y0140368D01*
X0197513Y0139080D01*
X0196813Y0137390D01*
X0196813Y0099478D01*
X0196710Y0099581D01*
X0196673Y0099618D01*
X0192692Y0099618D01*
X0192682Y0099608D01*
X0192048Y0098974D01*
X0192048Y0098974D01*
X0191925Y0098851D01*
X0191281Y0098207D01*
X0191281Y0095761D01*
X0192027Y0095014D01*
X0191925Y0095014D01*
X0191281Y0094370D01*
X0191281Y0092691D01*
X0191592Y0092380D01*
X0191281Y0092068D01*
X0191281Y0088087D01*
X0191925Y0087443D01*
X0192836Y0087443D01*
X0193481Y0088087D01*
X0193481Y0088978D01*
X0194350Y0088978D01*
X0194350Y0088088D01*
X0194616Y0087821D01*
X0191959Y0086493D01*
X0191601Y0086373D01*
X0191561Y0086294D01*
X0191481Y0086254D01*
X0191362Y0085896D01*
X0191193Y0085558D01*
X0191221Y0085474D01*
X0191193Y0085389D01*
X0191362Y0085052D01*
X0191481Y0084694D01*
X0191561Y0084654D01*
X0191601Y0084574D01*
X0191959Y0084455D01*
X0195366Y0082752D01*
X0196230Y0083040D01*
X0196638Y0083855D01*
X0196349Y0084719D01*
X0194840Y0085474D01*
X0196349Y0086228D01*
X0196638Y0087093D01*
X0196277Y0087814D01*
X0196813Y0088351D01*
X0196813Y0078901D01*
X0191925Y0078901D01*
X0191281Y0078256D01*
X0191281Y0075043D01*
X0192027Y0074297D01*
X0191925Y0074297D01*
X0191281Y0073652D01*
X0191281Y0070439D01*
X0191925Y0069795D01*
X0192360Y0069360D01*
X0192048Y0069048D01*
X0191925Y0068925D01*
X0191281Y0068281D01*
X0191281Y0065068D01*
X0191925Y0064424D01*
X0192027Y0064424D01*
X0191925Y0064322D01*
X0191281Y0063677D01*
X0191281Y0061446D01*
X0190708Y0062020D01*
X0189029Y0062020D01*
X0188717Y0061708D01*
X0188406Y0062020D01*
X0185981Y0062020D01*
X0185981Y0062143D01*
X0185669Y0062454D01*
X0185981Y0062766D01*
X0185981Y0062868D01*
X0186385Y0062463D01*
X0186727Y0062122D01*
X0187638Y0062122D01*
X0187970Y0062454D01*
X0188406Y0062889D01*
X0189050Y0063533D01*
X0189050Y0066746D01*
X0188738Y0067058D01*
X0189050Y0067370D01*
X0189050Y0067493D01*
X0189173Y0067493D01*
X0189817Y0068137D01*
X0189817Y0069048D01*
X0189173Y0069693D01*
X0189050Y0069693D01*
X0189050Y0069816D01*
X0188406Y0070460D01*
X0188304Y0070460D01*
X0188406Y0070562D01*
X0189040Y0071196D01*
X0189050Y0071206D01*
X0189050Y0073652D01*
X0188406Y0074297D01*
X0188304Y0074399D01*
X0188406Y0074399D01*
X0189050Y0075043D01*
X0189050Y0078256D01*
X0188304Y0079003D01*
X0189940Y0079003D01*
X0190585Y0079647D01*
X0190585Y0080558D01*
X0189940Y0081203D01*
X0189050Y0081203D01*
X0189050Y0082860D01*
X0187971Y0083939D01*
X0188283Y0084251D01*
X0188406Y0084374D01*
X0189050Y0085018D01*
X0189050Y0087464D01*
X0188283Y0088231D01*
X0187638Y0088876D01*
X0185960Y0088876D01*
X0185315Y0088231D01*
X0185315Y0088108D01*
X0184425Y0088108D01*
X0183781Y0087464D01*
X0183781Y0085018D01*
X0184527Y0084272D01*
X0184425Y0084272D01*
X0183781Y0083628D01*
X0183781Y0082716D01*
X0184425Y0082072D01*
X0186727Y0082072D01*
X0186850Y0081949D01*
X0186850Y0081326D01*
X0186727Y0081203D01*
X0184425Y0081203D01*
X0183781Y0080558D01*
X0183781Y0079647D01*
X0184425Y0079003D01*
X0184527Y0079003D01*
X0184425Y0078901D01*
X0183781Y0078256D01*
X0183781Y0076599D01*
X0182890Y0076599D01*
X0182246Y0075954D01*
X0182246Y0075043D01*
X0182890Y0074399D01*
X0184527Y0074399D01*
X0184425Y0074297D01*
X0183781Y0073652D01*
X0183781Y0071206D01*
X0184527Y0070460D01*
X0184425Y0070460D01*
X0183781Y0069816D01*
X0183781Y0068904D01*
X0184548Y0068137D01*
X0185182Y0067503D01*
X0185192Y0067493D01*
X0186850Y0067493D01*
X0186850Y0067370D01*
X0187162Y0067058D01*
X0186850Y0066746D01*
X0186850Y0066644D01*
X0186104Y0067391D01*
X0185192Y0067391D01*
X0184548Y0066746D01*
X0184425Y0066623D01*
X0183781Y0065979D01*
X0183781Y0062766D01*
X0184092Y0062454D01*
X0183781Y0062143D01*
X0183781Y0059697D01*
X0184425Y0059052D01*
X0185336Y0059052D01*
X0185981Y0059697D01*
X0185981Y0059820D01*
X0186850Y0059820D01*
X0186850Y0059697D01*
X0187162Y0059385D01*
X0186850Y0059073D01*
X0186850Y0058306D01*
X0185960Y0057416D01*
X0184425Y0057416D01*
X0183781Y0056771D01*
X0183781Y0055860D01*
X0184092Y0055548D01*
X0183781Y0055237D01*
X0183781Y0054325D01*
X0184425Y0053681D01*
X0186727Y0053681D01*
X0186850Y0053558D01*
X0186850Y0052935D01*
X0186727Y0052812D01*
X0184425Y0052812D01*
X0183781Y0052167D01*
X0183781Y0051256D01*
X0184425Y0050612D01*
X0184527Y0050612D01*
X0184425Y0050510D01*
X0183781Y0049865D01*
X0183781Y0047419D01*
X0184425Y0046775D01*
X0185192Y0046008D01*
X0189173Y0046008D01*
X0189817Y0046652D01*
X0189940Y0046775D01*
X0189940Y0046775D01*
X0190574Y0047409D01*
X0190585Y0047419D01*
X0190585Y0049865D01*
X0189940Y0050510D01*
X0189838Y0050612D01*
X0189940Y0050612D01*
X0190585Y0051256D01*
X0190585Y0052167D01*
X0189940Y0052812D01*
X0189050Y0052812D01*
X0189050Y0054469D01*
X0188304Y0055216D01*
X0188406Y0055216D01*
X0189050Y0055860D01*
X0189050Y0056771D01*
X0188738Y0057083D01*
X0189050Y0057395D01*
X0189050Y0059073D01*
X0188738Y0059385D01*
X0189050Y0059697D01*
X0189050Y0059820D01*
X0190708Y0059820D01*
X0191352Y0060464D01*
X0191352Y0061160D01*
X0192027Y0060485D01*
X0191925Y0060485D01*
X0191281Y0059841D01*
X0191281Y0058929D01*
X0191925Y0058285D01*
X0194227Y0058285D01*
X0194350Y0058162D01*
X0194350Y0057416D01*
X0191925Y0057416D01*
X0191281Y0056771D01*
X0191281Y0055860D01*
X0191592Y0055548D01*
X0191281Y0055237D01*
X0191281Y0052023D01*
X0192027Y0051277D01*
X0191925Y0051277D01*
X0191838Y0051190D01*
X0191718Y0051166D01*
X0191526Y0050878D01*
X0191281Y0050633D01*
X0191281Y0050510D01*
X0191213Y0050408D01*
X0191281Y0050068D01*
X0191281Y0049721D01*
X0191367Y0049635D01*
X0191391Y0049515D01*
X0191680Y0049322D01*
X0191925Y0049077D01*
X0192048Y0049077D01*
X0193352Y0048208D01*
X0191925Y0048208D01*
X0191281Y0047563D01*
X0191281Y0046652D01*
X0191925Y0046008D01*
X0196652Y0046008D01*
X0196754Y0045940D01*
X0196813Y0045952D01*
X0196813Y0030442D01*
X0197513Y0028751D01*
X0198324Y0027941D01*
X0198163Y0026996D01*
X0197307Y0024026D01*
X0196125Y0021171D01*
X0194630Y0018466D01*
X0192841Y0015946D01*
X0190782Y0013641D01*
X0188478Y0011582D01*
X0185957Y0009793D01*
X0183252Y0008298D01*
X0180397Y0007116D01*
X0177427Y0006260D01*
X0174381Y0005743D01*
X0173265Y0005680D01*
X0172407Y0006035D01*
X0035537Y0006035D01*
X0034412Y0005569D01*
X0033500Y0005569D01*
X0030194Y0005755D01*
X0026929Y0006310D01*
X0023747Y0007226D01*
X0020688Y0008493D01*
X0017790Y0010095D01*
X0015090Y0012011D01*
X0014772Y0012295D02*
X0189276Y0012295D01*
X0188606Y0011697D02*
X0015533Y0011697D01*
X0016376Y0011098D02*
X0187796Y0011098D01*
X0186953Y0010500D02*
X0017220Y0010500D01*
X0018141Y0009901D02*
X0186109Y0009901D01*
X0185070Y0009303D02*
X0019224Y0009303D01*
X0020307Y0008704D02*
X0183987Y0008704D01*
X0182787Y0008106D02*
X0021624Y0008106D01*
X0023069Y0007507D02*
X0181342Y0007507D01*
X0179678Y0006909D02*
X0024850Y0006909D01*
X0026927Y0006310D02*
X0177601Y0006310D01*
X0173831Y0005712D02*
X0173188Y0005712D01*
X0189946Y0012894D02*
X0095204Y0012894D01*
X0095677Y0013090D02*
X0094244Y0012496D01*
X0086692Y0012496D01*
X0085259Y0013090D01*
X0084162Y0014187D01*
X0083568Y0015620D01*
X0083568Y0017172D01*
X0084162Y0018605D01*
X0085259Y0019702D01*
X0086692Y0020296D01*
X0094244Y0020296D01*
X0095677Y0019702D01*
X0096774Y0018605D01*
X0097368Y0017172D01*
X0097368Y0015620D01*
X0096774Y0014187D01*
X0095677Y0013090D01*
X0096080Y0013492D02*
X0190616Y0013492D01*
X0191184Y0014091D02*
X0096678Y0014091D01*
X0096983Y0014689D02*
X0191719Y0014689D01*
X0192254Y0015288D02*
X0097230Y0015288D01*
X0097368Y0015886D02*
X0192789Y0015886D01*
X0193224Y0016485D02*
X0114209Y0016485D01*
X0113405Y0016269D02*
X0117252Y0017300D01*
X0120701Y0019292D01*
X0123517Y0022108D01*
X0125509Y0025557D01*
X0126540Y0029405D01*
X0126540Y0033387D01*
X0125509Y0037235D01*
X0123517Y0040684D01*
X0120701Y0043500D01*
X0117252Y0045492D01*
X0113405Y0046523D01*
X0109422Y0046523D01*
X0105574Y0045492D01*
X0102125Y0043500D01*
X0099309Y0040684D01*
X0097332Y0037260D01*
X0096774Y0038605D01*
X0095677Y0039702D01*
X0094244Y0040296D01*
X0086692Y0040296D01*
X0085259Y0039702D01*
X0084162Y0038605D01*
X0083568Y0037172D01*
X0083568Y0035620D01*
X0084162Y0034187D01*
X0085259Y0033090D01*
X0086692Y0032496D01*
X0094244Y0032496D01*
X0095677Y0033090D01*
X0096400Y0033813D01*
X0096286Y0033387D01*
X0096286Y0029405D01*
X0096400Y0028979D01*
X0095677Y0029702D01*
X0094244Y0030296D01*
X0086692Y0030296D01*
X0085259Y0029702D01*
X0084162Y0028605D01*
X0083568Y0027172D01*
X0083568Y0025620D01*
X0084162Y0024187D01*
X0085259Y0023090D01*
X0086692Y0022496D01*
X0094244Y0022496D01*
X0095677Y0023090D01*
X0096774Y0024187D01*
X0097332Y0025532D01*
X0099309Y0022108D01*
X0102125Y0019292D01*
X0105574Y0017300D01*
X0109422Y0016269D01*
X0113405Y0016269D01*
X0116443Y0017083D02*
X0193649Y0017083D01*
X0194074Y0017682D02*
X0117913Y0017682D01*
X0118950Y0018280D02*
X0194498Y0018280D01*
X0194858Y0018879D02*
X0119986Y0018879D01*
X0120887Y0019477D02*
X0195189Y0019477D01*
X0195520Y0020076D02*
X0121485Y0020076D01*
X0122084Y0020674D02*
X0195850Y0020674D01*
X0196167Y0021273D02*
X0122682Y0021273D01*
X0123281Y0021871D02*
X0196415Y0021871D01*
X0196663Y0022470D02*
X0123726Y0022470D01*
X0124072Y0023069D02*
X0196911Y0023069D01*
X0197159Y0023667D02*
X0124418Y0023667D01*
X0124763Y0024266D02*
X0197376Y0024266D01*
X0197549Y0024864D02*
X0125109Y0024864D01*
X0125454Y0025463D02*
X0197721Y0025463D01*
X0197894Y0026061D02*
X0125644Y0026061D01*
X0125804Y0026660D02*
X0198066Y0026660D01*
X0198208Y0027258D02*
X0133882Y0027258D01*
X0133363Y0026739D02*
X0135413Y0028789D01*
X0135413Y0031688D01*
X0133363Y0033739D01*
X0130463Y0033739D01*
X0128413Y0031688D01*
X0128413Y0028789D01*
X0130463Y0026739D01*
X0133363Y0026739D01*
X0134481Y0027857D02*
X0198309Y0027857D01*
X0197809Y0028455D02*
X0135079Y0028455D01*
X0135413Y0029054D02*
X0150412Y0029054D01*
X0150469Y0028996D02*
X0155357Y0028996D01*
X0158813Y0032452D01*
X0158813Y0037340D01*
X0155357Y0040796D01*
X0150469Y0040796D01*
X0147013Y0037340D01*
X0147013Y0032452D01*
X0150469Y0028996D01*
X0149813Y0029652D02*
X0135413Y0029652D01*
X0135413Y0030251D02*
X0149215Y0030251D01*
X0148616Y0030849D02*
X0135413Y0030849D01*
X0135413Y0031448D02*
X0148018Y0031448D01*
X0147419Y0032046D02*
X0135055Y0032046D01*
X0134457Y0032645D02*
X0147013Y0032645D01*
X0147013Y0033243D02*
X0133858Y0033243D01*
X0129968Y0033243D02*
X0126540Y0033243D01*
X0126540Y0032645D02*
X0129369Y0032645D01*
X0128771Y0032046D02*
X0126540Y0032046D01*
X0126540Y0031448D02*
X0128413Y0031448D01*
X0128413Y0030849D02*
X0126540Y0030849D01*
X0126540Y0030251D02*
X0128413Y0030251D01*
X0128413Y0029652D02*
X0126540Y0029652D01*
X0126446Y0029054D02*
X0128413Y0029054D01*
X0128747Y0028455D02*
X0126285Y0028455D01*
X0126125Y0027857D02*
X0129345Y0027857D01*
X0129944Y0027258D02*
X0125965Y0027258D01*
X0126418Y0033842D02*
X0147013Y0033842D01*
X0147013Y0034440D02*
X0126258Y0034440D01*
X0126097Y0035039D02*
X0147013Y0035039D01*
X0147013Y0035637D02*
X0125937Y0035637D01*
X0125777Y0036236D02*
X0147013Y0036236D01*
X0147013Y0036834D02*
X0125616Y0036834D01*
X0125395Y0037433D02*
X0147106Y0037433D01*
X0147704Y0038031D02*
X0125049Y0038031D01*
X0124703Y0038630D02*
X0148303Y0038630D01*
X0148901Y0039228D02*
X0124358Y0039228D01*
X0124012Y0039827D02*
X0149500Y0039827D01*
X0150099Y0040425D02*
X0123667Y0040425D01*
X0123178Y0041024D02*
X0180131Y0041024D01*
X0180303Y0041196D02*
X0176613Y0037506D01*
X0176613Y0035196D01*
X0182613Y0035196D01*
X0182613Y0034596D01*
X0176613Y0034596D01*
X0176613Y0032286D01*
X0180303Y0028596D01*
X0182613Y0028596D01*
X0182613Y0034596D01*
X0183213Y0034596D01*
X0183213Y0028596D01*
X0185523Y0028596D01*
X0189213Y0032286D01*
X0189213Y0034596D01*
X0183213Y0034596D01*
X0183213Y0035196D01*
X0182613Y0035196D01*
X0182613Y0041196D01*
X0180303Y0041196D01*
X0179533Y0040425D02*
X0155728Y0040425D01*
X0156326Y0039827D02*
X0178934Y0039827D01*
X0178336Y0039228D02*
X0156925Y0039228D01*
X0157523Y0038630D02*
X0177737Y0038630D01*
X0177139Y0038031D02*
X0158122Y0038031D01*
X0158720Y0037433D02*
X0176613Y0037433D01*
X0176613Y0036834D02*
X0158813Y0036834D01*
X0158813Y0036236D02*
X0176613Y0036236D01*
X0176613Y0035637D02*
X0158813Y0035637D01*
X0158813Y0035039D02*
X0182613Y0035039D01*
X0182613Y0035637D02*
X0183213Y0035637D01*
X0183213Y0035196D02*
X0183213Y0041196D01*
X0185523Y0041196D01*
X0189213Y0037506D01*
X0189213Y0035196D01*
X0183213Y0035196D01*
X0183213Y0035039D02*
X0196813Y0035039D01*
X0196813Y0035637D02*
X0189213Y0035637D01*
X0189213Y0036236D02*
X0196813Y0036236D01*
X0196813Y0036834D02*
X0189213Y0036834D01*
X0189213Y0037433D02*
X0196813Y0037433D01*
X0196813Y0038031D02*
X0188687Y0038031D01*
X0188089Y0038630D02*
X0196813Y0038630D01*
X0196813Y0039228D02*
X0187490Y0039228D01*
X0186892Y0039827D02*
X0196813Y0039827D01*
X0196813Y0040425D02*
X0186293Y0040425D01*
X0185695Y0041024D02*
X0196813Y0041024D01*
X0196813Y0041622D02*
X0122579Y0041622D01*
X0121981Y0042221D02*
X0196813Y0042221D01*
X0196813Y0042819D02*
X0121382Y0042819D01*
X0120784Y0043418D02*
X0196813Y0043418D01*
X0196813Y0044016D02*
X0119807Y0044016D01*
X0118771Y0044615D02*
X0196813Y0044615D01*
X0196813Y0045213D02*
X0117734Y0045213D01*
X0116057Y0045812D02*
X0196813Y0045812D01*
X0192457Y0048804D02*
X0190585Y0048804D01*
X0190585Y0048206D02*
X0191923Y0048206D01*
X0191325Y0047607D02*
X0190585Y0047607D01*
X0190174Y0047009D02*
X0191281Y0047009D01*
X0191522Y0046410D02*
X0189576Y0046410D01*
X0190585Y0049403D02*
X0191559Y0049403D01*
X0191281Y0050002D02*
X0190449Y0050002D01*
X0189850Y0050600D02*
X0191281Y0050600D01*
X0191847Y0051199D02*
X0190527Y0051199D01*
X0190585Y0051797D02*
X0191507Y0051797D01*
X0191281Y0052396D02*
X0190356Y0052396D01*
X0191281Y0052994D02*
X0189050Y0052994D01*
X0189050Y0053593D02*
X0191281Y0053593D01*
X0191281Y0054191D02*
X0189050Y0054191D01*
X0188730Y0054790D02*
X0191281Y0054790D01*
X0191432Y0055388D02*
X0188578Y0055388D01*
X0189050Y0055987D02*
X0191281Y0055987D01*
X0191281Y0056585D02*
X0189050Y0056585D01*
X0188839Y0057184D02*
X0191693Y0057184D01*
X0191829Y0058381D02*
X0189050Y0058381D01*
X0189050Y0058979D02*
X0191281Y0058979D01*
X0191281Y0059578D02*
X0188931Y0059578D01*
X0189050Y0057782D02*
X0194350Y0057782D01*
X0191616Y0060176D02*
X0191064Y0060176D01*
X0191352Y0060775D02*
X0191737Y0060775D01*
X0191281Y0061972D02*
X0190755Y0061972D01*
X0191281Y0062570D02*
X0188087Y0062570D01*
X0188406Y0062889D02*
X0188406Y0062889D01*
X0188686Y0063169D02*
X0191281Y0063169D01*
X0191371Y0063767D02*
X0189050Y0063767D01*
X0189050Y0064366D02*
X0191969Y0064366D01*
X0191925Y0064322D02*
X0191925Y0064322D01*
X0191384Y0064964D02*
X0189050Y0064964D01*
X0189050Y0065563D02*
X0191281Y0065563D01*
X0191281Y0066161D02*
X0189050Y0066161D01*
X0189037Y0066760D02*
X0191281Y0066760D01*
X0191281Y0067358D02*
X0189039Y0067358D01*
X0189637Y0067957D02*
X0191281Y0067957D01*
X0191555Y0068555D02*
X0189817Y0068555D01*
X0189712Y0069154D02*
X0192154Y0069154D01*
X0192048Y0069048D02*
X0192048Y0069048D01*
X0191967Y0069752D02*
X0189050Y0069752D01*
X0188515Y0070351D02*
X0191369Y0070351D01*
X0191281Y0070949D02*
X0188793Y0070949D01*
X0188406Y0070562D02*
X0188406Y0070562D01*
X0189050Y0071548D02*
X0191281Y0071548D01*
X0191281Y0072146D02*
X0189050Y0072146D01*
X0189050Y0072745D02*
X0191281Y0072745D01*
X0191281Y0073343D02*
X0189050Y0073343D01*
X0188760Y0073942D02*
X0191570Y0073942D01*
X0191783Y0074540D02*
X0188547Y0074540D01*
X0189050Y0075139D02*
X0191281Y0075139D01*
X0191281Y0075738D02*
X0189050Y0075738D01*
X0189050Y0076336D02*
X0191281Y0076336D01*
X0191281Y0076935D02*
X0189050Y0076935D01*
X0189050Y0077533D02*
X0191281Y0077533D01*
X0191281Y0078132D02*
X0189050Y0078132D01*
X0188576Y0078730D02*
X0191755Y0078730D01*
X0190266Y0079329D02*
X0196813Y0079329D01*
X0196813Y0079927D02*
X0190585Y0079927D01*
X0190585Y0080526D02*
X0196813Y0080526D01*
X0196813Y0081124D02*
X0190019Y0081124D01*
X0189050Y0081723D02*
X0196813Y0081723D01*
X0196813Y0082321D02*
X0189050Y0082321D01*
X0188991Y0082920D02*
X0195030Y0082920D01*
X0195870Y0082920D02*
X0196813Y0082920D01*
X0196813Y0083518D02*
X0196469Y0083518D01*
X0196550Y0084117D02*
X0196813Y0084117D01*
X0196813Y0084715D02*
X0196351Y0084715D01*
X0196813Y0085314D02*
X0195161Y0085314D01*
X0195717Y0085912D02*
X0196813Y0085912D01*
X0196813Y0086511D02*
X0196444Y0086511D01*
X0196630Y0087109D02*
X0196813Y0087109D01*
X0196813Y0087708D02*
X0196330Y0087708D01*
X0196769Y0088306D02*
X0196813Y0088306D01*
X0194350Y0088306D02*
X0193481Y0088306D01*
X0193481Y0088905D02*
X0194350Y0088905D01*
X0194389Y0087708D02*
X0193101Y0087708D01*
X0193192Y0087109D02*
X0189050Y0087109D01*
X0189050Y0086511D02*
X0191995Y0086511D01*
X0191367Y0085912D02*
X0189050Y0085912D01*
X0189050Y0085314D02*
X0191231Y0085314D01*
X0191474Y0084715D02*
X0188747Y0084715D01*
X0188406Y0084374D02*
X0188406Y0084374D01*
X0188283Y0084251D02*
X0188283Y0084251D01*
X0188148Y0084117D02*
X0192635Y0084117D01*
X0193833Y0083518D02*
X0188392Y0083518D01*
X0186850Y0081723D02*
X0183398Y0081723D01*
X0183398Y0081445D02*
X0183398Y0084285D01*
X0179430Y0084285D01*
X0179430Y0084885D01*
X0183398Y0084885D01*
X0183398Y0087725D01*
X0183309Y0088055D01*
X0183138Y0088352D01*
X0182896Y0088594D01*
X0182600Y0088765D01*
X0182269Y0088853D01*
X0179430Y0088853D01*
X0179430Y0084885D01*
X0178830Y0084885D01*
X0178830Y0088853D01*
X0175990Y0088853D01*
X0175659Y0088765D01*
X0175363Y0088594D01*
X0175121Y0088352D01*
X0174950Y0088055D01*
X0174861Y0087725D01*
X0174861Y0084885D01*
X0178830Y0084885D01*
X0178830Y0084285D01*
X0179430Y0084285D01*
X0179430Y0080316D01*
X0182269Y0080316D01*
X0182600Y0080405D01*
X0182896Y0080576D01*
X0183138Y0080818D01*
X0183309Y0081115D01*
X0183398Y0081445D01*
X0183312Y0081124D02*
X0184347Y0081124D01*
X0183781Y0080526D02*
X0182809Y0080526D01*
X0183781Y0079927D02*
X0095135Y0079927D01*
X0095677Y0079702D02*
X0094244Y0080296D01*
X0086692Y0080296D01*
X0085259Y0079702D01*
X0084162Y0078605D01*
X0083568Y0077172D01*
X0083568Y0075620D01*
X0084162Y0074187D01*
X0085259Y0073090D01*
X0086692Y0072496D01*
X0094244Y0072496D01*
X0095677Y0073090D01*
X0096774Y0074187D01*
X0097368Y0075620D01*
X0097368Y0077172D01*
X0096774Y0078605D01*
X0095677Y0079702D01*
X0096051Y0079329D02*
X0184099Y0079329D01*
X0184255Y0078730D02*
X0096650Y0078730D01*
X0096971Y0078132D02*
X0183781Y0078132D01*
X0183781Y0077533D02*
X0158383Y0077533D01*
X0158274Y0077642D02*
X0144867Y0077642D01*
X0144340Y0077115D01*
X0144340Y0063708D01*
X0144867Y0063181D01*
X0158274Y0063181D01*
X0158801Y0063708D01*
X0158801Y0077115D01*
X0158274Y0077642D01*
X0158801Y0076935D02*
X0183781Y0076935D01*
X0182628Y0076336D02*
X0158801Y0076336D01*
X0158801Y0075738D02*
X0182246Y0075738D01*
X0182246Y0075139D02*
X0158801Y0075139D01*
X0158801Y0074540D02*
X0182749Y0074540D01*
X0184070Y0073942D02*
X0158801Y0073942D01*
X0158801Y0073343D02*
X0183781Y0073343D01*
X0183781Y0072745D02*
X0158801Y0072745D01*
X0158801Y0072146D02*
X0183781Y0072146D01*
X0183781Y0071548D02*
X0158801Y0071548D01*
X0158801Y0070949D02*
X0184038Y0070949D01*
X0184316Y0070351D02*
X0158801Y0070351D01*
X0158801Y0069752D02*
X0183781Y0069752D01*
X0183781Y0069154D02*
X0158801Y0069154D01*
X0158801Y0068555D02*
X0184130Y0068555D01*
X0184548Y0068137D02*
X0184548Y0068137D01*
X0184728Y0067957D02*
X0158801Y0067957D01*
X0158801Y0067358D02*
X0185160Y0067358D01*
X0184561Y0066760D02*
X0158801Y0066760D01*
X0158801Y0066161D02*
X0183963Y0066161D01*
X0183781Y0065563D02*
X0158801Y0065563D01*
X0158801Y0064964D02*
X0183781Y0064964D01*
X0183781Y0064366D02*
X0158801Y0064366D01*
X0158801Y0063767D02*
X0183781Y0063767D01*
X0183781Y0063169D02*
X0133933Y0063169D01*
X0133363Y0063739D02*
X0135413Y0061688D01*
X0135413Y0058789D01*
X0133363Y0056739D01*
X0130463Y0056739D01*
X0128413Y0058789D01*
X0128413Y0061688D01*
X0130463Y0063739D01*
X0133363Y0063739D01*
X0134531Y0062570D02*
X0183976Y0062570D01*
X0183781Y0061972D02*
X0135130Y0061972D01*
X0135413Y0061373D02*
X0183781Y0061373D01*
X0183781Y0060775D02*
X0135413Y0060775D01*
X0135413Y0060176D02*
X0183781Y0060176D01*
X0183900Y0059578D02*
X0135413Y0059578D01*
X0135413Y0058979D02*
X0186850Y0058979D01*
X0186850Y0058381D02*
X0135005Y0058381D01*
X0134406Y0057782D02*
X0186326Y0057782D01*
X0185862Y0059578D02*
X0186969Y0059578D01*
X0188454Y0061972D02*
X0188981Y0061972D01*
X0186278Y0062570D02*
X0185785Y0062570D01*
X0184425Y0066623D02*
X0184425Y0066623D01*
X0184548Y0066746D02*
X0184548Y0066746D01*
X0186136Y0067358D02*
X0186862Y0067358D01*
X0186863Y0066760D02*
X0186735Y0066760D01*
X0184193Y0057184D02*
X0133808Y0057184D01*
X0130018Y0057184D02*
X0097363Y0057184D01*
X0097368Y0057172D02*
X0096774Y0058605D01*
X0095677Y0059702D01*
X0094244Y0060296D01*
X0086692Y0060296D01*
X0085259Y0059702D01*
X0084162Y0058605D01*
X0083568Y0057172D01*
X0083568Y0055620D01*
X0084162Y0054187D01*
X0085259Y0053090D01*
X0086692Y0052496D01*
X0094244Y0052496D01*
X0095677Y0053090D01*
X0096774Y0054187D01*
X0097368Y0055620D01*
X0097368Y0057172D01*
X0097368Y0056585D02*
X0183781Y0056585D01*
X0183781Y0055987D02*
X0097368Y0055987D01*
X0097272Y0055388D02*
X0183932Y0055388D01*
X0183781Y0054790D02*
X0097024Y0054790D01*
X0096776Y0054191D02*
X0183915Y0054191D01*
X0184009Y0052396D02*
X0006013Y0052396D01*
X0006013Y0052994D02*
X0027380Y0052994D01*
X0027149Y0053090D02*
X0028582Y0052496D01*
X0036134Y0052496D01*
X0037567Y0053090D01*
X0038664Y0054187D01*
X0039258Y0055620D01*
X0039258Y0057172D01*
X0038664Y0058605D01*
X0037567Y0059702D01*
X0036134Y0060296D01*
X0028582Y0060296D01*
X0027149Y0059702D01*
X0026052Y0058605D01*
X0025458Y0057172D01*
X0025458Y0055620D01*
X0026052Y0054187D01*
X0027149Y0053090D01*
X0026646Y0053593D02*
X0006013Y0053593D01*
X0006013Y0054191D02*
X0026050Y0054191D01*
X0025802Y0054790D02*
X0006013Y0054790D01*
X0006013Y0055388D02*
X0025554Y0055388D01*
X0025458Y0055987D02*
X0006013Y0055987D01*
X0006013Y0056585D02*
X0025458Y0056585D01*
X0025463Y0057184D02*
X0006013Y0057184D01*
X0006013Y0057782D02*
X0025711Y0057782D01*
X0025959Y0058381D02*
X0006013Y0058381D01*
X0006013Y0058979D02*
X0026426Y0058979D01*
X0027024Y0059578D02*
X0006013Y0059578D01*
X0006013Y0060176D02*
X0028293Y0060176D01*
X0028582Y0062496D02*
X0027149Y0063090D01*
X0026052Y0064187D01*
X0025458Y0065620D01*
X0025458Y0067172D01*
X0026052Y0068605D01*
X0027149Y0069702D01*
X0028582Y0070296D01*
X0036134Y0070296D01*
X0037567Y0069702D01*
X0038664Y0068605D01*
X0039258Y0067172D01*
X0039258Y0065620D01*
X0038664Y0064187D01*
X0037567Y0063090D01*
X0036134Y0062496D01*
X0028582Y0062496D01*
X0028403Y0062570D02*
X0006013Y0062570D01*
X0006013Y0061972D02*
X0128697Y0061972D01*
X0128413Y0061373D02*
X0006013Y0061373D01*
X0006013Y0060775D02*
X0128413Y0060775D01*
X0128413Y0060176D02*
X0094533Y0060176D01*
X0095802Y0059578D02*
X0128413Y0059578D01*
X0128413Y0058979D02*
X0096400Y0058979D01*
X0096867Y0058381D02*
X0128821Y0058381D01*
X0129420Y0057782D02*
X0097115Y0057782D01*
X0096180Y0053593D02*
X0186816Y0053593D01*
X0186850Y0052994D02*
X0095446Y0052994D01*
X0094244Y0050296D02*
X0086692Y0050296D01*
X0085259Y0049702D01*
X0084162Y0048605D01*
X0083568Y0047172D01*
X0083568Y0045620D01*
X0084162Y0044187D01*
X0085259Y0043090D01*
X0086692Y0042496D01*
X0094244Y0042496D01*
X0095677Y0043090D01*
X0096774Y0044187D01*
X0097368Y0045620D01*
X0097368Y0047172D01*
X0096774Y0048605D01*
X0095677Y0049702D01*
X0094244Y0050296D01*
X0094955Y0050002D02*
X0183917Y0050002D01*
X0183781Y0049403D02*
X0095977Y0049403D01*
X0096575Y0048804D02*
X0183781Y0048804D01*
X0183781Y0048206D02*
X0096940Y0048206D01*
X0097188Y0047607D02*
X0183781Y0047607D01*
X0184191Y0047009D02*
X0097368Y0047009D01*
X0097368Y0046410D02*
X0109002Y0046410D01*
X0106769Y0045812D02*
X0097368Y0045812D01*
X0097200Y0045213D02*
X0105092Y0045213D01*
X0104055Y0044615D02*
X0096952Y0044615D01*
X0096604Y0044016D02*
X0103019Y0044016D01*
X0102042Y0043418D02*
X0096005Y0043418D01*
X0095025Y0042819D02*
X0101444Y0042819D01*
X0100845Y0042221D02*
X0006013Y0042221D01*
X0006013Y0042819D02*
X0027801Y0042819D01*
X0027149Y0043090D02*
X0028582Y0042496D01*
X0036134Y0042496D01*
X0037567Y0043090D01*
X0038664Y0044187D01*
X0039258Y0045620D01*
X0039258Y0047172D01*
X0038664Y0048605D01*
X0037567Y0049702D01*
X0036134Y0050296D01*
X0028582Y0050296D01*
X0027149Y0049702D01*
X0026052Y0048605D01*
X0025458Y0047172D01*
X0025458Y0045620D01*
X0026052Y0044187D01*
X0027149Y0043090D01*
X0026821Y0043418D02*
X0006013Y0043418D01*
X0006013Y0044016D02*
X0026222Y0044016D01*
X0025874Y0044615D02*
X0006013Y0044615D01*
X0006013Y0045213D02*
X0025626Y0045213D01*
X0025458Y0045812D02*
X0006013Y0045812D01*
X0006013Y0046410D02*
X0025458Y0046410D01*
X0025458Y0047009D02*
X0006013Y0047009D01*
X0006013Y0047607D02*
X0025638Y0047607D01*
X0025886Y0048206D02*
X0006013Y0048206D01*
X0006013Y0048804D02*
X0026251Y0048804D01*
X0026849Y0049403D02*
X0006013Y0049403D01*
X0006013Y0050002D02*
X0027871Y0050002D01*
X0036845Y0050002D02*
X0085981Y0050002D01*
X0084960Y0049403D02*
X0037866Y0049403D01*
X0038465Y0048804D02*
X0084361Y0048804D01*
X0083997Y0048206D02*
X0038830Y0048206D01*
X0039077Y0047607D02*
X0083749Y0047607D01*
X0083568Y0047009D02*
X0039258Y0047009D01*
X0039258Y0046410D02*
X0083568Y0046410D01*
X0083568Y0045812D02*
X0039258Y0045812D01*
X0039089Y0045213D02*
X0083737Y0045213D01*
X0083985Y0044615D02*
X0038841Y0044615D01*
X0038494Y0044016D02*
X0084332Y0044016D01*
X0084931Y0043418D02*
X0037895Y0043418D01*
X0036914Y0042819D02*
X0085912Y0042819D01*
X0085560Y0039827D02*
X0037266Y0039827D01*
X0037567Y0039702D02*
X0036134Y0040296D01*
X0028582Y0040296D01*
X0027149Y0039702D01*
X0026052Y0038605D01*
X0025458Y0037172D01*
X0025458Y0035620D01*
X0026052Y0034187D01*
X0027149Y0033090D01*
X0028582Y0032496D01*
X0036134Y0032496D01*
X0037567Y0033090D01*
X0038664Y0034187D01*
X0039258Y0035620D01*
X0039258Y0037172D01*
X0038664Y0038605D01*
X0037567Y0039702D01*
X0038041Y0039228D02*
X0084785Y0039228D01*
X0084187Y0038630D02*
X0038640Y0038630D01*
X0038902Y0038031D02*
X0083924Y0038031D01*
X0083676Y0037433D02*
X0039150Y0037433D01*
X0039258Y0036834D02*
X0083568Y0036834D01*
X0083568Y0036236D02*
X0039258Y0036236D01*
X0039258Y0035637D02*
X0083568Y0035637D01*
X0083809Y0035039D02*
X0039017Y0035039D01*
X0038769Y0034440D02*
X0084057Y0034440D01*
X0084507Y0033842D02*
X0038319Y0033842D01*
X0037721Y0033243D02*
X0085106Y0033243D01*
X0086333Y0032645D02*
X0036493Y0032645D01*
X0036365Y0030590D02*
X0035696Y0030696D01*
X0032658Y0030696D01*
X0032658Y0026696D01*
X0039658Y0026696D01*
X0039658Y0026734D01*
X0039552Y0027403D01*
X0039343Y0028047D01*
X0039036Y0028650D01*
X0038638Y0029197D01*
X0038159Y0029676D01*
X0037612Y0030074D01*
X0037009Y0030381D01*
X0036365Y0030590D01*
X0037264Y0030251D02*
X0086583Y0030251D01*
X0085209Y0029652D02*
X0038183Y0029652D01*
X0038742Y0029054D02*
X0084610Y0029054D01*
X0084100Y0028455D02*
X0039135Y0028455D01*
X0039405Y0027857D02*
X0083852Y0027857D01*
X0083604Y0027258D02*
X0039575Y0027258D01*
X0039658Y0026096D02*
X0032658Y0026096D01*
X0032658Y0026696D01*
X0032058Y0026696D01*
X0032058Y0030696D01*
X0029020Y0030696D01*
X0028351Y0030590D01*
X0027707Y0030381D01*
X0027104Y0030074D01*
X0026557Y0029676D01*
X0026078Y0029197D01*
X0025680Y0028650D01*
X0025373Y0028047D01*
X0025164Y0027403D01*
X0025058Y0026734D01*
X0025058Y0026696D01*
X0032058Y0026696D01*
X0032058Y0026096D01*
X0032658Y0026096D01*
X0032658Y0022096D01*
X0035696Y0022096D01*
X0036365Y0022202D01*
X0037009Y0022411D01*
X0037612Y0022718D01*
X0038159Y0023116D01*
X0038638Y0023595D01*
X0039036Y0024142D01*
X0039343Y0024745D01*
X0039552Y0025389D01*
X0039658Y0026058D01*
X0039658Y0026096D01*
X0039658Y0026061D02*
X0083568Y0026061D01*
X0083568Y0026660D02*
X0032658Y0026660D01*
X0032658Y0027258D02*
X0032058Y0027258D01*
X0032058Y0026660D02*
X0005250Y0026660D01*
X0005078Y0027258D02*
X0025141Y0027258D01*
X0025311Y0027857D02*
X0004905Y0027857D01*
X0004733Y0028455D02*
X0025581Y0028455D01*
X0025974Y0029054D02*
X0004623Y0029054D01*
X0004521Y0029652D02*
X0026533Y0029652D01*
X0027452Y0030251D02*
X0004419Y0030251D01*
X0004318Y0030849D02*
X0096286Y0030849D01*
X0096286Y0030251D02*
X0094353Y0030251D01*
X0095727Y0029652D02*
X0096286Y0029652D01*
X0096326Y0029054D02*
X0096380Y0029054D01*
X0096286Y0031448D02*
X0004216Y0031448D01*
X0004143Y0032046D02*
X0096286Y0032046D01*
X0096286Y0032645D02*
X0094603Y0032645D01*
X0095831Y0033243D02*
X0096286Y0033243D01*
X0097260Y0037433D02*
X0097432Y0037433D01*
X0097777Y0038031D02*
X0097012Y0038031D01*
X0096750Y0038630D02*
X0098123Y0038630D01*
X0098468Y0039228D02*
X0096151Y0039228D01*
X0095377Y0039827D02*
X0098814Y0039827D01*
X0099159Y0040425D02*
X0006013Y0040425D01*
X0006013Y0039827D02*
X0027449Y0039827D01*
X0026675Y0039228D02*
X0006013Y0039228D01*
X0006013Y0038630D02*
X0026076Y0038630D01*
X0025814Y0038031D02*
X0006013Y0038031D01*
X0006013Y0037433D02*
X0025566Y0037433D01*
X0025458Y0036834D02*
X0006013Y0036834D01*
X0006013Y0036236D02*
X0025458Y0036236D01*
X0025458Y0035637D02*
X0006013Y0035637D01*
X0005879Y0035039D02*
X0025699Y0035039D01*
X0025947Y0034440D02*
X0005631Y0034440D01*
X0005383Y0033842D02*
X0026397Y0033842D01*
X0026995Y0033243D02*
X0004884Y0033243D01*
X0004285Y0032645D02*
X0028223Y0032645D01*
X0032058Y0030251D02*
X0032658Y0030251D01*
X0032658Y0029652D02*
X0032058Y0029652D01*
X0032058Y0029054D02*
X0032658Y0029054D01*
X0032658Y0028455D02*
X0032058Y0028455D01*
X0032058Y0027857D02*
X0032658Y0027857D01*
X0032658Y0026061D02*
X0032058Y0026061D01*
X0032058Y0026096D02*
X0032058Y0022096D01*
X0029020Y0022096D01*
X0028351Y0022202D01*
X0027707Y0022411D01*
X0027104Y0022718D01*
X0026557Y0023116D01*
X0026078Y0023595D01*
X0025680Y0024142D01*
X0025373Y0024745D01*
X0025164Y0025389D01*
X0025058Y0026058D01*
X0025058Y0026096D01*
X0032058Y0026096D01*
X0032058Y0025463D02*
X0032658Y0025463D01*
X0032658Y0024864D02*
X0032058Y0024864D01*
X0032058Y0024266D02*
X0032658Y0024266D01*
X0032658Y0023667D02*
X0032058Y0023667D01*
X0032058Y0023069D02*
X0032658Y0023069D01*
X0032658Y0022470D02*
X0032058Y0022470D01*
X0028582Y0020296D02*
X0027149Y0019702D01*
X0026052Y0018605D01*
X0025458Y0017172D01*
X0025458Y0015620D01*
X0026052Y0014187D01*
X0027149Y0013090D01*
X0028582Y0012496D01*
X0036134Y0012496D01*
X0037567Y0013090D01*
X0038664Y0014187D01*
X0039258Y0015620D01*
X0039258Y0017172D01*
X0038664Y0018605D01*
X0037567Y0019702D01*
X0036134Y0020296D01*
X0028582Y0020296D01*
X0028051Y0020076D02*
X0008117Y0020076D01*
X0007787Y0020674D02*
X0100742Y0020674D01*
X0101341Y0020076D02*
X0094775Y0020076D01*
X0095902Y0019477D02*
X0101939Y0019477D01*
X0102840Y0018879D02*
X0096501Y0018879D01*
X0096909Y0018280D02*
X0103876Y0018280D01*
X0104913Y0017682D02*
X0097157Y0017682D01*
X0097368Y0017083D02*
X0106383Y0017083D01*
X0108617Y0016485D02*
X0097368Y0016485D01*
X0100144Y0021273D02*
X0007456Y0021273D01*
X0007125Y0021871D02*
X0099545Y0021871D01*
X0099100Y0022470D02*
X0037124Y0022470D01*
X0038094Y0023069D02*
X0085310Y0023069D01*
X0084682Y0023667D02*
X0038690Y0023667D01*
X0039098Y0024266D02*
X0084129Y0024266D01*
X0083881Y0024864D02*
X0039381Y0024864D01*
X0039564Y0025463D02*
X0083633Y0025463D01*
X0086161Y0020076D02*
X0036665Y0020076D01*
X0037792Y0019477D02*
X0085034Y0019477D01*
X0084436Y0018879D02*
X0038390Y0018879D01*
X0038799Y0018280D02*
X0084027Y0018280D01*
X0083779Y0017682D02*
X0039047Y0017682D01*
X0039258Y0017083D02*
X0083568Y0017083D01*
X0083568Y0016485D02*
X0039258Y0016485D01*
X0039258Y0015886D02*
X0083568Y0015886D01*
X0083706Y0015288D02*
X0039120Y0015288D01*
X0038872Y0014689D02*
X0083954Y0014689D01*
X0084258Y0014091D02*
X0038568Y0014091D01*
X0037970Y0013492D02*
X0084856Y0013492D01*
X0085732Y0012894D02*
X0037094Y0012894D01*
X0034756Y0005712D02*
X0030963Y0005712D01*
X0027622Y0012894D02*
X0014102Y0012894D01*
X0013432Y0013492D02*
X0026746Y0013492D01*
X0026148Y0014091D02*
X0012762Y0014091D01*
X0012199Y0014689D02*
X0025844Y0014689D01*
X0025596Y0015288D02*
X0011664Y0015288D01*
X0011129Y0015886D02*
X0025458Y0015886D01*
X0025458Y0016485D02*
X0010594Y0016485D01*
X0010133Y0017083D02*
X0025458Y0017083D01*
X0025669Y0017682D02*
X0009708Y0017682D01*
X0009283Y0018280D02*
X0025917Y0018280D01*
X0026325Y0018879D02*
X0008859Y0018879D01*
X0008448Y0019477D02*
X0026924Y0019477D01*
X0027592Y0022470D02*
X0006820Y0022470D01*
X0006572Y0023069D02*
X0026622Y0023069D01*
X0026026Y0023667D02*
X0006324Y0023667D01*
X0006076Y0024266D02*
X0025617Y0024266D01*
X0025334Y0024864D02*
X0005828Y0024864D01*
X0005595Y0025463D02*
X0025152Y0025463D01*
X0025058Y0026061D02*
X0005423Y0026061D01*
X0006013Y0041024D02*
X0099648Y0041024D01*
X0100247Y0041622D02*
X0006013Y0041622D01*
X0006013Y0050600D02*
X0184515Y0050600D01*
X0183838Y0051199D02*
X0006013Y0051199D01*
X0006013Y0051797D02*
X0183781Y0051797D01*
X0184790Y0046410D02*
X0113824Y0046410D01*
X0129295Y0062570D02*
X0094423Y0062570D01*
X0094244Y0062496D02*
X0095677Y0063090D01*
X0096774Y0064187D01*
X0097368Y0065620D01*
X0097368Y0067172D01*
X0096774Y0068605D01*
X0095677Y0069702D01*
X0094244Y0070296D01*
X0086692Y0070296D01*
X0085259Y0069702D01*
X0084162Y0068605D01*
X0083568Y0067172D01*
X0083568Y0065620D01*
X0084162Y0064187D01*
X0085259Y0063090D01*
X0086692Y0062496D01*
X0094244Y0062496D01*
X0095756Y0063169D02*
X0129894Y0063169D01*
X0144340Y0063767D02*
X0096355Y0063767D01*
X0096849Y0064366D02*
X0144340Y0064366D01*
X0144340Y0064964D02*
X0097096Y0064964D01*
X0097344Y0065563D02*
X0144340Y0065563D01*
X0144340Y0066161D02*
X0097368Y0066161D01*
X0097368Y0066760D02*
X0144340Y0066760D01*
X0144340Y0067358D02*
X0097291Y0067358D01*
X0097043Y0067957D02*
X0144340Y0067957D01*
X0144340Y0068555D02*
X0096795Y0068555D01*
X0096226Y0069154D02*
X0144340Y0069154D01*
X0144340Y0069752D02*
X0095556Y0069752D01*
X0094845Y0072745D02*
X0144340Y0072745D01*
X0144340Y0073343D02*
X0095931Y0073343D01*
X0096530Y0073942D02*
X0144340Y0073942D01*
X0144340Y0074540D02*
X0096921Y0074540D01*
X0097169Y0075139D02*
X0144340Y0075139D01*
X0144340Y0075738D02*
X0097368Y0075738D01*
X0097368Y0076336D02*
X0144340Y0076336D01*
X0144340Y0076935D02*
X0097368Y0076935D01*
X0097219Y0077533D02*
X0144758Y0077533D01*
X0144340Y0072146D02*
X0018648Y0072146D01*
X0018607Y0072403D02*
X0018398Y0073047D01*
X0018091Y0073650D01*
X0017693Y0074197D01*
X0017214Y0074676D01*
X0016667Y0075074D01*
X0016064Y0075381D01*
X0015420Y0075590D01*
X0014751Y0075696D01*
X0011713Y0075696D01*
X0011713Y0071696D01*
X0018713Y0071696D01*
X0018713Y0071734D01*
X0018607Y0072403D01*
X0018496Y0072745D02*
X0027981Y0072745D01*
X0028582Y0072496D02*
X0027149Y0073090D01*
X0026052Y0074187D01*
X0025458Y0075620D01*
X0025458Y0077172D01*
X0026052Y0078605D01*
X0027149Y0079702D01*
X0028582Y0080296D01*
X0036134Y0080296D01*
X0037567Y0079702D01*
X0038664Y0078605D01*
X0039258Y0077172D01*
X0039258Y0075620D01*
X0038664Y0074187D01*
X0037567Y0073090D01*
X0036134Y0072496D01*
X0028582Y0072496D01*
X0026895Y0073343D02*
X0018247Y0073343D01*
X0017878Y0073942D02*
X0026297Y0073942D01*
X0025905Y0074540D02*
X0017350Y0074540D01*
X0016539Y0075139D02*
X0025657Y0075139D01*
X0025458Y0075738D02*
X0006013Y0075738D01*
X0006013Y0076336D02*
X0025458Y0076336D01*
X0025458Y0076935D02*
X0006013Y0076935D01*
X0006013Y0077533D02*
X0007548Y0077533D01*
X0006162Y0078132D02*
X0006013Y0078132D01*
X0006013Y0075139D02*
X0006287Y0075139D01*
X0011113Y0075139D02*
X0011713Y0075139D01*
X0011713Y0074540D02*
X0011113Y0074540D01*
X0011113Y0073942D02*
X0011713Y0073942D01*
X0011713Y0073343D02*
X0011113Y0073343D01*
X0011113Y0072745D02*
X0011713Y0072745D01*
X0011713Y0072146D02*
X0011113Y0072146D01*
X0011713Y0071548D02*
X0144340Y0071548D01*
X0144340Y0070949D02*
X0018696Y0070949D01*
X0018595Y0070351D02*
X0144340Y0070351D01*
X0125911Y0081244D02*
X0125911Y0087926D01*
X0125384Y0088453D01*
X0118702Y0088453D01*
X0118174Y0087926D01*
X0118174Y0081244D01*
X0118702Y0080716D01*
X0125384Y0080716D01*
X0125911Y0081244D01*
X0125792Y0081124D02*
X0174947Y0081124D01*
X0174950Y0081115D02*
X0175121Y0080818D01*
X0175363Y0080576D01*
X0175659Y0080405D01*
X0175990Y0080316D01*
X0178830Y0080316D01*
X0178830Y0084285D01*
X0174861Y0084285D01*
X0174861Y0081445D01*
X0174950Y0081115D01*
X0174861Y0081723D02*
X0125911Y0081723D01*
X0125911Y0082321D02*
X0174861Y0082321D01*
X0174861Y0082920D02*
X0125911Y0082920D01*
X0125911Y0083518D02*
X0174861Y0083518D01*
X0174861Y0084117D02*
X0125911Y0084117D01*
X0125911Y0084715D02*
X0178830Y0084715D01*
X0178830Y0084117D02*
X0179430Y0084117D01*
X0179430Y0084715D02*
X0184084Y0084715D01*
X0184270Y0084117D02*
X0183398Y0084117D01*
X0183398Y0083518D02*
X0183781Y0083518D01*
X0183781Y0082920D02*
X0183398Y0082920D01*
X0183398Y0082321D02*
X0184176Y0082321D01*
X0183781Y0085314D02*
X0183398Y0085314D01*
X0183398Y0085912D02*
X0183781Y0085912D01*
X0183781Y0086511D02*
X0183398Y0086511D01*
X0183398Y0087109D02*
X0183781Y0087109D01*
X0184024Y0087708D02*
X0183398Y0087708D01*
X0183165Y0088306D02*
X0185390Y0088306D01*
X0188208Y0088306D02*
X0191281Y0088306D01*
X0191281Y0088905D02*
X0096475Y0088905D01*
X0096774Y0088605D02*
X0095677Y0089702D01*
X0094244Y0090296D01*
X0086692Y0090296D01*
X0085259Y0089702D01*
X0084162Y0088605D01*
X0083568Y0087172D01*
X0083568Y0085620D01*
X0084162Y0084187D01*
X0085259Y0083090D01*
X0086692Y0082496D01*
X0094244Y0082496D01*
X0095677Y0083090D01*
X0096774Y0084187D01*
X0097368Y0085620D01*
X0097368Y0087172D01*
X0096774Y0088605D01*
X0096898Y0088306D02*
X0118554Y0088306D01*
X0118174Y0087708D02*
X0097146Y0087708D01*
X0097368Y0087109D02*
X0118174Y0087109D01*
X0118174Y0086511D02*
X0097368Y0086511D01*
X0097368Y0085912D02*
X0118174Y0085912D01*
X0118174Y0085314D02*
X0097241Y0085314D01*
X0096993Y0084715D02*
X0118174Y0084715D01*
X0118174Y0084117D02*
X0096704Y0084117D01*
X0096106Y0083518D02*
X0118174Y0083518D01*
X0118174Y0082920D02*
X0095267Y0082920D01*
X0095876Y0089503D02*
X0191281Y0089503D01*
X0191281Y0090102D02*
X0094713Y0090102D01*
X0094244Y0092496D02*
X0095677Y0093090D01*
X0096774Y0094187D01*
X0097368Y0095620D01*
X0097368Y0097172D01*
X0096774Y0098605D01*
X0095677Y0099702D01*
X0094244Y0100296D01*
X0086692Y0100296D01*
X0085259Y0099702D01*
X0084162Y0098605D01*
X0083568Y0097172D01*
X0083568Y0095620D01*
X0084162Y0094187D01*
X0085259Y0093090D01*
X0086692Y0092496D01*
X0094244Y0092496D01*
X0095682Y0093094D02*
X0117774Y0093094D01*
X0117774Y0092496D02*
X0022995Y0092496D01*
X0022995Y0093094D02*
X0027144Y0093094D01*
X0027149Y0093090D02*
X0028582Y0092496D01*
X0036134Y0092496D01*
X0037567Y0093090D01*
X0038664Y0094187D01*
X0039258Y0095620D01*
X0039258Y0097172D01*
X0038664Y0098605D01*
X0037567Y0099702D01*
X0036134Y0100296D01*
X0028582Y0100296D01*
X0027149Y0099702D01*
X0026052Y0098605D01*
X0025458Y0097172D01*
X0025458Y0095620D01*
X0026052Y0094187D01*
X0027149Y0093090D01*
X0026546Y0093693D02*
X0022995Y0093693D01*
X0022995Y0094291D02*
X0026008Y0094291D01*
X0025760Y0094890D02*
X0022995Y0094890D01*
X0022995Y0095488D02*
X0025513Y0095488D01*
X0025458Y0096087D02*
X0022995Y0096087D01*
X0022995Y0096685D02*
X0025458Y0096685D01*
X0025504Y0097284D02*
X0022995Y0097284D01*
X0022995Y0097882D02*
X0025752Y0097882D01*
X0026000Y0098481D02*
X0022995Y0098481D01*
X0022995Y0099079D02*
X0026526Y0099079D01*
X0027124Y0099678D02*
X0022995Y0099678D01*
X0022995Y0100276D02*
X0028535Y0100276D01*
X0028582Y0102496D02*
X0027149Y0103090D01*
X0026052Y0104187D01*
X0025458Y0105620D01*
X0025458Y0107172D01*
X0026052Y0108605D01*
X0027149Y0109702D01*
X0028582Y0110296D01*
X0036134Y0110296D01*
X0037567Y0109702D01*
X0038664Y0108605D01*
X0039258Y0107172D01*
X0039258Y0105620D01*
X0038664Y0104187D01*
X0037567Y0103090D01*
X0036134Y0102496D01*
X0028582Y0102496D01*
X0028161Y0102671D02*
X0023684Y0102671D01*
X0023684Y0102217D02*
X0022995Y0101529D01*
X0022995Y0083099D01*
X0023551Y0082543D01*
X0023551Y0080564D01*
X0022151Y0079165D01*
X0020172Y0079165D01*
X0018773Y0080564D01*
X0018773Y0082543D01*
X0019595Y0083365D01*
X0019595Y0101529D01*
X0018906Y0102217D01*
X0018906Y0104197D01*
X0020305Y0105596D01*
X0022284Y0105596D01*
X0023684Y0104197D01*
X0023684Y0102217D01*
X0023538Y0102072D02*
X0118174Y0102072D01*
X0118174Y0102671D02*
X0094665Y0102671D01*
X0094244Y0102496D02*
X0095677Y0103090D01*
X0096774Y0104187D01*
X0097368Y0105620D01*
X0097368Y0107172D01*
X0096774Y0108605D01*
X0095677Y0109702D01*
X0094244Y0110296D01*
X0086692Y0110296D01*
X0085259Y0109702D01*
X0084162Y0108605D01*
X0083568Y0107172D01*
X0083568Y0105620D01*
X0084162Y0104187D01*
X0085259Y0103090D01*
X0086692Y0102496D01*
X0094244Y0102496D01*
X0095857Y0103269D02*
X0118174Y0103269D01*
X0118174Y0103868D02*
X0096455Y0103868D01*
X0096890Y0104466D02*
X0118174Y0104466D01*
X0118174Y0105065D02*
X0097138Y0105065D01*
X0097368Y0105663D02*
X0118174Y0105663D01*
X0118174Y0106262D02*
X0097368Y0106262D01*
X0097368Y0106860D02*
X0118174Y0106860D01*
X0118174Y0107459D02*
X0097249Y0107459D01*
X0097001Y0108057D02*
X0118620Y0108057D01*
X0118702Y0108139D02*
X0118174Y0107611D01*
X0118174Y0100929D01*
X0118702Y0100402D01*
X0125384Y0100402D01*
X0125911Y0100929D01*
X0125911Y0107611D01*
X0125384Y0108139D01*
X0118702Y0108139D01*
X0125466Y0108057D02*
X0175707Y0108057D01*
X0175788Y0108139D02*
X0175261Y0107611D01*
X0175261Y0100929D01*
X0175788Y0100402D01*
X0182471Y0100402D01*
X0182998Y0100929D01*
X0182998Y0107611D01*
X0182471Y0108139D01*
X0175788Y0108139D01*
X0175261Y0107459D02*
X0125911Y0107459D01*
X0125911Y0106860D02*
X0175261Y0106860D01*
X0175261Y0106262D02*
X0125911Y0106262D01*
X0125911Y0105663D02*
X0175261Y0105663D01*
X0175261Y0105065D02*
X0125911Y0105065D01*
X0125911Y0104466D02*
X0175261Y0104466D01*
X0175261Y0103868D02*
X0125911Y0103868D01*
X0125911Y0103269D02*
X0175261Y0103269D01*
X0175261Y0102671D02*
X0125911Y0102671D01*
X0125911Y0102072D02*
X0175261Y0102072D01*
X0175261Y0101473D02*
X0125911Y0101473D01*
X0125858Y0100875D02*
X0175315Y0100875D01*
X0182944Y0100875D02*
X0183781Y0100875D01*
X0183781Y0101473D02*
X0182998Y0101473D01*
X0182998Y0102072D02*
X0183810Y0102072D01*
X0183781Y0102043D02*
X0183781Y0098830D01*
X0184860Y0097751D01*
X0184425Y0097316D01*
X0183781Y0096672D01*
X0183781Y0094226D01*
X0184425Y0093582D01*
X0185192Y0092814D01*
X0189173Y0092814D01*
X0189817Y0093459D01*
X0189940Y0093582D01*
X0189940Y0093582D01*
X0190574Y0094216D01*
X0190585Y0094226D01*
X0190585Y0096672D01*
X0189940Y0097316D01*
X0189173Y0098084D01*
X0188262Y0098084D01*
X0187617Y0097439D01*
X0187617Y0096528D01*
X0188385Y0095761D01*
X0188385Y0095137D01*
X0188262Y0095014D01*
X0186104Y0095014D01*
X0185981Y0095137D01*
X0185981Y0095761D01*
X0186748Y0096528D01*
X0186748Y0097439D01*
X0186436Y0097751D01*
X0186748Y0098063D01*
X0186871Y0098186D01*
X0187183Y0098497D01*
X0187494Y0098186D01*
X0188406Y0098186D01*
X0189050Y0098830D01*
X0189050Y0101276D01*
X0188283Y0102043D01*
X0187971Y0102355D01*
X0188283Y0102667D01*
X0188406Y0102790D01*
X0189040Y0103424D01*
X0189050Y0103434D01*
X0189050Y0106626D01*
X0189940Y0106626D01*
X0190585Y0107271D01*
X0190585Y0108182D01*
X0189940Y0108826D01*
X0189050Y0108826D01*
X0189050Y0110484D01*
X0188304Y0111230D01*
X0188406Y0111230D01*
X0189050Y0111874D01*
X0189050Y0111997D01*
X0190708Y0111997D01*
X0191352Y0112642D01*
X0191352Y0113553D01*
X0190708Y0114197D01*
X0189029Y0114197D01*
X0188717Y0113886D01*
X0188406Y0114197D01*
X0185981Y0114197D01*
X0185981Y0114299D01*
X0188406Y0114299D01*
X0189050Y0114944D01*
X0189050Y0118157D01*
X0188283Y0118924D01*
X0187638Y0119569D01*
X0184425Y0119569D01*
X0183781Y0118924D01*
X0183781Y0118013D01*
X0184425Y0117369D01*
X0186727Y0117369D01*
X0186850Y0117246D01*
X0186850Y0116499D01*
X0184425Y0116499D01*
X0183781Y0115855D01*
X0183781Y0114944D01*
X0184092Y0114632D01*
X0183781Y0114320D01*
X0183781Y0111874D01*
X0184092Y0111563D01*
X0183781Y0111251D01*
X0183781Y0110340D01*
X0184425Y0109695D01*
X0186727Y0109695D01*
X0186850Y0109572D01*
X0186850Y0108949D01*
X0186727Y0108826D01*
X0184425Y0108826D01*
X0183781Y0108182D01*
X0183781Y0107271D01*
X0184092Y0106959D01*
X0183781Y0106647D01*
X0183781Y0103434D01*
X0184425Y0102790D01*
X0184527Y0102688D01*
X0184425Y0102688D01*
X0183781Y0102043D01*
X0184408Y0102671D02*
X0182998Y0102671D01*
X0182998Y0103269D02*
X0183946Y0103269D01*
X0183781Y0103868D02*
X0182998Y0103868D01*
X0182998Y0104466D02*
X0183781Y0104466D01*
X0183781Y0105065D02*
X0182998Y0105065D01*
X0182998Y0105663D02*
X0183781Y0105663D01*
X0183781Y0106262D02*
X0182998Y0106262D01*
X0182998Y0106860D02*
X0183994Y0106860D01*
X0183781Y0107459D02*
X0182998Y0107459D01*
X0182552Y0108057D02*
X0183781Y0108057D01*
X0184255Y0108656D02*
X0096724Y0108656D01*
X0096125Y0109254D02*
X0186850Y0109254D01*
X0189050Y0109254D02*
X0196813Y0109254D01*
X0196813Y0108656D02*
X0190111Y0108656D01*
X0190585Y0108057D02*
X0196813Y0108057D01*
X0196813Y0107459D02*
X0190585Y0107459D01*
X0190174Y0106860D02*
X0196813Y0106860D01*
X0196813Y0106262D02*
X0189050Y0106262D01*
X0189050Y0105663D02*
X0196813Y0105663D01*
X0196813Y0105065D02*
X0189050Y0105065D01*
X0189050Y0104466D02*
X0196813Y0104466D01*
X0196813Y0103868D02*
X0189050Y0103868D01*
X0188885Y0103269D02*
X0196813Y0103269D01*
X0196813Y0102671D02*
X0188287Y0102671D01*
X0188406Y0102790D02*
X0188406Y0102790D01*
X0188254Y0102072D02*
X0196813Y0102072D01*
X0196813Y0101473D02*
X0188852Y0101473D01*
X0189050Y0100875D02*
X0196813Y0100875D01*
X0196813Y0100276D02*
X0189050Y0100276D01*
X0189050Y0099678D02*
X0196813Y0099678D01*
X0192154Y0099079D02*
X0189050Y0099079D01*
X0188701Y0098481D02*
X0191555Y0098481D01*
X0191925Y0098851D02*
X0191925Y0098851D01*
X0191281Y0097882D02*
X0189374Y0097882D01*
X0189973Y0097284D02*
X0191281Y0097284D01*
X0191281Y0096685D02*
X0190571Y0096685D01*
X0190585Y0096087D02*
X0191281Y0096087D01*
X0191553Y0095488D02*
X0190585Y0095488D01*
X0190585Y0094890D02*
X0191801Y0094890D01*
X0191281Y0094291D02*
X0190585Y0094291D01*
X0190051Y0093693D02*
X0191281Y0093693D01*
X0191281Y0093094D02*
X0189453Y0093094D01*
X0189817Y0093459D02*
X0189817Y0093459D01*
X0191476Y0092496D02*
X0126311Y0092496D01*
X0126311Y0093094D02*
X0184912Y0093094D01*
X0184314Y0093693D02*
X0126311Y0093693D01*
X0126311Y0094128D02*
X0126311Y0091288D01*
X0126223Y0090957D01*
X0126052Y0090661D01*
X0125810Y0090419D01*
X0125513Y0090248D01*
X0125183Y0090159D01*
X0122343Y0090159D01*
X0122343Y0094127D01*
X0121743Y0094127D01*
X0121743Y0090159D01*
X0118903Y0090159D01*
X0118573Y0090248D01*
X0118276Y0090419D01*
X0118034Y0090661D01*
X0117863Y0090957D01*
X0117774Y0091288D01*
X0117774Y0094128D01*
X0121743Y0094128D01*
X0121743Y0094727D01*
X0117774Y0094727D01*
X0117774Y0097567D01*
X0117863Y0097898D01*
X0118034Y0098194D01*
X0118276Y0098436D01*
X0118573Y0098607D01*
X0118903Y0098696D01*
X0121743Y0098696D01*
X0121743Y0094728D01*
X0122343Y0094728D01*
X0122343Y0098696D01*
X0125183Y0098696D01*
X0125513Y0098607D01*
X0125810Y0098436D01*
X0126052Y0098194D01*
X0126223Y0097898D01*
X0126311Y0097567D01*
X0126311Y0094727D01*
X0122343Y0094727D01*
X0122343Y0094128D01*
X0126311Y0094128D01*
X0126311Y0094890D02*
X0183781Y0094890D01*
X0183781Y0095488D02*
X0126311Y0095488D01*
X0126311Y0096087D02*
X0183781Y0096087D01*
X0183794Y0096685D02*
X0126311Y0096685D01*
X0126311Y0097284D02*
X0184393Y0097284D01*
X0184425Y0097316D02*
X0184425Y0097316D01*
X0184728Y0097882D02*
X0126227Y0097882D01*
X0125732Y0098481D02*
X0184130Y0098481D01*
X0183781Y0099079D02*
X0096300Y0099079D01*
X0096826Y0098481D02*
X0118354Y0098481D01*
X0117859Y0097882D02*
X0097074Y0097882D01*
X0097322Y0097284D02*
X0117774Y0097284D01*
X0117774Y0096685D02*
X0097368Y0096685D01*
X0097368Y0096087D02*
X0117774Y0096087D01*
X0117774Y0095488D02*
X0097314Y0095488D01*
X0097066Y0094890D02*
X0117774Y0094890D01*
X0117774Y0093693D02*
X0096280Y0093693D01*
X0096818Y0094291D02*
X0121743Y0094291D01*
X0121743Y0093693D02*
X0122343Y0093693D01*
X0122343Y0094291D02*
X0183781Y0094291D01*
X0185981Y0095488D02*
X0188385Y0095488D01*
X0188058Y0096087D02*
X0186307Y0096087D01*
X0186748Y0096685D02*
X0187617Y0096685D01*
X0187617Y0097284D02*
X0186748Y0097284D01*
X0186568Y0097882D02*
X0188060Y0097882D01*
X0187199Y0098481D02*
X0187166Y0098481D01*
X0186871Y0098186D02*
X0186871Y0098186D01*
X0183781Y0099678D02*
X0095702Y0099678D01*
X0094291Y0100276D02*
X0183781Y0100276D01*
X0184268Y0109853D02*
X0095314Y0109853D01*
X0094244Y0112496D02*
X0095677Y0113090D01*
X0096774Y0114187D01*
X0097368Y0115620D01*
X0097368Y0117172D01*
X0096774Y0118605D01*
X0095677Y0119702D01*
X0094244Y0120296D01*
X0086692Y0120296D01*
X0085259Y0119702D01*
X0084162Y0118605D01*
X0083568Y0117172D01*
X0083568Y0115620D01*
X0084162Y0114187D01*
X0085259Y0113090D01*
X0086692Y0112496D01*
X0094244Y0112496D01*
X0095087Y0112845D02*
X0144340Y0112845D01*
X0144340Y0112247D02*
X0006013Y0112247D01*
X0006013Y0112845D02*
X0027739Y0112845D01*
X0027149Y0113090D02*
X0028582Y0112496D01*
X0036134Y0112496D01*
X0037567Y0113090D01*
X0038664Y0114187D01*
X0039258Y0115620D01*
X0039258Y0117172D01*
X0038664Y0118605D01*
X0037567Y0119702D01*
X0036134Y0120296D01*
X0028582Y0120296D01*
X0027149Y0119702D01*
X0026052Y0118605D01*
X0025458Y0117172D01*
X0025458Y0115620D01*
X0026052Y0114187D01*
X0027149Y0113090D01*
X0026795Y0113444D02*
X0006013Y0113444D01*
X0006013Y0114042D02*
X0026196Y0114042D01*
X0025864Y0114641D02*
X0006013Y0114641D01*
X0006013Y0115239D02*
X0025616Y0115239D01*
X0025458Y0115838D02*
X0006013Y0115838D01*
X0006013Y0116436D02*
X0025458Y0116436D01*
X0025458Y0117035D02*
X0006013Y0117035D01*
X0006013Y0117633D02*
X0025649Y0117633D01*
X0025897Y0118232D02*
X0006013Y0118232D01*
X0006013Y0118830D02*
X0026277Y0118830D01*
X0026875Y0119429D02*
X0006013Y0119429D01*
X0006013Y0120027D02*
X0027934Y0120027D01*
X0028582Y0122496D02*
X0036134Y0122496D01*
X0037567Y0123090D01*
X0038664Y0124187D01*
X0039258Y0125620D01*
X0039258Y0127172D01*
X0038664Y0128605D01*
X0037567Y0129702D01*
X0036134Y0130296D01*
X0028582Y0130296D01*
X0027149Y0129702D01*
X0026052Y0128605D01*
X0025458Y0127172D01*
X0025458Y0125620D01*
X0026052Y0124187D01*
X0027149Y0123090D01*
X0028582Y0122496D01*
X0027317Y0123020D02*
X0006013Y0123020D01*
X0006013Y0123618D02*
X0026620Y0123618D01*
X0026039Y0124217D02*
X0006013Y0124217D01*
X0006013Y0124815D02*
X0025791Y0124815D01*
X0025543Y0125414D02*
X0006013Y0125414D01*
X0006013Y0126012D02*
X0025458Y0126012D01*
X0025458Y0126611D02*
X0006013Y0126611D01*
X0006013Y0127209D02*
X0025474Y0127209D01*
X0025721Y0127808D02*
X0006013Y0127808D01*
X0006013Y0128406D02*
X0025969Y0128406D01*
X0026451Y0129005D02*
X0006013Y0129005D01*
X0006013Y0129604D02*
X0027050Y0129604D01*
X0028355Y0130202D02*
X0006013Y0130202D01*
X0006013Y0130801D02*
X0101640Y0130801D01*
X0102125Y0130315D02*
X0105574Y0128324D01*
X0109422Y0127293D01*
X0113405Y0127293D01*
X0117252Y0128324D01*
X0120701Y0130315D01*
X0123517Y0133132D01*
X0125509Y0136581D01*
X0126540Y0140428D01*
X0126540Y0144411D01*
X0125509Y0148258D01*
X0123517Y0151708D01*
X0120701Y0154524D01*
X0117252Y0156516D01*
X0113405Y0157546D01*
X0109422Y0157546D01*
X0105574Y0156516D01*
X0102125Y0154524D01*
X0099309Y0151708D01*
X0097317Y0148258D01*
X0097160Y0147673D01*
X0096774Y0148605D01*
X0095677Y0149702D01*
X0094244Y0150296D01*
X0086692Y0150296D01*
X0085259Y0149702D01*
X0084162Y0148605D01*
X0083568Y0147172D01*
X0083568Y0145620D01*
X0084162Y0144187D01*
X0085259Y0143090D01*
X0086692Y0142496D01*
X0094244Y0142496D01*
X0095677Y0143090D01*
X0096286Y0143699D01*
X0096286Y0140428D01*
X0096775Y0138603D01*
X0096774Y0138605D01*
X0095677Y0139702D01*
X0094244Y0140296D01*
X0086692Y0140296D01*
X0085259Y0139702D01*
X0084162Y0138605D01*
X0083568Y0137172D01*
X0083568Y0135620D01*
X0084162Y0134187D01*
X0085259Y0133090D01*
X0086692Y0132496D01*
X0094244Y0132496D01*
X0095677Y0133090D01*
X0096774Y0134187D01*
X0097368Y0135620D01*
X0097368Y0136493D01*
X0099309Y0133132D01*
X0102125Y0130315D01*
X0102321Y0130202D02*
X0094471Y0130202D01*
X0094244Y0130296D02*
X0086692Y0130296D01*
X0085259Y0129702D01*
X0084162Y0128605D01*
X0083568Y0127172D01*
X0083568Y0125620D01*
X0084162Y0124187D01*
X0085259Y0123090D01*
X0086692Y0122496D01*
X0094244Y0122496D01*
X0095677Y0123090D01*
X0096774Y0124187D01*
X0097368Y0125620D01*
X0097368Y0127172D01*
X0096774Y0128605D01*
X0095677Y0129702D01*
X0094244Y0130296D01*
X0095776Y0129604D02*
X0103358Y0129604D01*
X0104394Y0129005D02*
X0096375Y0129005D01*
X0096857Y0128406D02*
X0105431Y0128406D01*
X0107499Y0127808D02*
X0097105Y0127808D01*
X0097353Y0127209D02*
X0183781Y0127209D01*
X0183781Y0126611D02*
X0097368Y0126611D01*
X0097368Y0126012D02*
X0183781Y0126012D01*
X0183781Y0125414D02*
X0158534Y0125414D01*
X0158274Y0125674D02*
X0144867Y0125674D01*
X0144340Y0125147D01*
X0144340Y0111740D01*
X0144867Y0111213D01*
X0158274Y0111213D01*
X0158801Y0111740D01*
X0158801Y0125147D01*
X0158274Y0125674D01*
X0158801Y0124815D02*
X0183781Y0124815D01*
X0183781Y0124217D02*
X0158801Y0124217D01*
X0158801Y0123618D02*
X0184314Y0123618D01*
X0184425Y0123507D02*
X0185336Y0123507D01*
X0188334Y0126505D01*
X0188385Y0126454D01*
X0188385Y0125830D01*
X0187617Y0125063D01*
X0187617Y0124152D01*
X0188262Y0123507D01*
X0189173Y0123507D01*
X0189940Y0124275D01*
X0190574Y0124909D01*
X0190585Y0124919D01*
X0190585Y0127365D01*
X0189940Y0128009D01*
X0189506Y0128444D01*
X0189817Y0128755D01*
X0189817Y0128755D01*
X0189940Y0128878D01*
X0189940Y0128878D01*
X0190585Y0129523D01*
X0190585Y0131969D01*
X0190557Y0131997D01*
X0191220Y0132102D01*
X0191864Y0132311D01*
X0192467Y0132618D01*
X0193014Y0133016D01*
X0193493Y0133495D01*
X0193891Y0134042D01*
X0194198Y0134645D01*
X0194407Y0135289D01*
X0194513Y0135958D01*
X0194513Y0135996D01*
X0190394Y0135996D01*
X0189940Y0136450D01*
X0187513Y0136450D01*
X0187513Y0136596D01*
X0194513Y0136596D01*
X0194513Y0136634D01*
X0194407Y0137303D01*
X0194198Y0137947D01*
X0193891Y0138550D01*
X0193493Y0139097D01*
X0193014Y0139576D01*
X0192467Y0139974D01*
X0191864Y0140281D01*
X0191220Y0140490D01*
X0190585Y0140591D01*
X0190585Y0141944D01*
X0190133Y0142396D01*
X0190989Y0142396D01*
X0192422Y0142990D01*
X0193519Y0144087D01*
X0194113Y0145520D01*
X0194113Y0147072D01*
X0193519Y0148505D01*
X0192422Y0149602D01*
X0190989Y0150196D01*
X0183437Y0150196D01*
X0182004Y0149602D01*
X0180907Y0148505D01*
X0180313Y0147072D01*
X0180313Y0145520D01*
X0180907Y0144087D01*
X0182004Y0142990D01*
X0183437Y0142396D01*
X0188069Y0142396D01*
X0187617Y0141944D01*
X0186269Y0140596D01*
X0183875Y0140596D01*
X0183206Y0140490D01*
X0182562Y0140281D01*
X0181959Y0139974D01*
X0181412Y0139576D01*
X0180933Y0139097D01*
X0180535Y0138550D01*
X0180228Y0137947D01*
X0180019Y0137303D01*
X0179913Y0136634D01*
X0179913Y0136596D01*
X0183781Y0136596D01*
X0183781Y0135996D01*
X0179913Y0135996D01*
X0179913Y0135958D01*
X0180019Y0135289D01*
X0180228Y0134645D01*
X0180535Y0134042D01*
X0180933Y0133495D01*
X0181412Y0133016D01*
X0181959Y0132618D01*
X0182562Y0132311D01*
X0183206Y0132102D01*
X0183817Y0132005D01*
X0183781Y0131969D01*
X0183781Y0129523D01*
X0184527Y0128776D01*
X0184425Y0128776D01*
X0183781Y0128132D01*
X0183781Y0124152D01*
X0184425Y0123507D01*
X0185448Y0123618D02*
X0188151Y0123618D01*
X0187617Y0124217D02*
X0186046Y0124217D01*
X0186645Y0124815D02*
X0187617Y0124815D01*
X0187968Y0125414D02*
X0187243Y0125414D01*
X0187842Y0126012D02*
X0188385Y0126012D01*
X0190585Y0126012D02*
X0196813Y0126012D01*
X0196813Y0125414D02*
X0190585Y0125414D01*
X0190481Y0124815D02*
X0196813Y0124815D01*
X0196813Y0124217D02*
X0189883Y0124217D01*
X0189940Y0124275D02*
X0189940Y0124275D01*
X0189284Y0123618D02*
X0196813Y0123618D01*
X0196813Y0123020D02*
X0158801Y0123020D01*
X0158801Y0122421D02*
X0196813Y0122421D01*
X0196813Y0121823D02*
X0158801Y0121823D01*
X0158801Y0121224D02*
X0196813Y0121224D01*
X0196813Y0120626D02*
X0158801Y0120626D01*
X0158801Y0120027D02*
X0196813Y0120027D01*
X0196813Y0119429D02*
X0187778Y0119429D01*
X0188377Y0118830D02*
X0196813Y0118830D01*
X0196813Y0118232D02*
X0188975Y0118232D01*
X0189050Y0117633D02*
X0196813Y0117633D01*
X0196813Y0117035D02*
X0189050Y0117035D01*
X0189050Y0116436D02*
X0196813Y0116436D01*
X0196813Y0115838D02*
X0189050Y0115838D01*
X0189050Y0115239D02*
X0196813Y0115239D01*
X0196813Y0114641D02*
X0188747Y0114641D01*
X0188874Y0114042D02*
X0188561Y0114042D01*
X0186850Y0117035D02*
X0158801Y0117035D01*
X0158801Y0117633D02*
X0184160Y0117633D01*
X0183781Y0118232D02*
X0158801Y0118232D01*
X0158801Y0118830D02*
X0183781Y0118830D01*
X0184285Y0119429D02*
X0158801Y0119429D01*
X0158801Y0116436D02*
X0184362Y0116436D01*
X0183781Y0115838D02*
X0158801Y0115838D01*
X0158801Y0115239D02*
X0183781Y0115239D01*
X0184084Y0114641D02*
X0158801Y0114641D01*
X0158801Y0114042D02*
X0183781Y0114042D01*
X0183781Y0113444D02*
X0158801Y0113444D01*
X0158801Y0112845D02*
X0183781Y0112845D01*
X0183781Y0112247D02*
X0158801Y0112247D01*
X0158710Y0111648D02*
X0184007Y0111648D01*
X0183781Y0111050D02*
X0006013Y0111050D01*
X0006013Y0111648D02*
X0144431Y0111648D01*
X0144340Y0113444D02*
X0096031Y0113444D01*
X0096630Y0114042D02*
X0144340Y0114042D01*
X0144340Y0114641D02*
X0096962Y0114641D01*
X0097210Y0115239D02*
X0144340Y0115239D01*
X0144340Y0115838D02*
X0097368Y0115838D01*
X0097368Y0116436D02*
X0144340Y0116436D01*
X0144340Y0117035D02*
X0097368Y0117035D01*
X0097177Y0117633D02*
X0144340Y0117633D01*
X0144340Y0118232D02*
X0096929Y0118232D01*
X0096549Y0118830D02*
X0144340Y0118830D01*
X0144340Y0119429D02*
X0095951Y0119429D01*
X0094893Y0120027D02*
X0144340Y0120027D01*
X0144340Y0120626D02*
X0006013Y0120626D01*
X0006013Y0121224D02*
X0144340Y0121224D01*
X0144340Y0121823D02*
X0006013Y0121823D01*
X0006013Y0122421D02*
X0144340Y0122421D01*
X0144340Y0123020D02*
X0095509Y0123020D01*
X0096206Y0123618D02*
X0144340Y0123618D01*
X0144340Y0124217D02*
X0096787Y0124217D01*
X0097035Y0124815D02*
X0144340Y0124815D01*
X0144607Y0125414D02*
X0097283Y0125414D01*
X0101041Y0131399D02*
X0006013Y0131399D01*
X0006013Y0131998D02*
X0100443Y0131998D01*
X0099844Y0132596D02*
X0094485Y0132596D01*
X0095782Y0133195D02*
X0099272Y0133195D01*
X0098927Y0133793D02*
X0096381Y0133793D01*
X0096859Y0134392D02*
X0098581Y0134392D01*
X0098236Y0134990D02*
X0097107Y0134990D01*
X0097355Y0135589D02*
X0097890Y0135589D01*
X0097544Y0136187D02*
X0097368Y0136187D01*
X0096621Y0139180D02*
X0096200Y0139180D01*
X0096460Y0139778D02*
X0095494Y0139778D01*
X0096300Y0140377D02*
X0006013Y0140377D01*
X0006013Y0140975D02*
X0096286Y0140975D01*
X0096286Y0141574D02*
X0006013Y0141574D01*
X0006013Y0142172D02*
X0096286Y0142172D01*
X0096286Y0142771D02*
X0094907Y0142771D01*
X0095957Y0143369D02*
X0096286Y0143369D01*
X0096960Y0148157D02*
X0097290Y0148157D01*
X0097604Y0148756D02*
X0096624Y0148756D01*
X0096025Y0149354D02*
X0097950Y0149354D01*
X0098295Y0149953D02*
X0095072Y0149953D01*
X0094244Y0152496D02*
X0095677Y0153090D01*
X0096774Y0154187D01*
X0097368Y0155620D01*
X0097368Y0157172D01*
X0096774Y0158605D01*
X0095677Y0159702D01*
X0094244Y0160296D01*
X0086692Y0160296D01*
X0085259Y0159702D01*
X0084162Y0158605D01*
X0083568Y0157172D01*
X0083568Y0155620D01*
X0084162Y0154187D01*
X0085259Y0153090D01*
X0086692Y0152496D01*
X0094244Y0152496D01*
X0095329Y0152945D02*
X0100546Y0152945D01*
X0099948Y0152347D02*
X0005083Y0152347D01*
X0005269Y0152945D02*
X0027497Y0152945D01*
X0027149Y0153090D02*
X0028582Y0152496D01*
X0036134Y0152496D01*
X0037567Y0153090D01*
X0038664Y0154187D01*
X0039258Y0155620D01*
X0039258Y0157172D01*
X0038664Y0158605D01*
X0037567Y0159702D01*
X0036134Y0160296D01*
X0028582Y0160296D01*
X0027149Y0159702D01*
X0026052Y0158605D01*
X0025458Y0157172D01*
X0025458Y0155620D01*
X0026052Y0154187D01*
X0027149Y0153090D01*
X0026695Y0153544D02*
X0005456Y0153544D01*
X0005702Y0154142D02*
X0026096Y0154142D01*
X0025822Y0154741D02*
X0005971Y0154741D01*
X0006241Y0155340D02*
X0025574Y0155340D01*
X0025458Y0155938D02*
X0006510Y0155938D01*
X0006814Y0156537D02*
X0025458Y0156537D01*
X0025458Y0157135D02*
X0007176Y0157135D01*
X0007538Y0157734D02*
X0025691Y0157734D01*
X0025939Y0158332D02*
X0007900Y0158332D01*
X0008294Y0158931D02*
X0026377Y0158931D01*
X0026976Y0159529D02*
X0008762Y0159529D01*
X0009231Y0160128D02*
X0028176Y0160128D01*
X0028989Y0167310D02*
X0018973Y0167310D01*
X0017643Y0166711D02*
X0180496Y0166711D01*
X0181940Y0166113D02*
X0016390Y0166113D01*
X0015400Y0165514D02*
X0183073Y0165514D01*
X0184156Y0164916D02*
X0014410Y0164916D01*
X0013593Y0164317D02*
X0185194Y0164317D01*
X0186037Y0163719D02*
X0012829Y0163719D01*
X0012065Y0163120D02*
X0186881Y0163120D01*
X0187725Y0162522D02*
X0011437Y0162522D01*
X0010839Y0161923D02*
X0188397Y0161923D01*
X0189066Y0161325D02*
X0010240Y0161325D01*
X0009700Y0160726D02*
X0189736Y0160726D01*
X0190366Y0160128D02*
X0094650Y0160128D01*
X0095851Y0159529D02*
X0190900Y0159529D01*
X0191435Y0158931D02*
X0096449Y0158931D01*
X0096888Y0158332D02*
X0191970Y0158332D01*
X0192486Y0157734D02*
X0097135Y0157734D01*
X0097368Y0157135D02*
X0107886Y0157135D01*
X0105653Y0156537D02*
X0097368Y0156537D01*
X0097368Y0155938D02*
X0104574Y0155938D01*
X0103537Y0155340D02*
X0097252Y0155340D01*
X0097004Y0154741D02*
X0102501Y0154741D01*
X0101743Y0154142D02*
X0096730Y0154142D01*
X0096132Y0153544D02*
X0101145Y0153544D01*
X0099349Y0151748D02*
X0004896Y0151748D01*
X0004710Y0151150D02*
X0098987Y0151150D01*
X0098641Y0150551D02*
X0004579Y0150551D01*
X0004469Y0149953D02*
X0027754Y0149953D01*
X0027149Y0149702D02*
X0026052Y0148605D01*
X0025458Y0147172D01*
X0025458Y0145620D01*
X0026052Y0144187D01*
X0027149Y0143090D01*
X0028582Y0142496D01*
X0036134Y0142496D01*
X0037567Y0143090D01*
X0038664Y0144187D01*
X0039258Y0145620D01*
X0039258Y0147172D01*
X0038664Y0148605D01*
X0037567Y0149702D01*
X0036134Y0150296D01*
X0028582Y0150296D01*
X0027149Y0149702D01*
X0026801Y0149354D02*
X0004359Y0149354D01*
X0004250Y0148756D02*
X0026202Y0148756D01*
X0025866Y0148157D02*
X0004143Y0148157D01*
X0004107Y0147559D02*
X0025618Y0147559D01*
X0025458Y0146960D02*
X0004071Y0146960D01*
X0004034Y0146362D02*
X0025458Y0146362D01*
X0025458Y0145763D02*
X0003998Y0145763D01*
X0004150Y0145165D02*
X0025647Y0145165D01*
X0025894Y0144566D02*
X0004748Y0144566D01*
X0005327Y0143968D02*
X0026271Y0143968D01*
X0026869Y0143369D02*
X0005575Y0143369D01*
X0005823Y0142771D02*
X0027919Y0142771D01*
X0028582Y0140296D02*
X0027149Y0139702D01*
X0026052Y0138605D01*
X0025458Y0137172D01*
X0025458Y0135620D01*
X0026052Y0134187D01*
X0027149Y0133090D01*
X0028582Y0132496D01*
X0036134Y0132496D01*
X0037567Y0133090D01*
X0038664Y0134187D01*
X0039258Y0135620D01*
X0039258Y0137172D01*
X0038664Y0138605D01*
X0037567Y0139702D01*
X0036134Y0140296D01*
X0028582Y0140296D01*
X0027332Y0139778D02*
X0006013Y0139778D01*
X0006013Y0139180D02*
X0026626Y0139180D01*
X0026042Y0138581D02*
X0006013Y0138581D01*
X0006013Y0137983D02*
X0025794Y0137983D01*
X0025546Y0137384D02*
X0006013Y0137384D01*
X0006013Y0136786D02*
X0025458Y0136786D01*
X0025458Y0136187D02*
X0006013Y0136187D01*
X0006013Y0135589D02*
X0025471Y0135589D01*
X0025719Y0134990D02*
X0006013Y0134990D01*
X0006013Y0134392D02*
X0025967Y0134392D01*
X0026445Y0133793D02*
X0006013Y0133793D01*
X0006013Y0133195D02*
X0027044Y0133195D01*
X0028341Y0132596D02*
X0006013Y0132596D01*
X0006013Y0110451D02*
X0183781Y0110451D01*
X0188484Y0111050D02*
X0196813Y0111050D01*
X0196813Y0111648D02*
X0188824Y0111648D01*
X0189050Y0110451D02*
X0196813Y0110451D01*
X0196813Y0109853D02*
X0189050Y0109853D01*
X0190957Y0112247D02*
X0196813Y0112247D01*
X0196813Y0112845D02*
X0191352Y0112845D01*
X0191352Y0113444D02*
X0196813Y0113444D01*
X0196813Y0114042D02*
X0190863Y0114042D01*
X0190585Y0126611D02*
X0196813Y0126611D01*
X0196813Y0127209D02*
X0190585Y0127209D01*
X0190141Y0127808D02*
X0196813Y0127808D01*
X0196813Y0128406D02*
X0189543Y0128406D01*
X0190067Y0129005D02*
X0196813Y0129005D01*
X0196813Y0129604D02*
X0190585Y0129604D01*
X0190585Y0130202D02*
X0196813Y0130202D01*
X0196813Y0130801D02*
X0190585Y0130801D01*
X0190585Y0131399D02*
X0196813Y0131399D01*
X0196813Y0131998D02*
X0190561Y0131998D01*
X0192423Y0132596D02*
X0196813Y0132596D01*
X0196813Y0133195D02*
X0193193Y0133195D01*
X0193710Y0133793D02*
X0196813Y0133793D01*
X0196813Y0134392D02*
X0194069Y0134392D01*
X0194310Y0134990D02*
X0196813Y0134990D01*
X0196813Y0135589D02*
X0194455Y0135589D01*
X0194489Y0136786D02*
X0196813Y0136786D01*
X0196813Y0137384D02*
X0194381Y0137384D01*
X0194180Y0137983D02*
X0197059Y0137983D01*
X0197307Y0138581D02*
X0193868Y0138581D01*
X0193410Y0139180D02*
X0197613Y0139180D01*
X0198211Y0139778D02*
X0192736Y0139778D01*
X0191569Y0140377D02*
X0198801Y0140377D01*
X0198767Y0140975D02*
X0190585Y0140975D01*
X0190585Y0141574D02*
X0198733Y0141574D01*
X0198700Y0142172D02*
X0190356Y0142172D01*
X0191894Y0142771D02*
X0198662Y0142771D01*
X0198560Y0143369D02*
X0192802Y0143369D01*
X0193400Y0143968D02*
X0198459Y0143968D01*
X0198357Y0144566D02*
X0193718Y0144566D01*
X0193966Y0145165D02*
X0198255Y0145165D01*
X0198154Y0145763D02*
X0194113Y0145763D01*
X0194113Y0146362D02*
X0198009Y0146362D01*
X0197836Y0146960D02*
X0194113Y0146960D01*
X0193911Y0147559D02*
X0197664Y0147559D01*
X0197492Y0148157D02*
X0193663Y0148157D01*
X0193269Y0148756D02*
X0197319Y0148756D01*
X0197125Y0149354D02*
X0192670Y0149354D01*
X0191576Y0149953D02*
X0196877Y0149953D01*
X0196629Y0150551D02*
X0164713Y0150551D01*
X0164713Y0149953D02*
X0182850Y0149953D01*
X0181756Y0149354D02*
X0164713Y0149354D01*
X0164713Y0148756D02*
X0181157Y0148756D01*
X0180763Y0148157D02*
X0164713Y0148157D01*
X0164713Y0148100D02*
X0164180Y0146813D01*
X0163196Y0145829D01*
X0161909Y0145296D01*
X0160517Y0145296D01*
X0159230Y0145829D01*
X0158246Y0146813D01*
X0157713Y0148100D01*
X0157713Y0154692D01*
X0158246Y0155979D01*
X0159230Y0156963D01*
X0160517Y0157496D01*
X0161909Y0157496D01*
X0163196Y0156963D01*
X0164180Y0155979D01*
X0164713Y0154692D01*
X0164713Y0148100D01*
X0164489Y0147559D02*
X0180515Y0147559D01*
X0180313Y0146960D02*
X0164241Y0146960D01*
X0163729Y0146362D02*
X0180313Y0146362D01*
X0180313Y0145763D02*
X0163037Y0145763D01*
X0159389Y0145763D02*
X0153037Y0145763D01*
X0153196Y0145829D02*
X0154180Y0146813D01*
X0154713Y0148100D01*
X0154713Y0154692D01*
X0154180Y0155979D01*
X0153196Y0156963D01*
X0151909Y0157496D01*
X0150517Y0157496D01*
X0149230Y0156963D01*
X0148246Y0155979D01*
X0147713Y0154692D01*
X0147713Y0148100D01*
X0148246Y0146813D01*
X0149230Y0145829D01*
X0150517Y0145296D01*
X0151909Y0145296D01*
X0153196Y0145829D01*
X0153729Y0146362D02*
X0158697Y0146362D01*
X0158185Y0146960D02*
X0154241Y0146960D01*
X0154489Y0147559D02*
X0157937Y0147559D01*
X0157713Y0148157D02*
X0154713Y0148157D01*
X0154713Y0148756D02*
X0157713Y0148756D01*
X0157713Y0149354D02*
X0154713Y0149354D01*
X0154713Y0149953D02*
X0157713Y0149953D01*
X0157713Y0150551D02*
X0154713Y0150551D01*
X0154713Y0151150D02*
X0157713Y0151150D01*
X0157713Y0151748D02*
X0154713Y0151748D01*
X0154713Y0152347D02*
X0157713Y0152347D01*
X0157713Y0152945D02*
X0154713Y0152945D01*
X0154713Y0153544D02*
X0157713Y0153544D01*
X0157713Y0154142D02*
X0154713Y0154142D01*
X0154693Y0154741D02*
X0157733Y0154741D01*
X0157981Y0155340D02*
X0154445Y0155340D01*
X0154197Y0155938D02*
X0158229Y0155938D01*
X0158804Y0156537D02*
X0153622Y0156537D01*
X0152781Y0157135D02*
X0159645Y0157135D01*
X0162781Y0157135D02*
X0192911Y0157135D01*
X0193335Y0156537D02*
X0163622Y0156537D01*
X0164197Y0155938D02*
X0193760Y0155938D01*
X0194185Y0155340D02*
X0164445Y0155340D01*
X0164693Y0154741D02*
X0194547Y0154741D01*
X0194878Y0154142D02*
X0164713Y0154142D01*
X0164713Y0153544D02*
X0195209Y0153544D01*
X0195539Y0152945D02*
X0164713Y0152945D01*
X0164713Y0152347D02*
X0195870Y0152347D01*
X0196133Y0151748D02*
X0164713Y0151748D01*
X0164713Y0151150D02*
X0196381Y0151150D01*
X0187846Y0142172D02*
X0126540Y0142172D01*
X0126540Y0141574D02*
X0187247Y0141574D01*
X0187617Y0141944D02*
X0187617Y0141944D01*
X0186649Y0140975D02*
X0126540Y0140975D01*
X0126526Y0140377D02*
X0182857Y0140377D01*
X0181690Y0139778D02*
X0126366Y0139778D01*
X0126205Y0139180D02*
X0181016Y0139180D01*
X0180558Y0138581D02*
X0126045Y0138581D01*
X0125885Y0137983D02*
X0180246Y0137983D01*
X0180045Y0137384D02*
X0125724Y0137384D01*
X0125564Y0136786D02*
X0179937Y0136786D01*
X0179971Y0135589D02*
X0124936Y0135589D01*
X0125282Y0136187D02*
X0183781Y0136187D01*
X0180716Y0133793D02*
X0123899Y0133793D01*
X0123554Y0133195D02*
X0181233Y0133195D01*
X0182003Y0132596D02*
X0122982Y0132596D01*
X0122383Y0131998D02*
X0183810Y0131998D01*
X0183781Y0131399D02*
X0121785Y0131399D01*
X0121186Y0130801D02*
X0183781Y0130801D01*
X0183781Y0130202D02*
X0120505Y0130202D01*
X0119468Y0129604D02*
X0183781Y0129604D01*
X0184299Y0129005D02*
X0118432Y0129005D01*
X0117395Y0128406D02*
X0184055Y0128406D01*
X0183781Y0127808D02*
X0115327Y0127808D01*
X0124245Y0134392D02*
X0180357Y0134392D01*
X0180116Y0134990D02*
X0124590Y0134990D01*
X0126540Y0142771D02*
X0182533Y0142771D01*
X0181624Y0143369D02*
X0126540Y0143369D01*
X0126540Y0143968D02*
X0181026Y0143968D01*
X0180708Y0144566D02*
X0126498Y0144566D01*
X0126338Y0145165D02*
X0180460Y0145165D01*
X0190203Y0136187D02*
X0196813Y0136187D01*
X0179038Y0167310D02*
X0168719Y0167310D01*
X0169470Y0167908D02*
X0176961Y0167908D01*
X0174178Y0168507D02*
X0170069Y0168507D01*
X0149645Y0157135D02*
X0142781Y0157135D01*
X0143196Y0156963D02*
X0141909Y0157496D01*
X0140517Y0157496D01*
X0139230Y0156963D01*
X0138246Y0155979D01*
X0137713Y0154692D01*
X0137713Y0148100D01*
X0138246Y0146813D01*
X0139230Y0145829D01*
X0140517Y0145296D01*
X0141909Y0145296D01*
X0143196Y0145829D01*
X0144180Y0146813D01*
X0144713Y0148100D01*
X0144713Y0154692D01*
X0144180Y0155979D01*
X0143196Y0156963D01*
X0143622Y0156537D02*
X0148804Y0156537D01*
X0148229Y0155938D02*
X0144197Y0155938D01*
X0144445Y0155340D02*
X0147981Y0155340D01*
X0147733Y0154741D02*
X0144693Y0154741D01*
X0144713Y0154142D02*
X0147713Y0154142D01*
X0147713Y0153544D02*
X0144713Y0153544D01*
X0144713Y0152945D02*
X0147713Y0152945D01*
X0147713Y0152347D02*
X0144713Y0152347D01*
X0144713Y0151748D02*
X0147713Y0151748D01*
X0147713Y0151150D02*
X0144713Y0151150D01*
X0144713Y0150551D02*
X0147713Y0150551D01*
X0147713Y0149953D02*
X0144713Y0149953D01*
X0144713Y0149354D02*
X0147713Y0149354D01*
X0147713Y0148756D02*
X0144713Y0148756D01*
X0144713Y0148157D02*
X0147713Y0148157D01*
X0147937Y0147559D02*
X0144489Y0147559D01*
X0144241Y0146960D02*
X0148185Y0146960D01*
X0148697Y0146362D02*
X0143729Y0146362D01*
X0143037Y0145763D02*
X0149389Y0145763D01*
X0139389Y0145763D02*
X0126177Y0145763D01*
X0126017Y0146362D02*
X0138697Y0146362D01*
X0138185Y0146960D02*
X0125857Y0146960D01*
X0125696Y0147559D02*
X0137937Y0147559D01*
X0137713Y0148157D02*
X0125536Y0148157D01*
X0125222Y0148756D02*
X0137713Y0148756D01*
X0137713Y0149354D02*
X0124876Y0149354D01*
X0124531Y0149953D02*
X0137713Y0149953D01*
X0137713Y0150551D02*
X0124185Y0150551D01*
X0123839Y0151150D02*
X0137713Y0151150D01*
X0137713Y0151748D02*
X0123477Y0151748D01*
X0122878Y0152347D02*
X0137713Y0152347D01*
X0137713Y0152945D02*
X0122280Y0152945D01*
X0121681Y0153544D02*
X0137713Y0153544D01*
X0137713Y0154142D02*
X0121083Y0154142D01*
X0120325Y0154741D02*
X0137733Y0154741D01*
X0137981Y0155340D02*
X0119289Y0155340D01*
X0118252Y0155938D02*
X0138229Y0155938D01*
X0138804Y0156537D02*
X0117173Y0156537D01*
X0114940Y0157135D02*
X0139645Y0157135D01*
X0086286Y0160128D02*
X0036540Y0160128D01*
X0037740Y0159529D02*
X0085086Y0159529D01*
X0084487Y0158931D02*
X0038339Y0158931D01*
X0038777Y0158332D02*
X0084049Y0158332D01*
X0083801Y0157734D02*
X0039025Y0157734D01*
X0039258Y0157135D02*
X0083568Y0157135D01*
X0083568Y0156537D02*
X0039258Y0156537D01*
X0039258Y0155938D02*
X0083568Y0155938D01*
X0083684Y0155340D02*
X0039142Y0155340D01*
X0038894Y0154741D02*
X0083932Y0154741D01*
X0084206Y0154142D02*
X0038620Y0154142D01*
X0038021Y0153544D02*
X0084805Y0153544D01*
X0085607Y0152945D02*
X0037219Y0152945D01*
X0036962Y0149953D02*
X0085864Y0149953D01*
X0084911Y0149354D02*
X0037915Y0149354D01*
X0038513Y0148756D02*
X0084313Y0148756D01*
X0083976Y0148157D02*
X0038850Y0148157D01*
X0039098Y0147559D02*
X0083729Y0147559D01*
X0083568Y0146960D02*
X0039258Y0146960D01*
X0039258Y0146362D02*
X0083568Y0146362D01*
X0083568Y0145763D02*
X0039258Y0145763D01*
X0039069Y0145165D02*
X0083757Y0145165D01*
X0084005Y0144566D02*
X0038821Y0144566D01*
X0038445Y0143968D02*
X0084381Y0143968D01*
X0084979Y0143369D02*
X0037847Y0143369D01*
X0036797Y0142771D02*
X0086029Y0142771D01*
X0085442Y0139778D02*
X0037384Y0139778D01*
X0038090Y0139180D02*
X0084736Y0139180D01*
X0084152Y0138581D02*
X0038674Y0138581D01*
X0038922Y0137983D02*
X0083904Y0137983D01*
X0083656Y0137384D02*
X0039170Y0137384D01*
X0039258Y0136786D02*
X0083568Y0136786D01*
X0083568Y0136187D02*
X0039258Y0136187D01*
X0039245Y0135589D02*
X0083581Y0135589D01*
X0083829Y0134990D02*
X0038997Y0134990D01*
X0038749Y0134392D02*
X0084077Y0134392D01*
X0084556Y0133793D02*
X0038270Y0133793D01*
X0037672Y0133195D02*
X0085154Y0133195D01*
X0086451Y0132596D02*
X0036375Y0132596D01*
X0036361Y0130202D02*
X0086466Y0130202D01*
X0085160Y0129604D02*
X0037666Y0129604D01*
X0038264Y0129005D02*
X0084562Y0129005D01*
X0084080Y0128406D02*
X0038746Y0128406D01*
X0038994Y0127808D02*
X0083832Y0127808D01*
X0083584Y0127209D02*
X0039242Y0127209D01*
X0039258Y0126611D02*
X0083568Y0126611D01*
X0083568Y0126012D02*
X0039258Y0126012D01*
X0039172Y0125414D02*
X0083654Y0125414D01*
X0083902Y0124815D02*
X0038925Y0124815D01*
X0038677Y0124217D02*
X0084149Y0124217D01*
X0084730Y0123618D02*
X0038096Y0123618D01*
X0037398Y0123020D02*
X0085428Y0123020D01*
X0086044Y0120027D02*
X0036782Y0120027D01*
X0037841Y0119429D02*
X0084986Y0119429D01*
X0084387Y0118830D02*
X0038439Y0118830D01*
X0038819Y0118232D02*
X0084007Y0118232D01*
X0083759Y0117633D02*
X0039067Y0117633D01*
X0039258Y0117035D02*
X0083568Y0117035D01*
X0083568Y0116436D02*
X0039258Y0116436D01*
X0039258Y0115838D02*
X0083568Y0115838D01*
X0083726Y0115239D02*
X0039100Y0115239D01*
X0038852Y0114641D02*
X0083974Y0114641D01*
X0084307Y0114042D02*
X0038520Y0114042D01*
X0037921Y0113444D02*
X0084905Y0113444D01*
X0085849Y0112845D02*
X0036977Y0112845D01*
X0037204Y0109853D02*
X0085622Y0109853D01*
X0084811Y0109254D02*
X0038015Y0109254D01*
X0038614Y0108656D02*
X0084212Y0108656D01*
X0083935Y0108057D02*
X0038891Y0108057D01*
X0039139Y0107459D02*
X0083687Y0107459D01*
X0083568Y0106860D02*
X0039258Y0106860D01*
X0039258Y0106262D02*
X0083568Y0106262D01*
X0083568Y0105663D02*
X0039258Y0105663D01*
X0039028Y0105065D02*
X0083798Y0105065D01*
X0084046Y0104466D02*
X0038780Y0104466D01*
X0038345Y0103868D02*
X0084481Y0103868D01*
X0085080Y0103269D02*
X0037746Y0103269D01*
X0036555Y0102671D02*
X0086271Y0102671D01*
X0086645Y0100276D02*
X0036181Y0100276D01*
X0037591Y0099678D02*
X0085235Y0099678D01*
X0084636Y0099079D02*
X0038190Y0099079D01*
X0038716Y0098481D02*
X0084110Y0098481D01*
X0083863Y0097882D02*
X0038964Y0097882D01*
X0039211Y0097284D02*
X0083615Y0097284D01*
X0083568Y0096685D02*
X0039258Y0096685D01*
X0039258Y0096087D02*
X0083568Y0096087D01*
X0083623Y0095488D02*
X0039203Y0095488D01*
X0038955Y0094890D02*
X0083871Y0094890D01*
X0084119Y0094291D02*
X0038707Y0094291D01*
X0038170Y0093693D02*
X0084656Y0093693D01*
X0085254Y0093094D02*
X0037572Y0093094D01*
X0036603Y0090102D02*
X0086223Y0090102D01*
X0085060Y0089503D02*
X0037766Y0089503D01*
X0037567Y0089702D02*
X0036134Y0090296D01*
X0028582Y0090296D01*
X0027149Y0089702D01*
X0026052Y0088605D01*
X0025458Y0087172D01*
X0025458Y0085620D01*
X0026052Y0084187D01*
X0027149Y0083090D01*
X0028582Y0082496D01*
X0036134Y0082496D01*
X0037567Y0083090D01*
X0038664Y0084187D01*
X0039258Y0085620D01*
X0039258Y0087172D01*
X0038664Y0088605D01*
X0037567Y0089702D01*
X0038365Y0088905D02*
X0084461Y0088905D01*
X0084038Y0088306D02*
X0038788Y0088306D01*
X0039036Y0087708D02*
X0083790Y0087708D01*
X0083568Y0087109D02*
X0039258Y0087109D01*
X0039258Y0086511D02*
X0083568Y0086511D01*
X0083568Y0085912D02*
X0039258Y0085912D01*
X0039131Y0085314D02*
X0083695Y0085314D01*
X0083943Y0084715D02*
X0038883Y0084715D01*
X0038594Y0084117D02*
X0084232Y0084117D01*
X0084831Y0083518D02*
X0037995Y0083518D01*
X0037156Y0082920D02*
X0085670Y0082920D01*
X0085802Y0079927D02*
X0037024Y0079927D01*
X0037941Y0079329D02*
X0084885Y0079329D01*
X0084287Y0078730D02*
X0038539Y0078730D01*
X0038860Y0078132D02*
X0083966Y0078132D01*
X0083718Y0077533D02*
X0039108Y0077533D01*
X0039258Y0076935D02*
X0083568Y0076935D01*
X0083568Y0076336D02*
X0039258Y0076336D01*
X0039258Y0075738D02*
X0083568Y0075738D01*
X0083767Y0075139D02*
X0039059Y0075139D01*
X0038811Y0074540D02*
X0084015Y0074540D01*
X0084407Y0073942D02*
X0038419Y0073942D01*
X0037821Y0073343D02*
X0085005Y0073343D01*
X0086091Y0072745D02*
X0036735Y0072745D01*
X0037446Y0069752D02*
X0085380Y0069752D01*
X0084711Y0069154D02*
X0038115Y0069154D01*
X0038685Y0068555D02*
X0084141Y0068555D01*
X0083893Y0067957D02*
X0038933Y0067957D01*
X0039181Y0067358D02*
X0083645Y0067358D01*
X0083568Y0066760D02*
X0039258Y0066760D01*
X0039258Y0066161D02*
X0083568Y0066161D01*
X0083592Y0065563D02*
X0039234Y0065563D01*
X0038986Y0064964D02*
X0083840Y0064964D01*
X0084088Y0064366D02*
X0038738Y0064366D01*
X0038245Y0063767D02*
X0084581Y0063767D01*
X0085180Y0063169D02*
X0037646Y0063169D01*
X0036313Y0062570D02*
X0086513Y0062570D01*
X0086403Y0060176D02*
X0036423Y0060176D01*
X0037692Y0059578D02*
X0085134Y0059578D01*
X0084536Y0058979D02*
X0038290Y0058979D01*
X0038757Y0058381D02*
X0084069Y0058381D01*
X0083821Y0057782D02*
X0039005Y0057782D01*
X0039253Y0057184D02*
X0083573Y0057184D01*
X0083568Y0056585D02*
X0039258Y0056585D01*
X0039258Y0055987D02*
X0083568Y0055987D01*
X0083664Y0055388D02*
X0039162Y0055388D01*
X0038914Y0054790D02*
X0083912Y0054790D01*
X0084160Y0054191D02*
X0038666Y0054191D01*
X0038070Y0053593D02*
X0084756Y0053593D01*
X0085490Y0052994D02*
X0037336Y0052994D01*
X0027070Y0063169D02*
X0006013Y0063169D01*
X0006013Y0063767D02*
X0026471Y0063767D01*
X0025978Y0064366D02*
X0006013Y0064366D01*
X0006013Y0064964D02*
X0025730Y0064964D01*
X0025482Y0065563D02*
X0006013Y0065563D01*
X0006013Y0066161D02*
X0025458Y0066161D01*
X0025458Y0066760D02*
X0006013Y0066760D01*
X0006013Y0067358D02*
X0006925Y0067358D01*
X0011113Y0067358D02*
X0011713Y0067358D01*
X0011713Y0067957D02*
X0011113Y0067957D01*
X0011113Y0068555D02*
X0011713Y0068555D01*
X0011713Y0069154D02*
X0011113Y0069154D01*
X0011113Y0069752D02*
X0011713Y0069752D01*
X0011713Y0070351D02*
X0011113Y0070351D01*
X0011113Y0070949D02*
X0011713Y0070949D01*
X0015901Y0067358D02*
X0025535Y0067358D01*
X0025783Y0067957D02*
X0016995Y0067957D01*
X0017654Y0068555D02*
X0026031Y0068555D01*
X0026600Y0069154D02*
X0018097Y0069154D01*
X0018400Y0069752D02*
X0027270Y0069752D01*
X0025608Y0077533D02*
X0015278Y0077533D01*
X0016664Y0078132D02*
X0025855Y0078132D01*
X0026177Y0078730D02*
X0017263Y0078730D01*
X0017778Y0079329D02*
X0020008Y0079329D01*
X0019410Y0079927D02*
X0018026Y0079927D01*
X0018274Y0080526D02*
X0018811Y0080526D01*
X0018773Y0081124D02*
X0018313Y0081124D01*
X0018313Y0081723D02*
X0018773Y0081723D01*
X0018773Y0082321D02*
X0018251Y0082321D01*
X0018003Y0082920D02*
X0019149Y0082920D01*
X0019595Y0083518D02*
X0017755Y0083518D01*
X0017208Y0084117D02*
X0019595Y0084117D01*
X0019595Y0084715D02*
X0016591Y0084715D01*
X0019595Y0085314D02*
X0006013Y0085314D01*
X0006013Y0085912D02*
X0019595Y0085912D01*
X0019595Y0086511D02*
X0006013Y0086511D01*
X0006013Y0087109D02*
X0019595Y0087109D01*
X0019595Y0087708D02*
X0015700Y0087708D01*
X0016839Y0088306D02*
X0019595Y0088306D01*
X0019595Y0088905D02*
X0017437Y0088905D01*
X0017850Y0089503D02*
X0019595Y0089503D01*
X0019595Y0090102D02*
X0018098Y0090102D01*
X0018313Y0090700D02*
X0019595Y0090700D01*
X0019595Y0091299D02*
X0018313Y0091299D01*
X0018313Y0091897D02*
X0019595Y0091897D01*
X0019595Y0092496D02*
X0018179Y0092496D01*
X0017931Y0093094D02*
X0019595Y0093094D01*
X0019595Y0093693D02*
X0017632Y0093693D01*
X0017033Y0094291D02*
X0019595Y0094291D01*
X0019595Y0094890D02*
X0016169Y0094890D01*
X0016122Y0097882D02*
X0019595Y0097882D01*
X0019595Y0097284D02*
X0006013Y0097284D01*
X0006013Y0097882D02*
X0006704Y0097882D01*
X0006013Y0096685D02*
X0019595Y0096685D01*
X0019595Y0096087D02*
X0006013Y0096087D01*
X0006013Y0095488D02*
X0019595Y0095488D01*
X0019595Y0098481D02*
X0017013Y0098481D01*
X0017612Y0099079D02*
X0019595Y0099079D01*
X0019595Y0099678D02*
X0017923Y0099678D01*
X0018171Y0100276D02*
X0019595Y0100276D01*
X0019595Y0100875D02*
X0018313Y0100875D01*
X0018313Y0101473D02*
X0019595Y0101473D01*
X0019051Y0102072D02*
X0018313Y0102072D01*
X0018106Y0102671D02*
X0018906Y0102671D01*
X0018906Y0103269D02*
X0017859Y0103269D01*
X0017457Y0103868D02*
X0018906Y0103868D01*
X0019175Y0104466D02*
X0016858Y0104466D01*
X0015748Y0105065D02*
X0019774Y0105065D01*
X0022816Y0105065D02*
X0025688Y0105065D01*
X0025458Y0105663D02*
X0006013Y0105663D01*
X0006013Y0105065D02*
X0007079Y0105065D01*
X0006013Y0106262D02*
X0025458Y0106262D01*
X0025458Y0106860D02*
X0006013Y0106860D01*
X0006013Y0107459D02*
X0025577Y0107459D01*
X0025825Y0108057D02*
X0006013Y0108057D01*
X0006013Y0108656D02*
X0026102Y0108656D01*
X0026701Y0109254D02*
X0006013Y0109254D01*
X0006013Y0109853D02*
X0027512Y0109853D01*
X0025936Y0104466D02*
X0023414Y0104466D01*
X0023684Y0103868D02*
X0026371Y0103868D01*
X0026969Y0103269D02*
X0023684Y0103269D01*
X0022995Y0101473D02*
X0118174Y0101473D01*
X0118228Y0100875D02*
X0022995Y0100875D01*
X0022995Y0091897D02*
X0117774Y0091897D01*
X0117774Y0091299D02*
X0022995Y0091299D01*
X0022995Y0090700D02*
X0118011Y0090700D01*
X0121743Y0090700D02*
X0122343Y0090700D01*
X0122343Y0091299D02*
X0121743Y0091299D01*
X0121743Y0091897D02*
X0122343Y0091897D01*
X0122343Y0092496D02*
X0121743Y0092496D01*
X0121743Y0093094D02*
X0122343Y0093094D01*
X0122343Y0094890D02*
X0121743Y0094890D01*
X0121743Y0095488D02*
X0122343Y0095488D01*
X0122343Y0096087D02*
X0121743Y0096087D01*
X0121743Y0096685D02*
X0122343Y0096685D01*
X0122343Y0097284D02*
X0121743Y0097284D01*
X0121743Y0097882D02*
X0122343Y0097882D01*
X0122343Y0098481D02*
X0121743Y0098481D01*
X0126311Y0091897D02*
X0191281Y0091897D01*
X0191281Y0091299D02*
X0126311Y0091299D01*
X0126075Y0090700D02*
X0191281Y0090700D01*
X0191661Y0087708D02*
X0188806Y0087708D01*
X0179430Y0087708D02*
X0178830Y0087708D01*
X0178830Y0088306D02*
X0179430Y0088306D01*
X0179430Y0087109D02*
X0178830Y0087109D01*
X0178830Y0086511D02*
X0179430Y0086511D01*
X0179430Y0085912D02*
X0178830Y0085912D01*
X0178830Y0085314D02*
X0179430Y0085314D01*
X0179430Y0083518D02*
X0178830Y0083518D01*
X0178830Y0082920D02*
X0179430Y0082920D01*
X0179430Y0082321D02*
X0178830Y0082321D01*
X0178830Y0081723D02*
X0179430Y0081723D01*
X0179430Y0081124D02*
X0178830Y0081124D01*
X0178830Y0080526D02*
X0179430Y0080526D01*
X0175451Y0080526D02*
X0023512Y0080526D01*
X0023551Y0081124D02*
X0118294Y0081124D01*
X0118174Y0081723D02*
X0023551Y0081723D01*
X0023551Y0082321D02*
X0118174Y0082321D01*
X0125911Y0085314D02*
X0174861Y0085314D01*
X0174861Y0085912D02*
X0125911Y0085912D01*
X0125911Y0086511D02*
X0174861Y0086511D01*
X0174861Y0087109D02*
X0125911Y0087109D01*
X0125911Y0087708D02*
X0174861Y0087708D01*
X0175095Y0088306D02*
X0125531Y0088306D01*
X0182613Y0041024D02*
X0183213Y0041024D01*
X0183213Y0040425D02*
X0182613Y0040425D01*
X0182613Y0039827D02*
X0183213Y0039827D01*
X0183213Y0039228D02*
X0182613Y0039228D01*
X0182613Y0038630D02*
X0183213Y0038630D01*
X0183213Y0038031D02*
X0182613Y0038031D01*
X0182613Y0037433D02*
X0183213Y0037433D01*
X0183213Y0036834D02*
X0182613Y0036834D01*
X0182613Y0036236D02*
X0183213Y0036236D01*
X0183213Y0034440D02*
X0182613Y0034440D01*
X0182613Y0033842D02*
X0183213Y0033842D01*
X0183213Y0033243D02*
X0182613Y0033243D01*
X0182613Y0032645D02*
X0183213Y0032645D01*
X0183213Y0032046D02*
X0182613Y0032046D01*
X0182613Y0031448D02*
X0183213Y0031448D01*
X0183213Y0030849D02*
X0182613Y0030849D01*
X0182613Y0030251D02*
X0183213Y0030251D01*
X0183213Y0029652D02*
X0182613Y0029652D01*
X0182613Y0029054D02*
X0183213Y0029054D01*
X0185980Y0029054D02*
X0197388Y0029054D01*
X0197140Y0029652D02*
X0186579Y0029652D01*
X0187177Y0030251D02*
X0196892Y0030251D01*
X0196813Y0030849D02*
X0187776Y0030849D01*
X0188374Y0031448D02*
X0196813Y0031448D01*
X0196813Y0032046D02*
X0188973Y0032046D01*
X0189213Y0032645D02*
X0196813Y0032645D01*
X0196813Y0033243D02*
X0189213Y0033243D01*
X0189213Y0033842D02*
X0196813Y0033842D01*
X0196813Y0034440D02*
X0189213Y0034440D01*
X0179846Y0029054D02*
X0155414Y0029054D01*
X0156013Y0029652D02*
X0179247Y0029652D01*
X0178649Y0030251D02*
X0156612Y0030251D01*
X0157210Y0030849D02*
X0178050Y0030849D01*
X0177452Y0031448D02*
X0157809Y0031448D01*
X0158407Y0032046D02*
X0176853Y0032046D01*
X0176613Y0032645D02*
X0158813Y0032645D01*
X0158813Y0033243D02*
X0176613Y0033243D01*
X0176613Y0033842D02*
X0158813Y0033842D01*
X0158813Y0034440D02*
X0176613Y0034440D01*
X0098754Y0023069D02*
X0095626Y0023069D01*
X0096255Y0023667D02*
X0098408Y0023667D01*
X0098063Y0024266D02*
X0096807Y0024266D01*
X0097055Y0024864D02*
X0097717Y0024864D01*
X0097372Y0025463D02*
X0097303Y0025463D01*
X0027692Y0079927D02*
X0022914Y0079927D01*
X0022315Y0079329D02*
X0026775Y0079329D01*
X0027559Y0082920D02*
X0023174Y0082920D01*
X0022995Y0083518D02*
X0026720Y0083518D01*
X0026122Y0084117D02*
X0022995Y0084117D01*
X0022995Y0084715D02*
X0025833Y0084715D01*
X0025585Y0085314D02*
X0022995Y0085314D01*
X0022995Y0085912D02*
X0025458Y0085912D01*
X0025458Y0086511D02*
X0022995Y0086511D01*
X0022995Y0087109D02*
X0025458Y0087109D01*
X0025680Y0087708D02*
X0022995Y0087708D01*
X0022995Y0088306D02*
X0025928Y0088306D01*
X0026351Y0088905D02*
X0022995Y0088905D01*
X0022995Y0089503D02*
X0026950Y0089503D01*
X0028113Y0090102D02*
X0022995Y0090102D01*
X0007126Y0087708D02*
X0006013Y0087708D01*
X0006013Y0084715D02*
X0006235Y0084715D01*
X0006013Y0094890D02*
X0006657Y0094890D01*
X0020784Y0167908D02*
X0028238Y0167908D01*
X0027639Y0168507D02*
X0023240Y0168507D01*
D18*
X0021295Y0103207D03*
X0021162Y0081553D03*
D19*
X0021295Y0081553D01*
X0021295Y0103207D01*
M02*
