G75*
%MOIN*%
%OFA0B0*%
%FSLAX25Y25*%
%IPPOS*%
%LPD*%
%AMOC8*
5,1,8,0,0,1.08239X$1,22.5*
%
%ADD10C,0.00600*%
%ADD11C,0.00300*%
%ADD12C,0.00800*%
%ADD13C,0.00000*%
%ADD14C,0.00700*%
%ADD15C,0.00500*%
%ADD16C,0.00400*%
%ADD17C,0.01000*%
%ADD18R,0.02000X0.01500*%
D10*
X0027358Y0013896D02*
X0027358Y0018896D01*
X0029858Y0021396D01*
X0027358Y0023896D01*
X0027358Y0028896D01*
X0029858Y0031396D01*
X0027358Y0033896D01*
X0027358Y0038896D01*
X0029858Y0041396D01*
X0027358Y0043896D01*
X0027358Y0048896D01*
X0029858Y0051396D01*
X0027358Y0053896D01*
X0027358Y0058896D01*
X0029858Y0061396D01*
X0027358Y0063896D01*
X0027358Y0068896D01*
X0029858Y0071396D01*
X0027358Y0073896D01*
X0027358Y0078896D01*
X0029858Y0081396D01*
X0027358Y0083896D01*
X0027358Y0088896D01*
X0029858Y0091396D01*
X0027358Y0093896D01*
X0027358Y0098896D01*
X0029858Y0101396D01*
X0027358Y0103896D01*
X0027358Y0108896D01*
X0029858Y0111396D01*
X0027358Y0113896D01*
X0027358Y0118896D01*
X0029858Y0121396D01*
X0027358Y0123896D01*
X0027358Y0128896D01*
X0029858Y0131396D01*
X0027358Y0133896D01*
X0027358Y0138896D01*
X0029858Y0141396D01*
X0027358Y0143896D01*
X0027358Y0148896D01*
X0029858Y0151396D01*
X0027358Y0153896D01*
X0027358Y0158896D01*
X0029858Y0161396D01*
X0034858Y0161396D01*
X0037358Y0158896D01*
X0037358Y0153896D01*
X0034858Y0151396D01*
X0037358Y0148896D01*
X0037358Y0143896D01*
X0034858Y0141396D01*
X0029858Y0141396D01*
X0001413Y0141396D02*
X0001361Y0142064D01*
X0001324Y0142733D01*
X0001304Y0143402D01*
X0001301Y0144072D01*
X0001313Y0144741D01*
X0001342Y0145411D01*
X0001387Y0146079D01*
X0001449Y0146746D01*
X0001526Y0147411D01*
X0001620Y0148074D01*
X0001730Y0148735D01*
X0001856Y0149393D01*
X0001998Y0150047D01*
X0002156Y0150698D01*
X0002329Y0151345D01*
X0002519Y0151987D01*
X0002724Y0152625D01*
X0002944Y0153258D01*
X0003180Y0153884D01*
X0003430Y0154505D01*
X0003696Y0155120D01*
X0003977Y0155728D01*
X0004272Y0156329D01*
X0004582Y0156923D01*
X0004907Y0157509D01*
X0005245Y0158087D01*
X0005598Y0158656D01*
X0005964Y0159217D01*
X0006344Y0159769D01*
X0006737Y0160311D01*
X0007143Y0160844D01*
X0007562Y0161366D01*
X0007994Y0161878D01*
X0008438Y0162380D01*
X0008894Y0162870D01*
X0009361Y0163350D01*
X0009841Y0163817D01*
X0010331Y0164273D01*
X0010833Y0164717D01*
X0011345Y0165149D01*
X0011867Y0165568D01*
X0012400Y0165974D01*
X0012942Y0166367D01*
X0013494Y0166747D01*
X0014055Y0167113D01*
X0014624Y0167466D01*
X0015202Y0167804D01*
X0015788Y0168129D01*
X0016382Y0168439D01*
X0016983Y0168734D01*
X0017591Y0169015D01*
X0018206Y0169281D01*
X0018827Y0169531D01*
X0019453Y0169767D01*
X0020086Y0169987D01*
X0020724Y0170192D01*
X0021366Y0170382D01*
X0022013Y0170555D01*
X0022664Y0170713D01*
X0023318Y0170855D01*
X0023976Y0170981D01*
X0024637Y0171091D01*
X0025300Y0171185D01*
X0025965Y0171262D01*
X0026632Y0171324D01*
X0027300Y0171369D01*
X0027970Y0171398D01*
X0028639Y0171410D01*
X0029309Y0171407D01*
X0029978Y0171387D01*
X0030647Y0171350D01*
X0031315Y0171298D01*
X0031334Y0171317D02*
X0166374Y0171317D01*
X0176213Y0166896D02*
X0126213Y0166896D01*
X0126115Y0166894D01*
X0126017Y0166888D01*
X0125919Y0166879D01*
X0125822Y0166865D01*
X0125725Y0166848D01*
X0125629Y0166827D01*
X0125534Y0166802D01*
X0125440Y0166774D01*
X0125348Y0166741D01*
X0125256Y0166706D01*
X0125166Y0166666D01*
X0125078Y0166624D01*
X0124991Y0166577D01*
X0124907Y0166528D01*
X0124824Y0166475D01*
X0124744Y0166419D01*
X0124665Y0166359D01*
X0124589Y0166297D01*
X0124516Y0166232D01*
X0124445Y0166164D01*
X0124377Y0166093D01*
X0124312Y0166020D01*
X0124250Y0165944D01*
X0124190Y0165865D01*
X0124134Y0165785D01*
X0124081Y0165702D01*
X0124032Y0165618D01*
X0123985Y0165531D01*
X0123943Y0165443D01*
X0123903Y0165353D01*
X0123868Y0165261D01*
X0123835Y0165169D01*
X0123807Y0165075D01*
X0123782Y0164980D01*
X0123761Y0164884D01*
X0123744Y0164787D01*
X0123730Y0164690D01*
X0123721Y0164592D01*
X0123715Y0164494D01*
X0123713Y0164396D01*
X0123713Y0138396D01*
X0123715Y0138298D01*
X0123721Y0138200D01*
X0123730Y0138102D01*
X0123744Y0138005D01*
X0123761Y0137908D01*
X0123782Y0137812D01*
X0123807Y0137717D01*
X0123835Y0137623D01*
X0123868Y0137531D01*
X0123903Y0137439D01*
X0123943Y0137349D01*
X0123985Y0137261D01*
X0124032Y0137174D01*
X0124081Y0137090D01*
X0124134Y0137007D01*
X0124190Y0136927D01*
X0124250Y0136848D01*
X0124312Y0136772D01*
X0124377Y0136699D01*
X0124445Y0136628D01*
X0124516Y0136560D01*
X0124589Y0136495D01*
X0124665Y0136433D01*
X0124744Y0136373D01*
X0124824Y0136317D01*
X0124907Y0136264D01*
X0124991Y0136215D01*
X0125078Y0136168D01*
X0125166Y0136126D01*
X0125256Y0136086D01*
X0125348Y0136051D01*
X0125440Y0136018D01*
X0125534Y0135990D01*
X0125629Y0135965D01*
X0125725Y0135944D01*
X0125822Y0135927D01*
X0125919Y0135913D01*
X0126017Y0135904D01*
X0126115Y0135898D01*
X0126213Y0135896D01*
X0176213Y0135896D01*
X0176311Y0135898D01*
X0176409Y0135904D01*
X0176507Y0135913D01*
X0176604Y0135927D01*
X0176701Y0135944D01*
X0176797Y0135965D01*
X0176892Y0135990D01*
X0176986Y0136018D01*
X0177078Y0136051D01*
X0177170Y0136086D01*
X0177260Y0136126D01*
X0177348Y0136168D01*
X0177435Y0136215D01*
X0177519Y0136264D01*
X0177602Y0136317D01*
X0177682Y0136373D01*
X0177761Y0136433D01*
X0177837Y0136495D01*
X0177910Y0136560D01*
X0177981Y0136628D01*
X0178049Y0136699D01*
X0178114Y0136772D01*
X0178176Y0136848D01*
X0178236Y0136927D01*
X0178292Y0137007D01*
X0178345Y0137090D01*
X0178394Y0137174D01*
X0178441Y0137261D01*
X0178483Y0137349D01*
X0178523Y0137439D01*
X0178558Y0137531D01*
X0178591Y0137623D01*
X0178619Y0137717D01*
X0178644Y0137812D01*
X0178665Y0137908D01*
X0178682Y0138005D01*
X0178696Y0138102D01*
X0178705Y0138200D01*
X0178711Y0138298D01*
X0178713Y0138396D01*
X0178713Y0164396D01*
X0178711Y0164494D01*
X0178705Y0164592D01*
X0178696Y0164690D01*
X0178682Y0164787D01*
X0178665Y0164884D01*
X0178644Y0164980D01*
X0178619Y0165075D01*
X0178591Y0165169D01*
X0178558Y0165261D01*
X0178523Y0165353D01*
X0178483Y0165443D01*
X0178441Y0165531D01*
X0178394Y0165618D01*
X0178345Y0165702D01*
X0178292Y0165785D01*
X0178236Y0165865D01*
X0178176Y0165944D01*
X0178114Y0166020D01*
X0178049Y0166093D01*
X0177981Y0166164D01*
X0177910Y0166232D01*
X0177837Y0166297D01*
X0177761Y0166359D01*
X0177682Y0166419D01*
X0177602Y0166475D01*
X0177519Y0166528D01*
X0177435Y0166577D01*
X0177348Y0166624D01*
X0177260Y0166666D01*
X0177170Y0166706D01*
X0177078Y0166741D01*
X0176986Y0166774D01*
X0176892Y0166802D01*
X0176797Y0166827D01*
X0176701Y0166848D01*
X0176604Y0166865D01*
X0176507Y0166879D01*
X0176409Y0166888D01*
X0176311Y0166894D01*
X0176213Y0166896D01*
X0186248Y0158934D02*
X0186248Y0154664D01*
X0184113Y0156799D02*
X0188383Y0156799D01*
X0189713Y0151296D02*
X0184713Y0151296D01*
X0182213Y0148796D01*
X0182213Y0143796D01*
X0184713Y0141296D01*
X0189713Y0141296D01*
X0192213Y0143796D01*
X0192213Y0148796D01*
X0189713Y0151296D01*
X0189713Y0141296D02*
X0192213Y0138796D01*
X0192213Y0133796D01*
X0189713Y0131296D01*
X0184713Y0131296D01*
X0182213Y0133796D01*
X0182213Y0138796D01*
X0184713Y0141296D01*
X0201413Y0136396D02*
X0201462Y0137187D01*
X0201491Y0137978D01*
X0201502Y0138769D01*
X0201493Y0139561D01*
X0201465Y0140352D01*
X0201418Y0141142D01*
X0201352Y0141931D01*
X0201266Y0142718D01*
X0201162Y0143503D01*
X0201038Y0144284D01*
X0200896Y0145063D01*
X0200734Y0145838D01*
X0200554Y0146609D01*
X0200355Y0147375D01*
X0200138Y0148136D01*
X0199902Y0148892D01*
X0199648Y0149642D01*
X0199376Y0150385D01*
X0199085Y0151122D01*
X0198777Y0151851D01*
X0198452Y0152573D01*
X0198109Y0153286D01*
X0197748Y0153991D01*
X0197371Y0154687D01*
X0196977Y0155373D01*
X0196567Y0156050D01*
X0196140Y0156717D01*
X0195697Y0157373D01*
X0195238Y0158018D01*
X0194763Y0158652D01*
X0194274Y0159274D01*
X0193769Y0159884D01*
X0193250Y0160481D01*
X0192717Y0161066D01*
X0192169Y0161638D01*
X0191608Y0162196D01*
X0191033Y0162740D01*
X0190445Y0163271D01*
X0189845Y0163786D01*
X0189232Y0164288D01*
X0188607Y0164774D01*
X0187971Y0165244D01*
X0187323Y0165700D01*
X0186664Y0166139D01*
X0185995Y0166562D01*
X0185316Y0166969D01*
X0184627Y0167359D01*
X0183929Y0167732D01*
X0183222Y0168089D01*
X0182507Y0168428D01*
X0181784Y0168749D01*
X0181053Y0169053D01*
X0180315Y0169339D01*
X0179570Y0169607D01*
X0178819Y0169857D01*
X0178062Y0170089D01*
X0177299Y0170302D01*
X0176532Y0170496D01*
X0175760Y0170672D01*
X0174984Y0170829D01*
X0174205Y0170967D01*
X0173422Y0171087D01*
X0172637Y0171187D01*
X0171849Y0171268D01*
X0171060Y0171330D01*
X0170270Y0171372D01*
X0169478Y0171396D01*
X0168687Y0171400D01*
X0167895Y0171385D01*
X0167104Y0171351D01*
X0166315Y0171298D01*
X0164213Y0157396D02*
X0164213Y0156396D01*
X0164213Y0157396D02*
X0163213Y0157396D01*
X0159213Y0157396D02*
X0158213Y0157396D01*
X0158213Y0156396D01*
X0158213Y0157396D02*
X0156213Y0157396D01*
X0156213Y0145396D01*
X0158213Y0145396D01*
X0158213Y0146396D01*
X0158213Y0145396D02*
X0159213Y0145396D01*
X0156213Y0145396D02*
X0154213Y0145396D01*
X0153213Y0145396D01*
X0154213Y0145396D02*
X0154213Y0146396D01*
X0149213Y0145396D02*
X0143213Y0145396D01*
X0139213Y0145396D02*
X0138213Y0145396D01*
X0138213Y0146396D01*
X0138213Y0156396D02*
X0138213Y0157396D01*
X0139213Y0157396D01*
X0143213Y0157396D02*
X0149213Y0157396D01*
X0153213Y0157396D02*
X0154213Y0157396D01*
X0154213Y0156396D01*
X0154213Y0157396D02*
X0156213Y0157396D01*
X0164213Y0146396D02*
X0164213Y0145396D01*
X0163213Y0145396D01*
X0193258Y0116364D02*
X0196461Y0116364D01*
X0193258Y0116364D02*
X0192191Y0115296D01*
X0192191Y0113161D01*
X0193258Y0112094D01*
X0192191Y0109919D02*
X0192191Y0106716D01*
X0193258Y0105648D01*
X0195394Y0105648D01*
X0196461Y0106716D01*
X0196461Y0109919D01*
X0196461Y0112094D02*
X0190056Y0112094D01*
X0195394Y0103493D02*
X0196461Y0103493D01*
X0196461Y0102425D01*
X0195394Y0102425D01*
X0195394Y0103493D01*
X0195394Y0100250D02*
X0194326Y0099183D01*
X0194326Y0097048D01*
X0193258Y0095980D01*
X0192191Y0097048D01*
X0192191Y0100250D01*
X0195394Y0100250D02*
X0196461Y0099183D01*
X0196461Y0095980D01*
X0195394Y0093805D02*
X0193258Y0093805D01*
X0192191Y0092737D01*
X0192191Y0089534D01*
X0190056Y0089534D02*
X0196461Y0089534D01*
X0196461Y0092737D01*
X0195394Y0093805D01*
X0196461Y0087359D02*
X0193258Y0087359D01*
X0192191Y0086292D01*
X0192191Y0084157D01*
X0194326Y0084157D02*
X0194326Y0087359D01*
X0196461Y0087359D02*
X0196461Y0084157D01*
X0195394Y0083089D01*
X0194326Y0084157D01*
X0196461Y0080927D02*
X0196461Y0078792D01*
X0196461Y0079860D02*
X0190056Y0079860D01*
X0190056Y0078792D01*
X0193258Y0076617D02*
X0192191Y0075549D01*
X0192191Y0072346D01*
X0190056Y0072346D02*
X0196461Y0072346D01*
X0196461Y0075549D01*
X0195394Y0076617D01*
X0193258Y0076617D01*
X0193258Y0070171D02*
X0192191Y0069104D01*
X0192191Y0066969D01*
X0194326Y0066969D02*
X0194326Y0070171D01*
X0193258Y0070171D02*
X0196461Y0070171D01*
X0196461Y0066969D01*
X0195394Y0065901D01*
X0194326Y0066969D01*
X0193258Y0063739D02*
X0193258Y0061604D01*
X0191123Y0062672D02*
X0190056Y0063739D01*
X0191123Y0062672D02*
X0196461Y0062672D01*
X0196461Y0059449D02*
X0196461Y0058381D01*
X0195394Y0058381D01*
X0195394Y0059449D01*
X0196461Y0059449D01*
X0195394Y0056206D02*
X0192191Y0056206D01*
X0195394Y0056206D02*
X0196461Y0055138D01*
X0195394Y0054071D01*
X0196461Y0053003D01*
X0195394Y0051936D01*
X0192191Y0051936D01*
X0192191Y0049761D02*
X0195394Y0049761D01*
X0196461Y0048693D01*
X0195394Y0047625D01*
X0196461Y0046558D01*
X0195394Y0045490D01*
X0192191Y0045490D01*
X0192191Y0043315D02*
X0195394Y0043315D01*
X0196461Y0042247D01*
X0195394Y0041180D01*
X0196461Y0040112D01*
X0195394Y0039045D01*
X0192191Y0039045D01*
X0201413Y0031357D02*
X0201413Y0136475D01*
X0134913Y0055239D02*
X0128913Y0055239D01*
X0128853Y0055237D01*
X0128792Y0055232D01*
X0128733Y0055223D01*
X0128674Y0055210D01*
X0128615Y0055194D01*
X0128558Y0055174D01*
X0128503Y0055151D01*
X0128448Y0055124D01*
X0128396Y0055095D01*
X0128345Y0055062D01*
X0128296Y0055026D01*
X0128250Y0054988D01*
X0128206Y0054946D01*
X0128164Y0054902D01*
X0128126Y0054856D01*
X0128090Y0054807D01*
X0128057Y0054756D01*
X0128028Y0054704D01*
X0128001Y0054649D01*
X0127978Y0054594D01*
X0127958Y0054537D01*
X0127942Y0054478D01*
X0127929Y0054419D01*
X0127920Y0054360D01*
X0127915Y0054299D01*
X0127913Y0054239D01*
X0127913Y0052739D01*
X0128413Y0052239D01*
X0128413Y0038239D01*
X0127913Y0037739D01*
X0127913Y0036239D01*
X0127915Y0036179D01*
X0127920Y0036118D01*
X0127929Y0036059D01*
X0127942Y0036000D01*
X0127958Y0035941D01*
X0127978Y0035884D01*
X0128001Y0035829D01*
X0128028Y0035774D01*
X0128057Y0035722D01*
X0128090Y0035671D01*
X0128126Y0035622D01*
X0128164Y0035576D01*
X0128206Y0035532D01*
X0128250Y0035490D01*
X0128296Y0035452D01*
X0128345Y0035416D01*
X0128396Y0035383D01*
X0128448Y0035354D01*
X0128503Y0035327D01*
X0128558Y0035304D01*
X0128615Y0035284D01*
X0128674Y0035268D01*
X0128733Y0035255D01*
X0128792Y0035246D01*
X0128853Y0035241D01*
X0128913Y0035239D01*
X0134913Y0035239D01*
X0134973Y0035241D01*
X0135034Y0035246D01*
X0135093Y0035255D01*
X0135152Y0035268D01*
X0135211Y0035284D01*
X0135268Y0035304D01*
X0135323Y0035327D01*
X0135378Y0035354D01*
X0135430Y0035383D01*
X0135481Y0035416D01*
X0135530Y0035452D01*
X0135576Y0035490D01*
X0135620Y0035532D01*
X0135662Y0035576D01*
X0135700Y0035622D01*
X0135736Y0035671D01*
X0135769Y0035722D01*
X0135798Y0035774D01*
X0135825Y0035829D01*
X0135848Y0035884D01*
X0135868Y0035941D01*
X0135884Y0036000D01*
X0135897Y0036059D01*
X0135906Y0036118D01*
X0135911Y0036179D01*
X0135913Y0036239D01*
X0135913Y0037739D01*
X0135413Y0038239D01*
X0135413Y0052239D01*
X0135913Y0052739D01*
X0135913Y0054239D01*
X0135911Y0054299D01*
X0135906Y0054360D01*
X0135897Y0054419D01*
X0135884Y0054478D01*
X0135868Y0054537D01*
X0135848Y0054594D01*
X0135825Y0054649D01*
X0135798Y0054704D01*
X0135769Y0054756D01*
X0135736Y0054807D01*
X0135700Y0054856D01*
X0135662Y0054902D01*
X0135620Y0054946D01*
X0135576Y0054988D01*
X0135530Y0055026D01*
X0135481Y0055062D01*
X0135430Y0055095D01*
X0135378Y0055124D01*
X0135323Y0055151D01*
X0135268Y0055174D01*
X0135211Y0055194D01*
X0135152Y0055210D01*
X0135093Y0055223D01*
X0135034Y0055232D01*
X0134973Y0055237D01*
X0134913Y0055239D01*
X0162913Y0034896D02*
X0162915Y0035037D01*
X0162921Y0035178D01*
X0162931Y0035318D01*
X0162945Y0035458D01*
X0162963Y0035598D01*
X0162984Y0035737D01*
X0163010Y0035876D01*
X0163039Y0036014D01*
X0163073Y0036150D01*
X0163110Y0036286D01*
X0163151Y0036421D01*
X0163196Y0036555D01*
X0163245Y0036687D01*
X0163297Y0036818D01*
X0163353Y0036947D01*
X0163413Y0037074D01*
X0163476Y0037200D01*
X0163542Y0037324D01*
X0163613Y0037447D01*
X0163686Y0037567D01*
X0163763Y0037685D01*
X0163843Y0037801D01*
X0163927Y0037914D01*
X0164013Y0038025D01*
X0164103Y0038134D01*
X0164196Y0038240D01*
X0164291Y0038343D01*
X0164390Y0038444D01*
X0164491Y0038542D01*
X0164595Y0038637D01*
X0164702Y0038729D01*
X0164811Y0038818D01*
X0164923Y0038903D01*
X0165037Y0038986D01*
X0165153Y0039066D01*
X0165272Y0039142D01*
X0165393Y0039214D01*
X0165515Y0039284D01*
X0165640Y0039349D01*
X0165766Y0039412D01*
X0165894Y0039470D01*
X0166024Y0039525D01*
X0166155Y0039577D01*
X0166288Y0039624D01*
X0166422Y0039668D01*
X0166557Y0039709D01*
X0166693Y0039745D01*
X0166830Y0039777D01*
X0166968Y0039806D01*
X0167106Y0039831D01*
X0167246Y0039851D01*
X0167386Y0039868D01*
X0167526Y0039881D01*
X0167667Y0039890D01*
X0167807Y0039895D01*
X0167948Y0039896D01*
X0168089Y0039893D01*
X0168230Y0039886D01*
X0168370Y0039875D01*
X0168510Y0039860D01*
X0168650Y0039841D01*
X0168789Y0039819D01*
X0168927Y0039792D01*
X0169065Y0039762D01*
X0169201Y0039727D01*
X0169337Y0039689D01*
X0169471Y0039647D01*
X0169605Y0039601D01*
X0169737Y0039552D01*
X0169867Y0039498D01*
X0169996Y0039441D01*
X0170123Y0039381D01*
X0170249Y0039317D01*
X0170372Y0039249D01*
X0170494Y0039178D01*
X0170614Y0039104D01*
X0170731Y0039026D01*
X0170846Y0038945D01*
X0170959Y0038861D01*
X0171070Y0038774D01*
X0171178Y0038683D01*
X0171283Y0038590D01*
X0171386Y0038493D01*
X0171486Y0038394D01*
X0171583Y0038292D01*
X0171677Y0038187D01*
X0171768Y0038080D01*
X0171856Y0037970D01*
X0171941Y0037858D01*
X0172023Y0037743D01*
X0172102Y0037626D01*
X0172177Y0037507D01*
X0172249Y0037386D01*
X0172317Y0037263D01*
X0172382Y0037138D01*
X0172444Y0037011D01*
X0172501Y0036882D01*
X0172556Y0036752D01*
X0172606Y0036621D01*
X0172653Y0036488D01*
X0172696Y0036354D01*
X0172735Y0036218D01*
X0172770Y0036082D01*
X0172802Y0035945D01*
X0172829Y0035807D01*
X0172853Y0035668D01*
X0172873Y0035528D01*
X0172889Y0035388D01*
X0172901Y0035248D01*
X0172909Y0035107D01*
X0172913Y0034966D01*
X0172913Y0034826D01*
X0172909Y0034685D01*
X0172901Y0034544D01*
X0172889Y0034404D01*
X0172873Y0034264D01*
X0172853Y0034124D01*
X0172829Y0033985D01*
X0172802Y0033847D01*
X0172770Y0033710D01*
X0172735Y0033574D01*
X0172696Y0033438D01*
X0172653Y0033304D01*
X0172606Y0033171D01*
X0172556Y0033040D01*
X0172501Y0032910D01*
X0172444Y0032781D01*
X0172382Y0032654D01*
X0172317Y0032529D01*
X0172249Y0032406D01*
X0172177Y0032285D01*
X0172102Y0032166D01*
X0172023Y0032049D01*
X0171941Y0031934D01*
X0171856Y0031822D01*
X0171768Y0031712D01*
X0171677Y0031605D01*
X0171583Y0031500D01*
X0171486Y0031398D01*
X0171386Y0031299D01*
X0171283Y0031202D01*
X0171178Y0031109D01*
X0171070Y0031018D01*
X0170959Y0030931D01*
X0170846Y0030847D01*
X0170731Y0030766D01*
X0170614Y0030688D01*
X0170494Y0030614D01*
X0170372Y0030543D01*
X0170249Y0030475D01*
X0170123Y0030411D01*
X0169996Y0030351D01*
X0169867Y0030294D01*
X0169737Y0030240D01*
X0169605Y0030191D01*
X0169471Y0030145D01*
X0169337Y0030103D01*
X0169201Y0030065D01*
X0169065Y0030030D01*
X0168927Y0030000D01*
X0168789Y0029973D01*
X0168650Y0029951D01*
X0168510Y0029932D01*
X0168370Y0029917D01*
X0168230Y0029906D01*
X0168089Y0029899D01*
X0167948Y0029896D01*
X0167807Y0029897D01*
X0167667Y0029902D01*
X0167526Y0029911D01*
X0167386Y0029924D01*
X0167246Y0029941D01*
X0167106Y0029961D01*
X0166968Y0029986D01*
X0166830Y0030015D01*
X0166693Y0030047D01*
X0166557Y0030083D01*
X0166422Y0030124D01*
X0166288Y0030168D01*
X0166155Y0030215D01*
X0166024Y0030267D01*
X0165894Y0030322D01*
X0165766Y0030380D01*
X0165640Y0030443D01*
X0165515Y0030508D01*
X0165393Y0030578D01*
X0165272Y0030650D01*
X0165153Y0030726D01*
X0165037Y0030806D01*
X0164923Y0030889D01*
X0164811Y0030974D01*
X0164702Y0031063D01*
X0164595Y0031155D01*
X0164491Y0031250D01*
X0164390Y0031348D01*
X0164291Y0031449D01*
X0164196Y0031552D01*
X0164103Y0031658D01*
X0164013Y0031767D01*
X0163927Y0031878D01*
X0163843Y0031991D01*
X0163763Y0032107D01*
X0163686Y0032225D01*
X0163613Y0032345D01*
X0163542Y0032468D01*
X0163476Y0032592D01*
X0163413Y0032718D01*
X0163353Y0032845D01*
X0163297Y0032974D01*
X0163245Y0033105D01*
X0163196Y0033237D01*
X0163151Y0033371D01*
X0163110Y0033506D01*
X0163073Y0033642D01*
X0163039Y0033778D01*
X0163010Y0033916D01*
X0162984Y0034055D01*
X0162963Y0034194D01*
X0162945Y0034334D01*
X0162931Y0034474D01*
X0162921Y0034614D01*
X0162915Y0034755D01*
X0162913Y0034896D01*
X0140413Y0034896D02*
X0140421Y0035571D01*
X0140446Y0036245D01*
X0140488Y0036919D01*
X0140545Y0037591D01*
X0140620Y0038262D01*
X0140711Y0038931D01*
X0140818Y0039597D01*
X0140941Y0040261D01*
X0141081Y0040921D01*
X0141237Y0041578D01*
X0141409Y0042231D01*
X0141597Y0042879D01*
X0141801Y0043522D01*
X0142021Y0044160D01*
X0142256Y0044793D01*
X0142506Y0045420D01*
X0142772Y0046040D01*
X0143053Y0046654D01*
X0143349Y0047260D01*
X0143660Y0047859D01*
X0143986Y0048451D01*
X0144325Y0049034D01*
X0144680Y0049608D01*
X0145048Y0050174D01*
X0145429Y0050731D01*
X0145825Y0051278D01*
X0146233Y0051815D01*
X0146655Y0052342D01*
X0147090Y0052858D01*
X0147537Y0053364D01*
X0147996Y0053858D01*
X0148468Y0054341D01*
X0148951Y0054813D01*
X0149445Y0055272D01*
X0149951Y0055719D01*
X0150467Y0056154D01*
X0150994Y0056576D01*
X0151531Y0056984D01*
X0152078Y0057380D01*
X0152635Y0057761D01*
X0153201Y0058129D01*
X0153775Y0058484D01*
X0154358Y0058823D01*
X0154950Y0059149D01*
X0155549Y0059460D01*
X0156155Y0059756D01*
X0156769Y0060037D01*
X0157389Y0060303D01*
X0158016Y0060553D01*
X0158649Y0060788D01*
X0159287Y0061008D01*
X0159930Y0061212D01*
X0160578Y0061400D01*
X0161231Y0061572D01*
X0161888Y0061728D01*
X0162548Y0061868D01*
X0163212Y0061991D01*
X0163878Y0062098D01*
X0164547Y0062189D01*
X0165218Y0062264D01*
X0165890Y0062321D01*
X0166564Y0062363D01*
X0167238Y0062388D01*
X0167913Y0062396D01*
X0168588Y0062388D01*
X0169262Y0062363D01*
X0169936Y0062321D01*
X0170608Y0062264D01*
X0171279Y0062189D01*
X0171948Y0062098D01*
X0172614Y0061991D01*
X0173278Y0061868D01*
X0173938Y0061728D01*
X0174595Y0061572D01*
X0175248Y0061400D01*
X0175896Y0061212D01*
X0176539Y0061008D01*
X0177177Y0060788D01*
X0177810Y0060553D01*
X0178437Y0060303D01*
X0179057Y0060037D01*
X0179671Y0059756D01*
X0180277Y0059460D01*
X0180876Y0059149D01*
X0181468Y0058823D01*
X0182051Y0058484D01*
X0182625Y0058129D01*
X0183191Y0057761D01*
X0183748Y0057380D01*
X0184295Y0056984D01*
X0184832Y0056576D01*
X0185359Y0056154D01*
X0185875Y0055719D01*
X0186381Y0055272D01*
X0186875Y0054813D01*
X0187358Y0054341D01*
X0187830Y0053858D01*
X0188289Y0053364D01*
X0188736Y0052858D01*
X0189171Y0052342D01*
X0189593Y0051815D01*
X0190001Y0051278D01*
X0190397Y0050731D01*
X0190778Y0050174D01*
X0191146Y0049608D01*
X0191501Y0049034D01*
X0191840Y0048451D01*
X0192166Y0047859D01*
X0192477Y0047260D01*
X0192773Y0046654D01*
X0193054Y0046040D01*
X0193320Y0045420D01*
X0193570Y0044793D01*
X0193805Y0044160D01*
X0194025Y0043522D01*
X0194229Y0042879D01*
X0194417Y0042231D01*
X0194589Y0041578D01*
X0194745Y0040921D01*
X0194885Y0040261D01*
X0195008Y0039597D01*
X0195115Y0038931D01*
X0195206Y0038262D01*
X0195281Y0037591D01*
X0195338Y0036919D01*
X0195380Y0036245D01*
X0195405Y0035571D01*
X0195413Y0034896D01*
X0195405Y0034221D01*
X0195380Y0033547D01*
X0195338Y0032873D01*
X0195281Y0032201D01*
X0195206Y0031530D01*
X0195115Y0030861D01*
X0195008Y0030195D01*
X0194885Y0029531D01*
X0194745Y0028871D01*
X0194589Y0028214D01*
X0194417Y0027561D01*
X0194229Y0026913D01*
X0194025Y0026270D01*
X0193805Y0025632D01*
X0193570Y0024999D01*
X0193320Y0024372D01*
X0193054Y0023752D01*
X0192773Y0023138D01*
X0192477Y0022532D01*
X0192166Y0021933D01*
X0191840Y0021341D01*
X0191501Y0020758D01*
X0191146Y0020184D01*
X0190778Y0019618D01*
X0190397Y0019061D01*
X0190001Y0018514D01*
X0189593Y0017977D01*
X0189171Y0017450D01*
X0188736Y0016934D01*
X0188289Y0016428D01*
X0187830Y0015934D01*
X0187358Y0015451D01*
X0186875Y0014979D01*
X0186381Y0014520D01*
X0185875Y0014073D01*
X0185359Y0013638D01*
X0184832Y0013216D01*
X0184295Y0012808D01*
X0183748Y0012412D01*
X0183191Y0012031D01*
X0182625Y0011663D01*
X0182051Y0011308D01*
X0181468Y0010969D01*
X0180876Y0010643D01*
X0180277Y0010332D01*
X0179671Y0010036D01*
X0179057Y0009755D01*
X0178437Y0009489D01*
X0177810Y0009239D01*
X0177177Y0009004D01*
X0176539Y0008784D01*
X0175896Y0008580D01*
X0175248Y0008392D01*
X0174595Y0008220D01*
X0173938Y0008064D01*
X0173278Y0007924D01*
X0172614Y0007801D01*
X0171948Y0007694D01*
X0171279Y0007603D01*
X0170608Y0007528D01*
X0169936Y0007471D01*
X0169262Y0007429D01*
X0168588Y0007404D01*
X0167913Y0007396D01*
X0167238Y0007404D01*
X0166564Y0007429D01*
X0165890Y0007471D01*
X0165218Y0007528D01*
X0164547Y0007603D01*
X0163878Y0007694D01*
X0163212Y0007801D01*
X0162548Y0007924D01*
X0161888Y0008064D01*
X0161231Y0008220D01*
X0160578Y0008392D01*
X0159930Y0008580D01*
X0159287Y0008784D01*
X0158649Y0009004D01*
X0158016Y0009239D01*
X0157389Y0009489D01*
X0156769Y0009755D01*
X0156155Y0010036D01*
X0155549Y0010332D01*
X0154950Y0010643D01*
X0154358Y0010969D01*
X0153775Y0011308D01*
X0153201Y0011663D01*
X0152635Y0012031D01*
X0152078Y0012412D01*
X0151531Y0012808D01*
X0150994Y0013216D01*
X0150467Y0013638D01*
X0149951Y0014073D01*
X0149445Y0014520D01*
X0148951Y0014979D01*
X0148468Y0015451D01*
X0147996Y0015934D01*
X0147537Y0016428D01*
X0147090Y0016934D01*
X0146655Y0017450D01*
X0146233Y0017977D01*
X0145825Y0018514D01*
X0145429Y0019061D01*
X0145048Y0019618D01*
X0144680Y0020184D01*
X0144325Y0020758D01*
X0143986Y0021341D01*
X0143660Y0021933D01*
X0143349Y0022532D01*
X0143053Y0023138D01*
X0142772Y0023752D01*
X0142506Y0024372D01*
X0142256Y0024999D01*
X0142021Y0025632D01*
X0141801Y0026270D01*
X0141597Y0026913D01*
X0141409Y0027561D01*
X0141237Y0028214D01*
X0141081Y0028871D01*
X0140941Y0029531D01*
X0140818Y0030195D01*
X0140711Y0030861D01*
X0140620Y0031530D01*
X0140545Y0032201D01*
X0140488Y0032873D01*
X0140446Y0033547D01*
X0140421Y0034221D01*
X0140413Y0034896D01*
X0147913Y0022896D02*
X0147915Y0023037D01*
X0147921Y0023178D01*
X0147931Y0023318D01*
X0147945Y0023458D01*
X0147963Y0023598D01*
X0147984Y0023737D01*
X0148010Y0023876D01*
X0148039Y0024014D01*
X0148073Y0024150D01*
X0148110Y0024286D01*
X0148151Y0024421D01*
X0148196Y0024555D01*
X0148245Y0024687D01*
X0148297Y0024818D01*
X0148353Y0024947D01*
X0148413Y0025074D01*
X0148476Y0025200D01*
X0148542Y0025324D01*
X0148613Y0025447D01*
X0148686Y0025567D01*
X0148763Y0025685D01*
X0148843Y0025801D01*
X0148927Y0025914D01*
X0149013Y0026025D01*
X0149103Y0026134D01*
X0149196Y0026240D01*
X0149291Y0026343D01*
X0149390Y0026444D01*
X0149491Y0026542D01*
X0149595Y0026637D01*
X0149702Y0026729D01*
X0149811Y0026818D01*
X0149923Y0026903D01*
X0150037Y0026986D01*
X0150153Y0027066D01*
X0150272Y0027142D01*
X0150393Y0027214D01*
X0150515Y0027284D01*
X0150640Y0027349D01*
X0150766Y0027412D01*
X0150894Y0027470D01*
X0151024Y0027525D01*
X0151155Y0027577D01*
X0151288Y0027624D01*
X0151422Y0027668D01*
X0151557Y0027709D01*
X0151693Y0027745D01*
X0151830Y0027777D01*
X0151968Y0027806D01*
X0152106Y0027831D01*
X0152246Y0027851D01*
X0152386Y0027868D01*
X0152526Y0027881D01*
X0152667Y0027890D01*
X0152807Y0027895D01*
X0152948Y0027896D01*
X0153089Y0027893D01*
X0153230Y0027886D01*
X0153370Y0027875D01*
X0153510Y0027860D01*
X0153650Y0027841D01*
X0153789Y0027819D01*
X0153927Y0027792D01*
X0154065Y0027762D01*
X0154201Y0027727D01*
X0154337Y0027689D01*
X0154471Y0027647D01*
X0154605Y0027601D01*
X0154737Y0027552D01*
X0154867Y0027498D01*
X0154996Y0027441D01*
X0155123Y0027381D01*
X0155249Y0027317D01*
X0155372Y0027249D01*
X0155494Y0027178D01*
X0155614Y0027104D01*
X0155731Y0027026D01*
X0155846Y0026945D01*
X0155959Y0026861D01*
X0156070Y0026774D01*
X0156178Y0026683D01*
X0156283Y0026590D01*
X0156386Y0026493D01*
X0156486Y0026394D01*
X0156583Y0026292D01*
X0156677Y0026187D01*
X0156768Y0026080D01*
X0156856Y0025970D01*
X0156941Y0025858D01*
X0157023Y0025743D01*
X0157102Y0025626D01*
X0157177Y0025507D01*
X0157249Y0025386D01*
X0157317Y0025263D01*
X0157382Y0025138D01*
X0157444Y0025011D01*
X0157501Y0024882D01*
X0157556Y0024752D01*
X0157606Y0024621D01*
X0157653Y0024488D01*
X0157696Y0024354D01*
X0157735Y0024218D01*
X0157770Y0024082D01*
X0157802Y0023945D01*
X0157829Y0023807D01*
X0157853Y0023668D01*
X0157873Y0023528D01*
X0157889Y0023388D01*
X0157901Y0023248D01*
X0157909Y0023107D01*
X0157913Y0022966D01*
X0157913Y0022826D01*
X0157909Y0022685D01*
X0157901Y0022544D01*
X0157889Y0022404D01*
X0157873Y0022264D01*
X0157853Y0022124D01*
X0157829Y0021985D01*
X0157802Y0021847D01*
X0157770Y0021710D01*
X0157735Y0021574D01*
X0157696Y0021438D01*
X0157653Y0021304D01*
X0157606Y0021171D01*
X0157556Y0021040D01*
X0157501Y0020910D01*
X0157444Y0020781D01*
X0157382Y0020654D01*
X0157317Y0020529D01*
X0157249Y0020406D01*
X0157177Y0020285D01*
X0157102Y0020166D01*
X0157023Y0020049D01*
X0156941Y0019934D01*
X0156856Y0019822D01*
X0156768Y0019712D01*
X0156677Y0019605D01*
X0156583Y0019500D01*
X0156486Y0019398D01*
X0156386Y0019299D01*
X0156283Y0019202D01*
X0156178Y0019109D01*
X0156070Y0019018D01*
X0155959Y0018931D01*
X0155846Y0018847D01*
X0155731Y0018766D01*
X0155614Y0018688D01*
X0155494Y0018614D01*
X0155372Y0018543D01*
X0155249Y0018475D01*
X0155123Y0018411D01*
X0154996Y0018351D01*
X0154867Y0018294D01*
X0154737Y0018240D01*
X0154605Y0018191D01*
X0154471Y0018145D01*
X0154337Y0018103D01*
X0154201Y0018065D01*
X0154065Y0018030D01*
X0153927Y0018000D01*
X0153789Y0017973D01*
X0153650Y0017951D01*
X0153510Y0017932D01*
X0153370Y0017917D01*
X0153230Y0017906D01*
X0153089Y0017899D01*
X0152948Y0017896D01*
X0152807Y0017897D01*
X0152667Y0017902D01*
X0152526Y0017911D01*
X0152386Y0017924D01*
X0152246Y0017941D01*
X0152106Y0017961D01*
X0151968Y0017986D01*
X0151830Y0018015D01*
X0151693Y0018047D01*
X0151557Y0018083D01*
X0151422Y0018124D01*
X0151288Y0018168D01*
X0151155Y0018215D01*
X0151024Y0018267D01*
X0150894Y0018322D01*
X0150766Y0018380D01*
X0150640Y0018443D01*
X0150515Y0018508D01*
X0150393Y0018578D01*
X0150272Y0018650D01*
X0150153Y0018726D01*
X0150037Y0018806D01*
X0149923Y0018889D01*
X0149811Y0018974D01*
X0149702Y0019063D01*
X0149595Y0019155D01*
X0149491Y0019250D01*
X0149390Y0019348D01*
X0149291Y0019449D01*
X0149196Y0019552D01*
X0149103Y0019658D01*
X0149013Y0019767D01*
X0148927Y0019878D01*
X0148843Y0019991D01*
X0148763Y0020107D01*
X0148686Y0020225D01*
X0148613Y0020345D01*
X0148542Y0020468D01*
X0148476Y0020592D01*
X0148413Y0020718D01*
X0148353Y0020845D01*
X0148297Y0020974D01*
X0148245Y0021105D01*
X0148196Y0021237D01*
X0148151Y0021371D01*
X0148110Y0021506D01*
X0148073Y0021642D01*
X0148039Y0021778D01*
X0148010Y0021916D01*
X0147984Y0022055D01*
X0147963Y0022194D01*
X0147945Y0022334D01*
X0147931Y0022474D01*
X0147921Y0022614D01*
X0147915Y0022755D01*
X0147913Y0022896D01*
X0171413Y0001396D02*
X0172138Y0001405D01*
X0172862Y0001431D01*
X0173586Y0001475D01*
X0174308Y0001536D01*
X0175029Y0001615D01*
X0175748Y0001711D01*
X0176464Y0001824D01*
X0177177Y0001955D01*
X0177887Y0002103D01*
X0178592Y0002268D01*
X0179294Y0002450D01*
X0179991Y0002649D01*
X0180684Y0002864D01*
X0181370Y0003097D01*
X0182051Y0003346D01*
X0182726Y0003611D01*
X0183394Y0003892D01*
X0184055Y0004190D01*
X0184709Y0004503D01*
X0185355Y0004832D01*
X0185993Y0005177D01*
X0186622Y0005537D01*
X0187242Y0005912D01*
X0187853Y0006302D01*
X0188455Y0006706D01*
X0189047Y0007125D01*
X0189628Y0007559D01*
X0190199Y0008006D01*
X0190758Y0008467D01*
X0191307Y0008941D01*
X0191843Y0009428D01*
X0192368Y0009928D01*
X0192881Y0010441D01*
X0193381Y0010966D01*
X0193868Y0011502D01*
X0194342Y0012051D01*
X0194803Y0012610D01*
X0195250Y0013181D01*
X0195684Y0013762D01*
X0196103Y0014354D01*
X0196507Y0014956D01*
X0196897Y0015567D01*
X0197272Y0016187D01*
X0197632Y0016816D01*
X0197977Y0017454D01*
X0198306Y0018100D01*
X0198619Y0018754D01*
X0198917Y0019415D01*
X0199198Y0020083D01*
X0199463Y0020758D01*
X0199712Y0021439D01*
X0199945Y0022125D01*
X0200160Y0022818D01*
X0200359Y0023515D01*
X0200541Y0024217D01*
X0200706Y0024922D01*
X0200854Y0025632D01*
X0200985Y0026345D01*
X0201098Y0027061D01*
X0201194Y0027780D01*
X0201273Y0028501D01*
X0201334Y0029223D01*
X0201378Y0029947D01*
X0201404Y0030671D01*
X0201413Y0031396D01*
X0171492Y0001435D02*
X0118224Y0001435D01*
X0116177Y0001435D01*
X0036452Y0001435D01*
X0036413Y0006396D02*
X0086413Y0006396D01*
X0086413Y0156396D01*
X0071413Y0156396D01*
X0071413Y0166396D01*
X0051413Y0166396D01*
X0051413Y0156396D01*
X0036413Y0156396D01*
X0036413Y0006396D01*
X0034858Y0011396D02*
X0029858Y0011396D01*
X0027358Y0013896D01*
X0034858Y0011396D02*
X0037358Y0013896D01*
X0037358Y0018896D01*
X0034858Y0021396D01*
X0029858Y0021396D01*
X0034858Y0021396D02*
X0037358Y0023896D01*
X0037358Y0028896D01*
X0034858Y0031396D01*
X0029858Y0031396D01*
X0001413Y0036396D02*
X0001362Y0035606D01*
X0001330Y0034815D01*
X0001317Y0034024D01*
X0001324Y0033232D01*
X0001350Y0032441D01*
X0001394Y0031650D01*
X0001459Y0030861D01*
X0001542Y0030074D01*
X0001644Y0029289D01*
X0001766Y0028507D01*
X0001906Y0027728D01*
X0002065Y0026952D01*
X0002243Y0026181D01*
X0002440Y0025414D01*
X0002655Y0024652D01*
X0002889Y0023896D01*
X0003141Y0023146D01*
X0003411Y0022402D01*
X0003699Y0021664D01*
X0004005Y0020934D01*
X0004329Y0020212D01*
X0004670Y0019497D01*
X0005028Y0018791D01*
X0005403Y0018094D01*
X0005795Y0017407D01*
X0006204Y0016729D01*
X0006629Y0016061D01*
X0007070Y0015404D01*
X0007527Y0014757D01*
X0008000Y0014122D01*
X0008488Y0013499D01*
X0008991Y0012887D01*
X0009508Y0012288D01*
X0010040Y0011702D01*
X0010586Y0011129D01*
X0011146Y0010569D01*
X0011719Y0010023D01*
X0012305Y0009491D01*
X0012904Y0008974D01*
X0013516Y0008471D01*
X0014139Y0007983D01*
X0014774Y0007510D01*
X0015421Y0007053D01*
X0016078Y0006612D01*
X0016746Y0006187D01*
X0017424Y0005778D01*
X0018111Y0005386D01*
X0018808Y0005011D01*
X0019514Y0004653D01*
X0020229Y0004312D01*
X0020951Y0003988D01*
X0021681Y0003682D01*
X0022419Y0003394D01*
X0023163Y0003124D01*
X0023913Y0002872D01*
X0024669Y0002638D01*
X0025431Y0002423D01*
X0026198Y0002226D01*
X0026969Y0002048D01*
X0027745Y0001889D01*
X0028524Y0001749D01*
X0029306Y0001627D01*
X0030091Y0001525D01*
X0030878Y0001442D01*
X0031667Y0001377D01*
X0032458Y0001333D01*
X0033249Y0001307D01*
X0034041Y0001300D01*
X0034832Y0001313D01*
X0035623Y0001345D01*
X0036413Y0001396D01*
X0034858Y0031396D02*
X0037358Y0033896D01*
X0037358Y0038896D01*
X0034858Y0041396D01*
X0029858Y0041396D01*
X0034858Y0041396D02*
X0037358Y0043896D01*
X0037358Y0048896D01*
X0034858Y0051396D01*
X0029858Y0051396D01*
X0026413Y0051396D02*
X0011413Y0051396D01*
X0011413Y0061396D01*
X0008913Y0066396D02*
X0006413Y0068896D01*
X0006413Y0073896D01*
X0008913Y0076396D01*
X0006413Y0078896D01*
X0006413Y0083896D01*
X0008913Y0086396D01*
X0006413Y0088896D01*
X0006413Y0093896D01*
X0008913Y0096396D01*
X0006413Y0098896D01*
X0006413Y0103896D01*
X0008913Y0106396D01*
X0013913Y0106396D01*
X0016413Y0103896D01*
X0016413Y0098896D01*
X0013913Y0096396D01*
X0016413Y0093896D01*
X0016413Y0088896D01*
X0013913Y0086396D01*
X0016413Y0083896D01*
X0016413Y0078896D01*
X0013913Y0076396D01*
X0016413Y0073896D01*
X0016413Y0068896D01*
X0013913Y0066396D01*
X0008913Y0066396D01*
X0029858Y0061396D02*
X0034858Y0061396D01*
X0037358Y0058896D01*
X0037358Y0053896D01*
X0034858Y0051396D01*
X0034858Y0061396D02*
X0037358Y0063896D01*
X0037358Y0068896D01*
X0034858Y0071396D01*
X0029858Y0071396D01*
X0034858Y0071396D02*
X0037358Y0073896D01*
X0037358Y0078896D01*
X0034858Y0081396D01*
X0029858Y0081396D01*
X0034858Y0081396D02*
X0037358Y0083896D01*
X0037358Y0088896D01*
X0034858Y0091396D01*
X0029858Y0091396D01*
X0034858Y0091396D02*
X0037358Y0093896D01*
X0037358Y0098896D01*
X0034858Y0101396D01*
X0029858Y0101396D01*
X0034858Y0101396D02*
X0037358Y0103896D01*
X0037358Y0108896D01*
X0034858Y0111396D01*
X0029858Y0111396D01*
X0034858Y0111396D02*
X0037358Y0113896D01*
X0037358Y0118896D01*
X0034858Y0121396D01*
X0029858Y0121396D01*
X0026413Y0121396D02*
X0011413Y0121396D01*
X0011413Y0111396D01*
X0034858Y0121396D02*
X0037358Y0123896D01*
X0037358Y0128896D01*
X0034858Y0131396D01*
X0029858Y0131396D01*
X0034858Y0131396D02*
X0037358Y0133896D01*
X0037358Y0138896D01*
X0034858Y0141396D01*
X0034858Y0151396D02*
X0029858Y0151396D01*
X0001413Y0141396D02*
X0001413Y0036278D01*
X0058290Y0053280D02*
X0060425Y0055415D01*
X0064696Y0055415D01*
X0064696Y0057590D02*
X0058290Y0057590D01*
X0058290Y0060793D01*
X0059358Y0061861D01*
X0061493Y0061861D01*
X0062561Y0060793D01*
X0062561Y0057590D01*
X0062561Y0059725D02*
X0064696Y0061861D01*
X0064696Y0064036D02*
X0064696Y0067239D01*
X0063628Y0068306D01*
X0059358Y0068306D01*
X0058290Y0067239D01*
X0058290Y0064036D01*
X0064696Y0064036D01*
X0063628Y0070481D02*
X0058290Y0070481D01*
X0058290Y0074752D02*
X0063628Y0074752D01*
X0064696Y0073684D01*
X0064696Y0071549D01*
X0063628Y0070481D01*
X0064696Y0076927D02*
X0064696Y0079062D01*
X0064696Y0077994D02*
X0058290Y0077994D01*
X0058290Y0076927D02*
X0058290Y0079062D01*
X0058290Y0081224D02*
X0064696Y0085494D01*
X0058290Y0085494D01*
X0059358Y0087669D02*
X0063628Y0087669D01*
X0064696Y0088737D01*
X0064696Y0090872D01*
X0063628Y0091940D01*
X0059358Y0091940D01*
X0058290Y0090872D01*
X0058290Y0088737D01*
X0059358Y0087669D01*
X0058290Y0081224D02*
X0064696Y0081224D01*
X0064696Y0100560D02*
X0058290Y0100560D01*
X0064696Y0104831D01*
X0058290Y0104831D01*
X0060425Y0107006D02*
X0058290Y0109141D01*
X0060425Y0111276D01*
X0064696Y0111276D01*
X0064696Y0113451D02*
X0058290Y0113451D01*
X0064696Y0117722D01*
X0058290Y0117722D01*
X0059358Y0119897D02*
X0063628Y0119897D01*
X0064696Y0120964D01*
X0064696Y0123100D01*
X0063628Y0124167D01*
X0059358Y0124167D01*
X0058290Y0123100D01*
X0058290Y0120964D01*
X0059358Y0119897D01*
X0061493Y0111276D02*
X0061493Y0107006D01*
X0060425Y0107006D02*
X0064696Y0107006D01*
X0085468Y0108896D02*
X0085468Y0103896D01*
X0087968Y0101396D01*
X0092968Y0101396D01*
X0095468Y0103896D01*
X0095468Y0108896D01*
X0092968Y0111396D01*
X0095468Y0113896D01*
X0095468Y0118896D01*
X0092968Y0121396D01*
X0087968Y0121396D01*
X0085468Y0118896D01*
X0085468Y0113896D01*
X0087968Y0111396D01*
X0092968Y0111396D01*
X0087968Y0111396D02*
X0085468Y0108896D01*
X0087968Y0101396D02*
X0085468Y0098896D01*
X0085468Y0093896D01*
X0087968Y0091396D01*
X0092968Y0091396D01*
X0095468Y0088896D01*
X0095468Y0083896D01*
X0092968Y0081396D01*
X0095468Y0078896D01*
X0095468Y0073896D01*
X0092968Y0071396D01*
X0095468Y0068896D01*
X0095468Y0063896D01*
X0092968Y0061396D01*
X0095468Y0058896D01*
X0095468Y0053896D01*
X0092968Y0051396D01*
X0095468Y0048896D01*
X0095468Y0043896D01*
X0092968Y0041396D01*
X0095468Y0038896D01*
X0095468Y0033896D01*
X0092968Y0031396D01*
X0095468Y0028896D01*
X0095468Y0023896D01*
X0092968Y0021396D01*
X0095468Y0018896D01*
X0095468Y0013896D01*
X0092968Y0011396D01*
X0087968Y0011396D01*
X0085468Y0013896D01*
X0085468Y0018896D01*
X0087968Y0021396D01*
X0085468Y0023896D01*
X0085468Y0028896D01*
X0087968Y0031396D01*
X0092968Y0031396D01*
X0087968Y0031396D02*
X0085468Y0033896D01*
X0085468Y0038896D01*
X0087968Y0041396D01*
X0085468Y0043896D01*
X0085468Y0048896D01*
X0087968Y0051396D01*
X0085468Y0053896D01*
X0085468Y0058896D01*
X0087968Y0061396D01*
X0092968Y0061396D01*
X0087968Y0061396D02*
X0085468Y0063896D01*
X0085468Y0068896D01*
X0087968Y0071396D01*
X0085468Y0073896D01*
X0085468Y0078896D01*
X0087968Y0081396D01*
X0085468Y0083896D01*
X0085468Y0088896D01*
X0087968Y0091396D01*
X0092968Y0091396D02*
X0095468Y0093896D01*
X0095468Y0098896D01*
X0092968Y0101396D01*
X0092968Y0081396D02*
X0087968Y0081396D01*
X0087968Y0071396D02*
X0092968Y0071396D01*
X0092968Y0051396D02*
X0087968Y0051396D01*
X0087968Y0041396D02*
X0092968Y0041396D01*
X0092968Y0021396D02*
X0087968Y0021396D01*
X0064696Y0051145D02*
X0060425Y0051145D01*
X0058290Y0053280D01*
X0061493Y0051145D02*
X0061493Y0055415D01*
X0087968Y0121396D02*
X0085468Y0123896D01*
X0085468Y0128896D01*
X0087968Y0131396D01*
X0085468Y0133896D01*
X0085468Y0138896D01*
X0087968Y0141396D01*
X0085468Y0143896D01*
X0085468Y0148896D01*
X0087968Y0151396D01*
X0085468Y0153896D01*
X0085468Y0158896D01*
X0087968Y0161396D01*
X0092968Y0161396D01*
X0095468Y0158896D01*
X0095468Y0153896D01*
X0092968Y0151396D01*
X0095468Y0148896D01*
X0095468Y0143896D01*
X0092968Y0141396D01*
X0095468Y0138896D01*
X0095468Y0133896D01*
X0092968Y0131396D01*
X0095468Y0128896D01*
X0095468Y0123896D01*
X0092968Y0121396D01*
X0092968Y0131396D02*
X0087968Y0131396D01*
X0087968Y0141396D02*
X0092968Y0141396D01*
X0092968Y0151396D02*
X0087968Y0151396D01*
D11*
X0022614Y0074255D02*
X0020146Y0074255D01*
X0019528Y0073638D01*
X0019528Y0071786D01*
X0023232Y0071786D01*
X0023232Y0073638D01*
X0022614Y0074255D01*
X0023232Y0070572D02*
X0019528Y0070572D01*
X0019528Y0068103D02*
X0023232Y0070572D01*
X0023232Y0068103D02*
X0019528Y0068103D01*
X0020146Y0066889D02*
X0019528Y0066272D01*
X0019528Y0065037D01*
X0020146Y0064420D01*
X0022614Y0064420D01*
X0023232Y0065037D01*
X0023232Y0066272D01*
X0022614Y0066889D01*
X0021380Y0066889D01*
X0021380Y0065654D01*
X0195001Y0133672D02*
X0196852Y0133672D01*
X0196235Y0134906D01*
X0196235Y0135524D01*
X0196852Y0136141D01*
X0198087Y0136141D01*
X0198704Y0135524D01*
X0198704Y0134289D01*
X0198087Y0133672D01*
X0195001Y0133672D02*
X0195001Y0136141D01*
X0196852Y0137355D02*
X0196852Y0139824D01*
X0196235Y0141038D02*
X0195001Y0142273D01*
X0198704Y0142273D01*
X0198704Y0143507D02*
X0198704Y0141038D01*
X0198704Y0144721D02*
X0196235Y0147190D01*
X0195618Y0147190D01*
X0195001Y0146573D01*
X0195001Y0145339D01*
X0195618Y0144721D01*
X0198704Y0144721D02*
X0198704Y0147190D01*
X0197470Y0148405D02*
X0198704Y0149639D01*
X0197470Y0150873D01*
X0195001Y0150873D01*
X0195001Y0148405D02*
X0197470Y0148405D01*
D12*
X0191052Y0127900D02*
X0184913Y0127900D01*
D13*
X0100586Y0142420D02*
X0100589Y0142686D01*
X0100599Y0142951D01*
X0100615Y0143216D01*
X0100638Y0143481D01*
X0100667Y0143745D01*
X0100703Y0144009D01*
X0100745Y0144271D01*
X0100794Y0144532D01*
X0100849Y0144792D01*
X0100910Y0145051D01*
X0100978Y0145308D01*
X0101052Y0145563D01*
X0101132Y0145816D01*
X0101219Y0146068D01*
X0101311Y0146317D01*
X0101410Y0146563D01*
X0101515Y0146808D01*
X0101626Y0147049D01*
X0101742Y0147288D01*
X0101864Y0147524D01*
X0101993Y0147757D01*
X0102126Y0147986D01*
X0102266Y0148212D01*
X0102411Y0148435D01*
X0102561Y0148654D01*
X0102717Y0148870D01*
X0102878Y0149081D01*
X0103044Y0149289D01*
X0103215Y0149492D01*
X0103391Y0149691D01*
X0103572Y0149886D01*
X0103757Y0150076D01*
X0103947Y0150261D01*
X0104142Y0150442D01*
X0104341Y0150618D01*
X0104544Y0150789D01*
X0104752Y0150955D01*
X0104963Y0151116D01*
X0105179Y0151272D01*
X0105398Y0151422D01*
X0105621Y0151567D01*
X0105847Y0151707D01*
X0106076Y0151840D01*
X0106309Y0151969D01*
X0106545Y0152091D01*
X0106784Y0152207D01*
X0107025Y0152318D01*
X0107270Y0152423D01*
X0107516Y0152522D01*
X0107765Y0152614D01*
X0108017Y0152701D01*
X0108270Y0152781D01*
X0108525Y0152855D01*
X0108782Y0152923D01*
X0109041Y0152984D01*
X0109301Y0153039D01*
X0109562Y0153088D01*
X0109824Y0153130D01*
X0110088Y0153166D01*
X0110352Y0153195D01*
X0110617Y0153218D01*
X0110882Y0153234D01*
X0111147Y0153244D01*
X0111413Y0153247D01*
X0111679Y0153244D01*
X0111944Y0153234D01*
X0112209Y0153218D01*
X0112474Y0153195D01*
X0112738Y0153166D01*
X0113002Y0153130D01*
X0113264Y0153088D01*
X0113525Y0153039D01*
X0113785Y0152984D01*
X0114044Y0152923D01*
X0114301Y0152855D01*
X0114556Y0152781D01*
X0114809Y0152701D01*
X0115061Y0152614D01*
X0115310Y0152522D01*
X0115556Y0152423D01*
X0115801Y0152318D01*
X0116042Y0152207D01*
X0116281Y0152091D01*
X0116517Y0151969D01*
X0116750Y0151840D01*
X0116979Y0151707D01*
X0117205Y0151567D01*
X0117428Y0151422D01*
X0117647Y0151272D01*
X0117863Y0151116D01*
X0118074Y0150955D01*
X0118282Y0150789D01*
X0118485Y0150618D01*
X0118684Y0150442D01*
X0118879Y0150261D01*
X0119069Y0150076D01*
X0119254Y0149886D01*
X0119435Y0149691D01*
X0119611Y0149492D01*
X0119782Y0149289D01*
X0119948Y0149081D01*
X0120109Y0148870D01*
X0120265Y0148654D01*
X0120415Y0148435D01*
X0120560Y0148212D01*
X0120700Y0147986D01*
X0120833Y0147757D01*
X0120962Y0147524D01*
X0121084Y0147288D01*
X0121200Y0147049D01*
X0121311Y0146808D01*
X0121416Y0146563D01*
X0121515Y0146317D01*
X0121607Y0146068D01*
X0121694Y0145816D01*
X0121774Y0145563D01*
X0121848Y0145308D01*
X0121916Y0145051D01*
X0121977Y0144792D01*
X0122032Y0144532D01*
X0122081Y0144271D01*
X0122123Y0144009D01*
X0122159Y0143745D01*
X0122188Y0143481D01*
X0122211Y0143216D01*
X0122227Y0142951D01*
X0122237Y0142686D01*
X0122240Y0142420D01*
X0122237Y0142154D01*
X0122227Y0141889D01*
X0122211Y0141624D01*
X0122188Y0141359D01*
X0122159Y0141095D01*
X0122123Y0140831D01*
X0122081Y0140569D01*
X0122032Y0140308D01*
X0121977Y0140048D01*
X0121916Y0139789D01*
X0121848Y0139532D01*
X0121774Y0139277D01*
X0121694Y0139024D01*
X0121607Y0138772D01*
X0121515Y0138523D01*
X0121416Y0138277D01*
X0121311Y0138032D01*
X0121200Y0137791D01*
X0121084Y0137552D01*
X0120962Y0137316D01*
X0120833Y0137083D01*
X0120700Y0136854D01*
X0120560Y0136628D01*
X0120415Y0136405D01*
X0120265Y0136186D01*
X0120109Y0135970D01*
X0119948Y0135759D01*
X0119782Y0135551D01*
X0119611Y0135348D01*
X0119435Y0135149D01*
X0119254Y0134954D01*
X0119069Y0134764D01*
X0118879Y0134579D01*
X0118684Y0134398D01*
X0118485Y0134222D01*
X0118282Y0134051D01*
X0118074Y0133885D01*
X0117863Y0133724D01*
X0117647Y0133568D01*
X0117428Y0133418D01*
X0117205Y0133273D01*
X0116979Y0133133D01*
X0116750Y0133000D01*
X0116517Y0132871D01*
X0116281Y0132749D01*
X0116042Y0132633D01*
X0115801Y0132522D01*
X0115556Y0132417D01*
X0115310Y0132318D01*
X0115061Y0132226D01*
X0114809Y0132139D01*
X0114556Y0132059D01*
X0114301Y0131985D01*
X0114044Y0131917D01*
X0113785Y0131856D01*
X0113525Y0131801D01*
X0113264Y0131752D01*
X0113002Y0131710D01*
X0112738Y0131674D01*
X0112474Y0131645D01*
X0112209Y0131622D01*
X0111944Y0131606D01*
X0111679Y0131596D01*
X0111413Y0131593D01*
X0111147Y0131596D01*
X0110882Y0131606D01*
X0110617Y0131622D01*
X0110352Y0131645D01*
X0110088Y0131674D01*
X0109824Y0131710D01*
X0109562Y0131752D01*
X0109301Y0131801D01*
X0109041Y0131856D01*
X0108782Y0131917D01*
X0108525Y0131985D01*
X0108270Y0132059D01*
X0108017Y0132139D01*
X0107765Y0132226D01*
X0107516Y0132318D01*
X0107270Y0132417D01*
X0107025Y0132522D01*
X0106784Y0132633D01*
X0106545Y0132749D01*
X0106309Y0132871D01*
X0106076Y0133000D01*
X0105847Y0133133D01*
X0105621Y0133273D01*
X0105398Y0133418D01*
X0105179Y0133568D01*
X0104963Y0133724D01*
X0104752Y0133885D01*
X0104544Y0134051D01*
X0104341Y0134222D01*
X0104142Y0134398D01*
X0103947Y0134579D01*
X0103757Y0134764D01*
X0103572Y0134954D01*
X0103391Y0135149D01*
X0103215Y0135348D01*
X0103044Y0135551D01*
X0102878Y0135759D01*
X0102717Y0135970D01*
X0102561Y0136186D01*
X0102411Y0136405D01*
X0102266Y0136628D01*
X0102126Y0136854D01*
X0101993Y0137083D01*
X0101864Y0137316D01*
X0101742Y0137552D01*
X0101626Y0137791D01*
X0101515Y0138032D01*
X0101410Y0138277D01*
X0101311Y0138523D01*
X0101219Y0138772D01*
X0101132Y0139024D01*
X0101052Y0139277D01*
X0100978Y0139532D01*
X0100910Y0139789D01*
X0100849Y0140048D01*
X0100794Y0140308D01*
X0100745Y0140569D01*
X0100703Y0140831D01*
X0100667Y0141095D01*
X0100638Y0141359D01*
X0100615Y0141624D01*
X0100599Y0141889D01*
X0100589Y0142154D01*
X0100586Y0142420D01*
X0100586Y0031396D02*
X0100589Y0031662D01*
X0100599Y0031927D01*
X0100615Y0032192D01*
X0100638Y0032457D01*
X0100667Y0032721D01*
X0100703Y0032985D01*
X0100745Y0033247D01*
X0100794Y0033508D01*
X0100849Y0033768D01*
X0100910Y0034027D01*
X0100978Y0034284D01*
X0101052Y0034539D01*
X0101132Y0034792D01*
X0101219Y0035044D01*
X0101311Y0035293D01*
X0101410Y0035539D01*
X0101515Y0035784D01*
X0101626Y0036025D01*
X0101742Y0036264D01*
X0101864Y0036500D01*
X0101993Y0036733D01*
X0102126Y0036962D01*
X0102266Y0037188D01*
X0102411Y0037411D01*
X0102561Y0037630D01*
X0102717Y0037846D01*
X0102878Y0038057D01*
X0103044Y0038265D01*
X0103215Y0038468D01*
X0103391Y0038667D01*
X0103572Y0038862D01*
X0103757Y0039052D01*
X0103947Y0039237D01*
X0104142Y0039418D01*
X0104341Y0039594D01*
X0104544Y0039765D01*
X0104752Y0039931D01*
X0104963Y0040092D01*
X0105179Y0040248D01*
X0105398Y0040398D01*
X0105621Y0040543D01*
X0105847Y0040683D01*
X0106076Y0040816D01*
X0106309Y0040945D01*
X0106545Y0041067D01*
X0106784Y0041183D01*
X0107025Y0041294D01*
X0107270Y0041399D01*
X0107516Y0041498D01*
X0107765Y0041590D01*
X0108017Y0041677D01*
X0108270Y0041757D01*
X0108525Y0041831D01*
X0108782Y0041899D01*
X0109041Y0041960D01*
X0109301Y0042015D01*
X0109562Y0042064D01*
X0109824Y0042106D01*
X0110088Y0042142D01*
X0110352Y0042171D01*
X0110617Y0042194D01*
X0110882Y0042210D01*
X0111147Y0042220D01*
X0111413Y0042223D01*
X0111679Y0042220D01*
X0111944Y0042210D01*
X0112209Y0042194D01*
X0112474Y0042171D01*
X0112738Y0042142D01*
X0113002Y0042106D01*
X0113264Y0042064D01*
X0113525Y0042015D01*
X0113785Y0041960D01*
X0114044Y0041899D01*
X0114301Y0041831D01*
X0114556Y0041757D01*
X0114809Y0041677D01*
X0115061Y0041590D01*
X0115310Y0041498D01*
X0115556Y0041399D01*
X0115801Y0041294D01*
X0116042Y0041183D01*
X0116281Y0041067D01*
X0116517Y0040945D01*
X0116750Y0040816D01*
X0116979Y0040683D01*
X0117205Y0040543D01*
X0117428Y0040398D01*
X0117647Y0040248D01*
X0117863Y0040092D01*
X0118074Y0039931D01*
X0118282Y0039765D01*
X0118485Y0039594D01*
X0118684Y0039418D01*
X0118879Y0039237D01*
X0119069Y0039052D01*
X0119254Y0038862D01*
X0119435Y0038667D01*
X0119611Y0038468D01*
X0119782Y0038265D01*
X0119948Y0038057D01*
X0120109Y0037846D01*
X0120265Y0037630D01*
X0120415Y0037411D01*
X0120560Y0037188D01*
X0120700Y0036962D01*
X0120833Y0036733D01*
X0120962Y0036500D01*
X0121084Y0036264D01*
X0121200Y0036025D01*
X0121311Y0035784D01*
X0121416Y0035539D01*
X0121515Y0035293D01*
X0121607Y0035044D01*
X0121694Y0034792D01*
X0121774Y0034539D01*
X0121848Y0034284D01*
X0121916Y0034027D01*
X0121977Y0033768D01*
X0122032Y0033508D01*
X0122081Y0033247D01*
X0122123Y0032985D01*
X0122159Y0032721D01*
X0122188Y0032457D01*
X0122211Y0032192D01*
X0122227Y0031927D01*
X0122237Y0031662D01*
X0122240Y0031396D01*
X0122237Y0031130D01*
X0122227Y0030865D01*
X0122211Y0030600D01*
X0122188Y0030335D01*
X0122159Y0030071D01*
X0122123Y0029807D01*
X0122081Y0029545D01*
X0122032Y0029284D01*
X0121977Y0029024D01*
X0121916Y0028765D01*
X0121848Y0028508D01*
X0121774Y0028253D01*
X0121694Y0028000D01*
X0121607Y0027748D01*
X0121515Y0027499D01*
X0121416Y0027253D01*
X0121311Y0027008D01*
X0121200Y0026767D01*
X0121084Y0026528D01*
X0120962Y0026292D01*
X0120833Y0026059D01*
X0120700Y0025830D01*
X0120560Y0025604D01*
X0120415Y0025381D01*
X0120265Y0025162D01*
X0120109Y0024946D01*
X0119948Y0024735D01*
X0119782Y0024527D01*
X0119611Y0024324D01*
X0119435Y0024125D01*
X0119254Y0023930D01*
X0119069Y0023740D01*
X0118879Y0023555D01*
X0118684Y0023374D01*
X0118485Y0023198D01*
X0118282Y0023027D01*
X0118074Y0022861D01*
X0117863Y0022700D01*
X0117647Y0022544D01*
X0117428Y0022394D01*
X0117205Y0022249D01*
X0116979Y0022109D01*
X0116750Y0021976D01*
X0116517Y0021847D01*
X0116281Y0021725D01*
X0116042Y0021609D01*
X0115801Y0021498D01*
X0115556Y0021393D01*
X0115310Y0021294D01*
X0115061Y0021202D01*
X0114809Y0021115D01*
X0114556Y0021035D01*
X0114301Y0020961D01*
X0114044Y0020893D01*
X0113785Y0020832D01*
X0113525Y0020777D01*
X0113264Y0020728D01*
X0113002Y0020686D01*
X0112738Y0020650D01*
X0112474Y0020621D01*
X0112209Y0020598D01*
X0111944Y0020582D01*
X0111679Y0020572D01*
X0111413Y0020569D01*
X0111147Y0020572D01*
X0110882Y0020582D01*
X0110617Y0020598D01*
X0110352Y0020621D01*
X0110088Y0020650D01*
X0109824Y0020686D01*
X0109562Y0020728D01*
X0109301Y0020777D01*
X0109041Y0020832D01*
X0108782Y0020893D01*
X0108525Y0020961D01*
X0108270Y0021035D01*
X0108017Y0021115D01*
X0107765Y0021202D01*
X0107516Y0021294D01*
X0107270Y0021393D01*
X0107025Y0021498D01*
X0106784Y0021609D01*
X0106545Y0021725D01*
X0106309Y0021847D01*
X0106076Y0021976D01*
X0105847Y0022109D01*
X0105621Y0022249D01*
X0105398Y0022394D01*
X0105179Y0022544D01*
X0104963Y0022700D01*
X0104752Y0022861D01*
X0104544Y0023027D01*
X0104341Y0023198D01*
X0104142Y0023374D01*
X0103947Y0023555D01*
X0103757Y0023740D01*
X0103572Y0023930D01*
X0103391Y0024125D01*
X0103215Y0024324D01*
X0103044Y0024527D01*
X0102878Y0024735D01*
X0102717Y0024946D01*
X0102561Y0025162D01*
X0102411Y0025381D01*
X0102266Y0025604D01*
X0102126Y0025830D01*
X0101993Y0026059D01*
X0101864Y0026292D01*
X0101742Y0026528D01*
X0101626Y0026767D01*
X0101515Y0027008D01*
X0101410Y0027253D01*
X0101311Y0027499D01*
X0101219Y0027748D01*
X0101132Y0028000D01*
X0101052Y0028253D01*
X0100978Y0028508D01*
X0100910Y0028765D01*
X0100849Y0029024D01*
X0100794Y0029284D01*
X0100745Y0029545D01*
X0100703Y0029807D01*
X0100667Y0030071D01*
X0100638Y0030335D01*
X0100615Y0030600D01*
X0100599Y0030865D01*
X0100589Y0031130D01*
X0100586Y0031396D01*
D14*
X0099598Y0013826D02*
X0104869Y0005919D01*
X0104869Y0013826D01*
X0108834Y0011190D02*
X0111470Y0011190D01*
X0112788Y0009873D01*
X0112788Y0005919D01*
X0108834Y0005919D01*
X0107516Y0007237D01*
X0108834Y0008555D01*
X0112788Y0008555D01*
X0115435Y0011190D02*
X0115435Y0005919D01*
X0120706Y0005919D02*
X0120706Y0009873D01*
X0119389Y0011190D01*
X0115435Y0011190D01*
X0123354Y0009873D02*
X0123354Y0007237D01*
X0124672Y0005919D01*
X0127307Y0005919D01*
X0128625Y0007237D01*
X0128625Y0009873D01*
X0127307Y0011190D01*
X0124672Y0011190D01*
X0123354Y0009873D01*
X0131273Y0009873D02*
X0135226Y0009873D01*
X0136544Y0008555D01*
X0136544Y0007237D01*
X0135226Y0005919D01*
X0131273Y0005919D01*
X0131273Y0013826D01*
X0135226Y0013826D01*
X0136544Y0012508D01*
X0136544Y0011190D01*
X0135226Y0009873D01*
X0139191Y0011190D02*
X0139191Y0007237D01*
X0140509Y0005919D01*
X0144463Y0005919D01*
X0144463Y0011190D01*
X0147110Y0009873D02*
X0148428Y0011190D01*
X0152381Y0011190D01*
X0152381Y0013826D02*
X0152381Y0005919D01*
X0148428Y0005919D01*
X0147110Y0007237D01*
X0147110Y0009873D01*
X0099598Y0005919D02*
X0099598Y0013826D01*
X0128118Y0148246D02*
X0132321Y0152450D01*
X0132321Y0153501D01*
X0131270Y0154551D01*
X0129168Y0154551D01*
X0128118Y0153501D01*
X0128118Y0148246D02*
X0132321Y0148246D01*
X0167618Y0148246D02*
X0171821Y0148246D01*
X0169719Y0148246D02*
X0169719Y0154551D01*
X0167618Y0152450D01*
D15*
X0167007Y0143150D02*
X0165506Y0143150D01*
X0164755Y0142399D01*
X0164755Y0139397D01*
X0165506Y0138646D01*
X0167007Y0138646D01*
X0167758Y0139397D01*
X0169359Y0138646D02*
X0169359Y0143150D01*
X0167758Y0142399D02*
X0167007Y0143150D01*
X0169359Y0140898D02*
X0172362Y0140898D01*
X0172362Y0143150D02*
X0172362Y0138646D01*
X0163154Y0143150D02*
X0160151Y0143150D01*
X0161652Y0143150D02*
X0161652Y0138646D01*
X0158583Y0138646D02*
X0157082Y0138646D01*
X0157833Y0138646D02*
X0157833Y0143150D01*
X0158583Y0143150D02*
X0157082Y0143150D01*
X0155481Y0143150D02*
X0155481Y0138646D01*
X0153979Y0140147D01*
X0152478Y0138646D01*
X0152478Y0143150D01*
X0150877Y0142399D02*
X0150126Y0143150D01*
X0148625Y0143150D01*
X0147874Y0142399D01*
X0147874Y0141649D01*
X0148625Y0140898D01*
X0150126Y0140898D01*
X0150877Y0140147D01*
X0150877Y0139397D01*
X0150126Y0138646D01*
X0148625Y0138646D01*
X0147874Y0139397D01*
X0125586Y0118837D02*
X0177555Y0118837D01*
X0177555Y0070018D01*
X0125586Y0070018D01*
X0125586Y0118837D01*
X0139760Y0094428D02*
X0139764Y0094718D01*
X0139774Y0095008D01*
X0139792Y0095297D01*
X0139817Y0095586D01*
X0139849Y0095874D01*
X0139888Y0096161D01*
X0139934Y0096447D01*
X0139987Y0096732D01*
X0140047Y0097016D01*
X0140114Y0097298D01*
X0140188Y0097578D01*
X0140269Y0097857D01*
X0140356Y0098133D01*
X0140450Y0098407D01*
X0140551Y0098679D01*
X0140659Y0098948D01*
X0140773Y0099214D01*
X0140894Y0099478D01*
X0141021Y0099738D01*
X0141155Y0099996D01*
X0141294Y0100250D01*
X0141440Y0100500D01*
X0141592Y0100747D01*
X0141751Y0100990D01*
X0141915Y0101229D01*
X0142084Y0101464D01*
X0142260Y0101695D01*
X0142441Y0101921D01*
X0142628Y0102143D01*
X0142820Y0102360D01*
X0143017Y0102572D01*
X0143219Y0102780D01*
X0143427Y0102982D01*
X0143639Y0103179D01*
X0143856Y0103371D01*
X0144078Y0103558D01*
X0144304Y0103739D01*
X0144535Y0103915D01*
X0144770Y0104084D01*
X0145009Y0104248D01*
X0145252Y0104407D01*
X0145499Y0104559D01*
X0145749Y0104705D01*
X0146003Y0104844D01*
X0146261Y0104978D01*
X0146521Y0105105D01*
X0146785Y0105226D01*
X0147051Y0105340D01*
X0147320Y0105448D01*
X0147592Y0105549D01*
X0147866Y0105643D01*
X0148142Y0105730D01*
X0148421Y0105811D01*
X0148701Y0105885D01*
X0148983Y0105952D01*
X0149267Y0106012D01*
X0149552Y0106065D01*
X0149838Y0106111D01*
X0150125Y0106150D01*
X0150413Y0106182D01*
X0150702Y0106207D01*
X0150991Y0106225D01*
X0151281Y0106235D01*
X0151571Y0106239D01*
X0151861Y0106235D01*
X0152151Y0106225D01*
X0152440Y0106207D01*
X0152729Y0106182D01*
X0153017Y0106150D01*
X0153304Y0106111D01*
X0153590Y0106065D01*
X0153875Y0106012D01*
X0154159Y0105952D01*
X0154441Y0105885D01*
X0154721Y0105811D01*
X0155000Y0105730D01*
X0155276Y0105643D01*
X0155550Y0105549D01*
X0155822Y0105448D01*
X0156091Y0105340D01*
X0156357Y0105226D01*
X0156621Y0105105D01*
X0156881Y0104978D01*
X0157139Y0104844D01*
X0157393Y0104705D01*
X0157643Y0104559D01*
X0157890Y0104407D01*
X0158133Y0104248D01*
X0158372Y0104084D01*
X0158607Y0103915D01*
X0158838Y0103739D01*
X0159064Y0103558D01*
X0159286Y0103371D01*
X0159503Y0103179D01*
X0159715Y0102982D01*
X0159923Y0102780D01*
X0160125Y0102572D01*
X0160322Y0102360D01*
X0160514Y0102143D01*
X0160701Y0101921D01*
X0160882Y0101695D01*
X0161058Y0101464D01*
X0161227Y0101229D01*
X0161391Y0100990D01*
X0161550Y0100747D01*
X0161702Y0100500D01*
X0161848Y0100250D01*
X0161987Y0099996D01*
X0162121Y0099738D01*
X0162248Y0099478D01*
X0162369Y0099214D01*
X0162483Y0098948D01*
X0162591Y0098679D01*
X0162692Y0098407D01*
X0162786Y0098133D01*
X0162873Y0097857D01*
X0162954Y0097578D01*
X0163028Y0097298D01*
X0163095Y0097016D01*
X0163155Y0096732D01*
X0163208Y0096447D01*
X0163254Y0096161D01*
X0163293Y0095874D01*
X0163325Y0095586D01*
X0163350Y0095297D01*
X0163368Y0095008D01*
X0163378Y0094718D01*
X0163382Y0094428D01*
X0163378Y0094138D01*
X0163368Y0093848D01*
X0163350Y0093559D01*
X0163325Y0093270D01*
X0163293Y0092982D01*
X0163254Y0092695D01*
X0163208Y0092409D01*
X0163155Y0092124D01*
X0163095Y0091840D01*
X0163028Y0091558D01*
X0162954Y0091278D01*
X0162873Y0090999D01*
X0162786Y0090723D01*
X0162692Y0090449D01*
X0162591Y0090177D01*
X0162483Y0089908D01*
X0162369Y0089642D01*
X0162248Y0089378D01*
X0162121Y0089118D01*
X0161987Y0088860D01*
X0161848Y0088606D01*
X0161702Y0088356D01*
X0161550Y0088109D01*
X0161391Y0087866D01*
X0161227Y0087627D01*
X0161058Y0087392D01*
X0160882Y0087161D01*
X0160701Y0086935D01*
X0160514Y0086713D01*
X0160322Y0086496D01*
X0160125Y0086284D01*
X0159923Y0086076D01*
X0159715Y0085874D01*
X0159503Y0085677D01*
X0159286Y0085485D01*
X0159064Y0085298D01*
X0158838Y0085117D01*
X0158607Y0084941D01*
X0158372Y0084772D01*
X0158133Y0084608D01*
X0157890Y0084449D01*
X0157643Y0084297D01*
X0157393Y0084151D01*
X0157139Y0084012D01*
X0156881Y0083878D01*
X0156621Y0083751D01*
X0156357Y0083630D01*
X0156091Y0083516D01*
X0155822Y0083408D01*
X0155550Y0083307D01*
X0155276Y0083213D01*
X0155000Y0083126D01*
X0154721Y0083045D01*
X0154441Y0082971D01*
X0154159Y0082904D01*
X0153875Y0082844D01*
X0153590Y0082791D01*
X0153304Y0082745D01*
X0153017Y0082706D01*
X0152729Y0082674D01*
X0152440Y0082649D01*
X0152151Y0082631D01*
X0151861Y0082621D01*
X0151571Y0082617D01*
X0151281Y0082621D01*
X0150991Y0082631D01*
X0150702Y0082649D01*
X0150413Y0082674D01*
X0150125Y0082706D01*
X0149838Y0082745D01*
X0149552Y0082791D01*
X0149267Y0082844D01*
X0148983Y0082904D01*
X0148701Y0082971D01*
X0148421Y0083045D01*
X0148142Y0083126D01*
X0147866Y0083213D01*
X0147592Y0083307D01*
X0147320Y0083408D01*
X0147051Y0083516D01*
X0146785Y0083630D01*
X0146521Y0083751D01*
X0146261Y0083878D01*
X0146003Y0084012D01*
X0145749Y0084151D01*
X0145499Y0084297D01*
X0145252Y0084449D01*
X0145009Y0084608D01*
X0144770Y0084772D01*
X0144535Y0084941D01*
X0144304Y0085117D01*
X0144078Y0085298D01*
X0143856Y0085485D01*
X0143639Y0085677D01*
X0143427Y0085874D01*
X0143219Y0086076D01*
X0143017Y0086284D01*
X0142820Y0086496D01*
X0142628Y0086713D01*
X0142441Y0086935D01*
X0142260Y0087161D01*
X0142084Y0087392D01*
X0141915Y0087627D01*
X0141751Y0087866D01*
X0141592Y0088109D01*
X0141440Y0088356D01*
X0141294Y0088606D01*
X0141155Y0088860D01*
X0141021Y0089118D01*
X0140894Y0089378D01*
X0140773Y0089642D01*
X0140659Y0089908D01*
X0140551Y0090177D01*
X0140450Y0090449D01*
X0140356Y0090723D01*
X0140269Y0090999D01*
X0140188Y0091278D01*
X0140114Y0091558D01*
X0140047Y0091840D01*
X0139987Y0092124D01*
X0139934Y0092409D01*
X0139888Y0092695D01*
X0139849Y0092982D01*
X0139817Y0093270D01*
X0139792Y0093559D01*
X0139774Y0093848D01*
X0139764Y0094138D01*
X0139760Y0094428D01*
X0157476Y0104664D02*
X0157476Y0084191D01*
X0157132Y0048181D02*
X0159383Y0048181D01*
X0160134Y0047431D01*
X0160134Y0046680D01*
X0159383Y0045929D01*
X0157132Y0045929D01*
X0159383Y0045929D02*
X0160134Y0045179D01*
X0160134Y0044428D01*
X0159383Y0043678D01*
X0157132Y0043678D01*
X0157132Y0048181D01*
X0161735Y0048181D02*
X0161735Y0044428D01*
X0162486Y0043678D01*
X0163987Y0043678D01*
X0164738Y0044428D01*
X0164738Y0048181D01*
X0166339Y0048181D02*
X0169342Y0048181D01*
X0169342Y0047431D01*
X0166339Y0044428D01*
X0166339Y0043678D01*
X0169342Y0043678D01*
X0170943Y0043678D02*
X0173946Y0043678D01*
X0175547Y0043678D02*
X0178550Y0043678D01*
X0180151Y0043678D02*
X0180151Y0048181D01*
X0182403Y0048181D01*
X0183154Y0047431D01*
X0183154Y0045929D01*
X0182403Y0045179D01*
X0180151Y0045179D01*
X0181652Y0045179D02*
X0183154Y0043678D01*
X0178550Y0048181D02*
X0175547Y0048181D01*
X0175547Y0043678D01*
X0175547Y0045929D02*
X0177049Y0045929D01*
X0173946Y0047431D02*
X0170943Y0044428D01*
X0170943Y0043678D01*
X0170943Y0048181D02*
X0173946Y0048181D01*
X0173946Y0047431D01*
X0013663Y0062146D02*
X0013663Y0065149D01*
X0013663Y0063647D02*
X0009159Y0063647D01*
X0010660Y0062146D01*
X0011411Y0107646D02*
X0011411Y0110649D01*
X0009159Y0109898D02*
X0011411Y0107646D01*
X0013663Y0109898D02*
X0009159Y0109898D01*
D16*
X0130079Y0047559D02*
X0131246Y0046392D01*
X0130662Y0045136D02*
X0131830Y0045136D01*
X0132414Y0044552D01*
X0132414Y0042801D01*
X0132414Y0043968D02*
X0133582Y0045136D01*
X0133582Y0046392D02*
X0133582Y0048727D01*
X0133582Y0047559D02*
X0130079Y0047559D01*
X0130662Y0045136D02*
X0130079Y0044552D01*
X0130079Y0042801D01*
X0133582Y0042801D01*
X0167200Y0077242D02*
X0171804Y0077242D01*
X0171804Y0080312D01*
X0171804Y0081846D02*
X0167200Y0081846D01*
X0171804Y0084916D01*
X0167200Y0084916D01*
X0167967Y0086450D02*
X0171036Y0086450D01*
X0171804Y0087218D01*
X0171804Y0088752D01*
X0171036Y0089520D01*
X0171036Y0091054D02*
X0171804Y0091822D01*
X0171804Y0093356D01*
X0171036Y0094124D01*
X0167967Y0094124D01*
X0167200Y0093356D01*
X0167200Y0091822D01*
X0167967Y0091054D01*
X0171036Y0091054D01*
X0167967Y0089520D02*
X0167200Y0088752D01*
X0167200Y0087218D01*
X0167967Y0086450D01*
X0167200Y0080312D02*
X0167200Y0077242D01*
X0169502Y0077242D02*
X0169502Y0078777D01*
X0167200Y0095658D02*
X0171804Y0095658D01*
X0171804Y0097960D01*
X0171036Y0098727D01*
X0167967Y0098727D01*
X0167200Y0097960D01*
X0167200Y0095658D01*
X0167200Y0100262D02*
X0171804Y0100262D01*
X0171804Y0103331D01*
X0171804Y0104866D02*
X0167200Y0104866D01*
X0167200Y0107168D01*
X0167967Y0107935D01*
X0169502Y0107935D01*
X0170269Y0107168D01*
X0170269Y0104866D01*
X0170269Y0106401D02*
X0171804Y0107935D01*
X0167200Y0103331D02*
X0167200Y0100262D01*
X0169502Y0100262D02*
X0169502Y0101797D01*
D17*
X0152913Y0025396D02*
X0152913Y0020396D01*
X0155413Y0022896D02*
X0150413Y0022896D01*
D18*
X0131913Y0034489D03*
X0131913Y0055989D03*
M02*
