%
M48
M72
T01C0.01378
T02C0.01575
T03C0.03200
T04C0.03937
T05C0.04000
T06C0.08661
T07C0.21654
%
T01
X63106Y120759
X63239Y142412
X59563Y304538
X59696Y326192
X56059Y488239
X56192Y509893
X270365Y509893
X270232Y488239
X273869Y326192
X273736Y304538
X277412Y142412
X277279Y120759
X491610Y120759
X491743Y142412
X491452Y304538
X491585Y326192
X487948Y488239
X488081Y509893
T02
X5050Y34735
X7412Y34735
X9774Y34735
X12137Y34656
X14499Y34656
X16861Y34656
X19223Y34656
X21585Y34656
X23948Y34656
X26310Y34656
X36192Y26310
X36192Y23948
X36192Y21585
X36113Y19223
X36113Y16861
X36113Y14499
X36113Y12137
X36113Y9774
X36113Y7412
X36113Y5050
X137570Y33436
X139932Y33436
X142294Y33436
X144656Y33436
X147019Y33436
X149381Y33436
X151743Y33436
X250522Y117255
X250522Y119617
X250522Y121979
X250522Y124341
X250522Y126704
X250522Y129066
X250522Y131428
X347491Y217215
X349853Y217215
X352215Y217215
X354578Y217215
X356940Y217215
X359302Y217215
X361664Y217215
X463121Y300995
X463121Y303357
X463121Y305719
X463121Y308081
X463121Y310444
X463121Y312806
X463121Y315168
X561664Y400995
X564026Y400995
X566389Y400995
X568751Y400995
X571113Y400995
X573475Y400995
X575837Y400995
X675365Y484774
X675365Y487137
X675365Y489499
X675365Y491861
X675365Y494223
X675365Y496585
X675365Y498948
X685995Y583751
X688357Y583672
X690719Y583672
X693081Y583672
X695444Y583672
X697806Y583672
X700168Y583672
X702530Y583672
X675798Y592333
X675798Y594696
X675798Y597058
X675798Y599420
X675798Y601782
X675798Y604144
X675798Y606507
X675877Y608869
X675877Y611231
X675877Y613593
X572137Y585247
X569774Y585247
X567412Y585247
X565050Y585247
X562688Y585247
X560326Y585247
X557963Y585247
X458711Y498830
X458711Y496467
X458711Y494105
X458711Y491743
X458711Y489381
X458711Y487019
X458711Y484656
X358121Y401389
X355759Y401389
X353396Y401389
X351034Y401389
X348672Y401389
X346310Y401389
X343948Y401389
X246979Y315207
X246979Y312845
X246979Y310483
X246979Y308121
X246979Y305759
X246979Y303396
X246979Y301034
X147491Y217609
X145129Y217609
X142767Y217609
X140404Y217609
X138042Y217609
X135680Y217609
X133318Y217609
X36152Y132333
X36152Y129971
X36152Y127609
X36152Y125247
X36152Y122885
X36152Y120522
X36152Y118160
X32609Y301861
X32609Y304223
X32609Y306585
X32609Y308948
X32609Y311310
X32609Y313672
X32609Y316034
X129774Y401389
X132137Y401389
X134499Y401389
X136861Y401389
X139223Y401389
X141585Y401389
X143948Y401389
X243475Y484735
X243475Y487097
X243475Y489459
X243475Y491822
X243475Y494184
X243475Y496546
X243475Y498908
X340404Y585247
X342767Y585247
X345129Y585247
X347491Y585247
X349853Y585247
X352215Y585247
X354578Y585247
X140404Y585247
X138042Y585247
X135680Y585247
X133318Y585247
X130956Y585247
X128593Y585247
X126231Y585247
X29656Y592491
X29656Y594853
X29656Y597215
X29656Y599578
X29656Y601940
X29656Y604302
X29656Y606664
X29735Y609026
X29735Y611389
X29735Y613751
X22019Y585168
X19656Y585168
X17294Y585168
X14932Y585168
X12570Y585168
X10207Y585168
X7845Y585168
X5483Y585247
X29066Y499656
X29066Y497294
X29066Y494932
X29066Y492570
X29066Y490207
X29066Y487845
X29066Y485483
X464853Y131428
X464853Y129066
X464853Y126704
X464853Y124341
X464853Y121979
X464853Y119617
X464853Y117255
X365483Y33357
X363121Y33357
X360759Y33357
X358396Y33357
X356034Y33357
X353672Y33357
X351310Y33357
X565601Y33318
X567963Y33318
X570326Y33318
X572688Y33318
X575050Y33318
X577412Y33318
X579774Y33318
X678633Y26743
X678633Y24381
X678633Y22019
X678554Y19656
X678554Y17294
X678554Y14932
X678554Y12570
X678554Y10207
X678554Y7845
X678554Y5483
X686152Y33672
X688515Y33593
X690877Y33593
X693239Y33593
X695601Y33593
X697963Y33593
X700326Y33593
X702688Y33593
X679144Y117373
X679144Y119735
X679144Y122097
X679144Y124459
X679144Y126822
X679144Y129184
X679144Y131546
X579381Y217215
X577019Y217215
X574656Y217215
X572294Y217215
X569932Y217215
X567570Y217215
X565207Y217215
X678987Y301074
X678987Y303436
X678987Y305798
X678987Y308160
X678987Y310522
X678987Y312885
X678987Y315247
T03
X631504Y374381
X621504Y374381
X611504Y374381
X598700Y436924
X598700Y466924
X608000Y558081
X618000Y558081
X628000Y558081
X413787Y374381
X403787Y374381
X393787Y374381
X380983Y436924
X380983Y466924
X390283Y558081
X400283Y558081
X410283Y558081
X196110Y558081
X186110Y558081
X176110Y558081
X166810Y466924
X166810Y436924
X179614Y374381
X189614Y374381
X199614Y374381
X170314Y283223
X170314Y253223
X183157Y190601
X193157Y190601
X203157Y190601
X173857Y99444
X173857Y69444
X388030Y69444
X388030Y99444
X397330Y190601
X407330Y190601
X417330Y190601
X384487Y253223
X384487Y283223
X602204Y283223
X602204Y253223
X611661Y190601
X621661Y190601
X631661Y190601
X602361Y99444
X602361Y69444
T04
X592491Y123790
X592491Y133633
X592491Y143475
X649578Y143475
X649578Y123790
X649420Y307570
X649420Y327255
X592333Y327255
X592333Y317412
X592333Y307570
X431704Y307570
X431704Y327255
X374617Y327255
X374617Y317412
X374617Y307570
X217530Y307570
X217530Y327255
X160444Y327255
X160444Y317412
X160444Y307570
X163987Y143475
X163987Y133633
X163987Y123790
X221074Y123790
X221074Y143475
X378160Y143475
X378160Y133633
X378160Y123790
X435247Y123790
X435247Y143475
X428200Y491270
X428200Y510956
X371113Y510956
X371113Y501113
X371113Y491270
X214026Y491270
X214026Y510956
X156940Y510956
X156940Y501113
X156940Y491270
X588830Y491270
X588830Y501113
X588830Y510956
X645916Y510956
X645916Y491270
T05
X649700Y441581
X619700Y441581
X557255Y443081
X557255Y433081
X557255Y423081
X557255Y453081
X557255Y463081
X557255Y473081
X557255Y483081
X557255Y493081
X557255Y503081
X557255Y513081
X557255Y523081
X557255Y533081
X557255Y543081
X557255Y553081
X557255Y563081
X499144Y563081
X499144Y553081
X499144Y543081
X499144Y533081
X499144Y523081
X499144Y513081
X499144Y503081
X499144Y493081
X499144Y483081
X499144Y473081
X499144Y463081
X499144Y453081
X499144Y443081
X499144Y433081
X499144Y423081
X502648Y379381
X502648Y369381
X502648Y359381
X502648Y349381
X502648Y339381
X502648Y329381
X502648Y319381
X502648Y309381
X502648Y299381
X502648Y289381
X502648Y279381
X502648Y269381
X502648Y259381
X502648Y249381
X502648Y239381
X502806Y195601
X502806Y185601
X502806Y175601
X502806Y165601
X502806Y155601
X502806Y145601
X502806Y135601
X502806Y125601
X502806Y115601
X502806Y105601
X502806Y95601
X502806Y85601
X502806Y75601
X502806Y65601
X502806Y55601
X560916Y55601
X560916Y65601
X560916Y75601
X560916Y85601
X560916Y95601
X560916Y105601
X560916Y115601
X560916Y125601
X560916Y135601
X560916Y145601
X560916Y155601
X560916Y165601
X560916Y175601
X560916Y185601
X560916Y195601
X560759Y239381
X560759Y249381
X560759Y259381
X560759Y269381
X560759Y279381
X560759Y289381
X560759Y299381
X560759Y309381
X560759Y319381
X560759Y329381
X560759Y339381
X560759Y349381
X560759Y359381
X560759Y369381
X560759Y379381
X481704Y324381
X481704Y314381
X481704Y304381
X481704Y294381
X435487Y257881
X405487Y257881
X343042Y259381
X343042Y249381
X343042Y239381
X343042Y269381
X343042Y279381
X343042Y289381
X343042Y299381
X343042Y309381
X343042Y319381
X343042Y329381
X343042Y339381
X343042Y349381
X343042Y359381
X343042Y369381
X343042Y379381
X339538Y423081
X339538Y433081
X339538Y443081
X339538Y453081
X339538Y463081
X339538Y473081
X339538Y483081
X339538Y493081
X339538Y503081
X339538Y513081
X339538Y523081
X339538Y533081
X339538Y543081
X339538Y553081
X339538Y563081
X281428Y563081
X281428Y553081
X281428Y543081
X281428Y533081
X281428Y523081
X281428Y513081
X281428Y503081
X281428Y493081
X281428Y483081
X281428Y473081
X281428Y463081
X281428Y453081
X281428Y443081
X281428Y433081
X281428Y423081
X284932Y379381
X284932Y369381
X284932Y359381
X284932Y349381
X284932Y339381
X284932Y329381
X284932Y319381
X284932Y309381
X284932Y299381
X284932Y289381
X284932Y279381
X284932Y269381
X284932Y259381
X284932Y249381
X284932Y239381
X288475Y195601
X288475Y185601
X288475Y175601
X288475Y165601
X288475Y155601
X288475Y145601
X288475Y135601
X288475Y125601
X288475Y115601
X288475Y105601
X288475Y95601
X288475Y85601
X288475Y75601
X288475Y65601
X288475Y55601
X346585Y55601
X346585Y65601
X346585Y75601
X346585Y85601
X346585Y95601
X346585Y105601
X346585Y115601
X346585Y125601
X346585Y135601
X346585Y145601
X346585Y155601
X346585Y165601
X346585Y175601
X346585Y185601
X346585Y195601
X267530Y140601
X267530Y130601
X267530Y120601
X267530Y110601
X224857Y74101
X194857Y74101
X132412Y75601
X132412Y85601
X132412Y95601
X132412Y105601
X132412Y115601
X132412Y125601
X132412Y135601
X132412Y145601
X132412Y155601
X132412Y165601
X132412Y175601
X132412Y185601
X132412Y195601
X128869Y239381
X128869Y249381
X128869Y259381
X128869Y269381
X128869Y279381
X128869Y289381
X128869Y299381
X128869Y309381
X128869Y319381
X128869Y329381
X128869Y339381
X128869Y349381
X128869Y359381
X128869Y369381
X128869Y379381
X125365Y423081
X125365Y433081
X125365Y443081
X125365Y453081
X125365Y463081
X125365Y473081
X125365Y483081
X125365Y493081
X125365Y503081
X125365Y513081
X125365Y523081
X125365Y533081
X125365Y543081
X125365Y553081
X125365Y563081
X67255Y563081
X67255Y553081
X67255Y543081
X67255Y533081
X67255Y523081
X67255Y513081
X67255Y503081
X67255Y493081
X67255Y483081
X67255Y473081
X67255Y463081
X67255Y453081
X67255Y443081
X67255Y433081
X67255Y423081
X70759Y379381
X70759Y369381
X70759Y359381
X70759Y349381
X70759Y339381
X70759Y329381
X70759Y319381
X70759Y309381
X70759Y299381
X70759Y289381
X70759Y279381
X70759Y269381
X70759Y259381
X70759Y249381
X70759Y239381
X74302Y195601
X74302Y185601
X74302Y175601
X74302Y165601
X74302Y155601
X74302Y145601
X74302Y135601
X74302Y125601
X74302Y115601
X74302Y105601
X74302Y95601
X74302Y85601
X74302Y75601
X74302Y65601
X74302Y55601
X132412Y55601
X132412Y65601
X53357Y110601
X53357Y120601
X53357Y130601
X53357Y140601
X191314Y257881
X221314Y257881
X263987Y294381
X263987Y304381
X263987Y314381
X263987Y324381
X225614Y359281
X225614Y369281
X217810Y441581
X187810Y441581
X260483Y478081
X260483Y488081
X260483Y498081
X260483Y508081
X222110Y542981
X222110Y552981
X46310Y508081
X46310Y498081
X46310Y488081
X46310Y478081
X49814Y324381
X49814Y314381
X49814Y304381
X49814Y294381
X229157Y185501
X229157Y175501
X409030Y74101
X439030Y74101
X481861Y110601
X481861Y120601
X481861Y130601
X481861Y140601
X443330Y175501
X443330Y185501
X623204Y257881
X653204Y257881
X657661Y185501
X657661Y175501
X653361Y74101
X623361Y74101
X657504Y359281
X657504Y369281
X478200Y478081
X478200Y488081
X478200Y498081
X478200Y508081
X436283Y542981
X436283Y552981
X431983Y441581
X401983Y441581
X439787Y369281
X439787Y359281
X654000Y542981
X654000Y552981
T06
X618357Y525129
X618357Y477097
X621861Y341428
X621861Y293396
X622019Y157648
X622019Y109617
X407688Y109617
X407688Y157648
X404144Y293396
X404144Y341428
X400641Y477097
X400641Y525129
X186467Y525129
X186467Y477097
X189971Y341428
X189971Y293396
X193515Y157648
X193515Y109617
T07
X153357Y70601
X153357Y181625
X149814Y254381
X149814Y365404
X146310Y438081
X146310Y549105
X360483Y549105
X360483Y438081
X363987Y365404
X363987Y254381
X367530Y181625
X367530Y70601
X581861Y70601
X581861Y181625
X581704Y254381
X581704Y365404
X578200Y438081
X578200Y549105
M30
