G75*
%MOIN*%
%OFA0B0*%
%FSLAX25Y25*%
%IPPOS*%
%LPD*%
%AMOC8*
5,1,8,0,0,1.08239X$1,22.5*
%
%ADD10C,0.06000*%
%ADD11R,0.05937X0.05937*%
%ADD12R,0.12661X0.12661*%
%ADD13C,0.05200*%
%ADD14OC8,0.10000*%
%ADD15OC8,0.05200*%
%ADD16C,0.01600*%
%ADD17C,0.00600*%
%ADD18C,0.02978*%
D10*
X0071302Y0055601D02*
X0077302Y0055601D01*
X0077302Y0065601D02*
X0071302Y0065601D01*
X0071302Y0075601D02*
X0077302Y0075601D01*
X0077302Y0085601D02*
X0071302Y0085601D01*
X0071302Y0095601D02*
X0077302Y0095601D01*
X0077302Y0105601D02*
X0071302Y0105601D01*
X0071302Y0115601D02*
X0077302Y0115601D01*
X0077302Y0125601D02*
X0071302Y0125601D01*
X0071302Y0135601D02*
X0077302Y0135601D01*
X0077302Y0145601D02*
X0071302Y0145601D01*
X0071302Y0155601D02*
X0077302Y0155601D01*
X0077302Y0165601D02*
X0071302Y0165601D01*
X0071302Y0175601D02*
X0077302Y0175601D01*
X0077302Y0185601D02*
X0071302Y0185601D01*
X0071302Y0195601D02*
X0077302Y0195601D01*
X0073759Y0239381D02*
X0067759Y0239381D01*
X0067759Y0249381D02*
X0073759Y0249381D01*
X0073759Y0259381D02*
X0067759Y0259381D01*
X0067759Y0269381D02*
X0073759Y0269381D01*
X0073759Y0279381D02*
X0067759Y0279381D01*
X0067759Y0289381D02*
X0073759Y0289381D01*
X0073759Y0299381D02*
X0067759Y0299381D01*
X0067759Y0309381D02*
X0073759Y0309381D01*
X0073759Y0319381D02*
X0067759Y0319381D01*
X0067759Y0329381D02*
X0073759Y0329381D01*
X0073759Y0339381D02*
X0067759Y0339381D01*
X0067759Y0349381D02*
X0073759Y0349381D01*
X0073759Y0359381D02*
X0067759Y0359381D01*
X0067759Y0369381D02*
X0073759Y0369381D01*
X0073759Y0379381D02*
X0067759Y0379381D01*
X0070255Y0423081D02*
X0064255Y0423081D01*
X0064255Y0433081D02*
X0070255Y0433081D01*
X0070255Y0443081D02*
X0064255Y0443081D01*
X0064255Y0453081D02*
X0070255Y0453081D01*
X0070255Y0463081D02*
X0064255Y0463081D01*
X0064255Y0473081D02*
X0070255Y0473081D01*
X0070255Y0483081D02*
X0064255Y0483081D01*
X0064255Y0493081D02*
X0070255Y0493081D01*
X0070255Y0503081D02*
X0064255Y0503081D01*
X0064255Y0513081D02*
X0070255Y0513081D01*
X0070255Y0523081D02*
X0064255Y0523081D01*
X0064255Y0533081D02*
X0070255Y0533081D01*
X0070255Y0543081D02*
X0064255Y0543081D01*
X0064255Y0553081D02*
X0070255Y0553081D01*
X0070255Y0563081D02*
X0064255Y0563081D01*
X0049310Y0508081D02*
X0043310Y0508081D01*
X0043310Y0498081D02*
X0049310Y0498081D01*
X0049310Y0488081D02*
X0043310Y0488081D01*
X0043310Y0478081D02*
X0049310Y0478081D01*
X0122365Y0473081D02*
X0128365Y0473081D01*
X0128365Y0463081D02*
X0122365Y0463081D01*
X0122365Y0453081D02*
X0128365Y0453081D01*
X0128365Y0443081D02*
X0122365Y0443081D01*
X0122365Y0433081D02*
X0128365Y0433081D01*
X0128365Y0423081D02*
X0122365Y0423081D01*
X0125869Y0379381D02*
X0131869Y0379381D01*
X0131869Y0369381D02*
X0125869Y0369381D01*
X0125869Y0359381D02*
X0131869Y0359381D01*
X0131869Y0349381D02*
X0125869Y0349381D01*
X0125869Y0339381D02*
X0131869Y0339381D01*
X0131869Y0329381D02*
X0125869Y0329381D01*
X0125869Y0319381D02*
X0131869Y0319381D01*
X0131869Y0309381D02*
X0125869Y0309381D01*
X0125869Y0299381D02*
X0131869Y0299381D01*
X0131869Y0289381D02*
X0125869Y0289381D01*
X0125869Y0279381D02*
X0131869Y0279381D01*
X0131869Y0269381D02*
X0125869Y0269381D01*
X0125869Y0259381D02*
X0131869Y0259381D01*
X0131869Y0249381D02*
X0125869Y0249381D01*
X0125869Y0239381D02*
X0131869Y0239381D01*
X0129412Y0195601D02*
X0135412Y0195601D01*
X0135412Y0185601D02*
X0129412Y0185601D01*
X0129412Y0175601D02*
X0135412Y0175601D01*
X0135412Y0165601D02*
X0129412Y0165601D01*
X0129412Y0155601D02*
X0135412Y0155601D01*
X0135412Y0145601D02*
X0129412Y0145601D01*
X0129412Y0135601D02*
X0135412Y0135601D01*
X0135412Y0125601D02*
X0129412Y0125601D01*
X0129412Y0115601D02*
X0135412Y0115601D01*
X0135412Y0105601D02*
X0129412Y0105601D01*
X0129412Y0095601D02*
X0135412Y0095601D01*
X0135412Y0085601D02*
X0129412Y0085601D01*
X0129412Y0075601D02*
X0135412Y0075601D01*
X0135412Y0065601D02*
X0129412Y0065601D01*
X0129412Y0055601D02*
X0135412Y0055601D01*
X0056357Y0110601D02*
X0050357Y0110601D01*
X0050357Y0120601D02*
X0056357Y0120601D01*
X0056357Y0130601D02*
X0050357Y0130601D01*
X0050357Y0140601D02*
X0056357Y0140601D01*
X0226157Y0175501D02*
X0232157Y0175501D01*
X0232157Y0185501D02*
X0226157Y0185501D01*
X0264530Y0140601D02*
X0270530Y0140601D01*
X0270530Y0130601D02*
X0264530Y0130601D01*
X0264530Y0120601D02*
X0270530Y0120601D01*
X0270530Y0110601D02*
X0264530Y0110601D01*
X0285475Y0105601D02*
X0291475Y0105601D01*
X0291475Y0115601D02*
X0285475Y0115601D01*
X0285475Y0125601D02*
X0291475Y0125601D01*
X0291475Y0135601D02*
X0285475Y0135601D01*
X0285475Y0145601D02*
X0291475Y0145601D01*
X0291475Y0155601D02*
X0285475Y0155601D01*
X0285475Y0165601D02*
X0291475Y0165601D01*
X0291475Y0175601D02*
X0285475Y0175601D01*
X0285475Y0185601D02*
X0291475Y0185601D01*
X0291475Y0195601D02*
X0285475Y0195601D01*
X0287932Y0239381D02*
X0281932Y0239381D01*
X0281932Y0249381D02*
X0287932Y0249381D01*
X0287932Y0259381D02*
X0281932Y0259381D01*
X0281932Y0269381D02*
X0287932Y0269381D01*
X0287932Y0279381D02*
X0281932Y0279381D01*
X0281932Y0289381D02*
X0287932Y0289381D01*
X0287932Y0299381D02*
X0281932Y0299381D01*
X0281932Y0309381D02*
X0287932Y0309381D01*
X0287932Y0319381D02*
X0281932Y0319381D01*
X0281932Y0329381D02*
X0287932Y0329381D01*
X0287932Y0339381D02*
X0281932Y0339381D01*
X0281932Y0349381D02*
X0287932Y0349381D01*
X0287932Y0359381D02*
X0281932Y0359381D01*
X0281932Y0369381D02*
X0287932Y0369381D01*
X0287932Y0379381D02*
X0281932Y0379381D01*
X0284428Y0423081D02*
X0278428Y0423081D01*
X0278428Y0433081D02*
X0284428Y0433081D01*
X0284428Y0443081D02*
X0278428Y0443081D01*
X0278428Y0453081D02*
X0284428Y0453081D01*
X0284428Y0463081D02*
X0278428Y0463081D01*
X0278428Y0473081D02*
X0284428Y0473081D01*
X0284428Y0483081D02*
X0278428Y0483081D01*
X0278428Y0493081D02*
X0284428Y0493081D01*
X0284428Y0503081D02*
X0278428Y0503081D01*
X0278428Y0513081D02*
X0284428Y0513081D01*
X0284428Y0523081D02*
X0278428Y0523081D01*
X0278428Y0533081D02*
X0284428Y0533081D01*
X0284428Y0543081D02*
X0278428Y0543081D01*
X0278428Y0553081D02*
X0284428Y0553081D01*
X0284428Y0563081D02*
X0278428Y0563081D01*
X0225110Y0552981D02*
X0219110Y0552981D01*
X0219110Y0542981D02*
X0225110Y0542981D01*
X0257483Y0508081D02*
X0263483Y0508081D01*
X0263483Y0498081D02*
X0257483Y0498081D01*
X0257483Y0488081D02*
X0263483Y0488081D01*
X0263483Y0478081D02*
X0257483Y0478081D01*
X0336538Y0473081D02*
X0342538Y0473081D01*
X0342538Y0463081D02*
X0336538Y0463081D01*
X0336538Y0453081D02*
X0342538Y0453081D01*
X0342538Y0443081D02*
X0336538Y0443081D01*
X0336538Y0433081D02*
X0342538Y0433081D01*
X0342538Y0423081D02*
X0336538Y0423081D01*
X0340042Y0379381D02*
X0346042Y0379381D01*
X0346042Y0369381D02*
X0340042Y0369381D01*
X0340042Y0359381D02*
X0346042Y0359381D01*
X0346042Y0349381D02*
X0340042Y0349381D01*
X0340042Y0339381D02*
X0346042Y0339381D01*
X0346042Y0329381D02*
X0340042Y0329381D01*
X0340042Y0319381D02*
X0346042Y0319381D01*
X0346042Y0309381D02*
X0340042Y0309381D01*
X0340042Y0299381D02*
X0346042Y0299381D01*
X0346042Y0289381D02*
X0340042Y0289381D01*
X0340042Y0279381D02*
X0346042Y0279381D01*
X0346042Y0269381D02*
X0340042Y0269381D01*
X0340042Y0259381D02*
X0346042Y0259381D01*
X0346042Y0249381D02*
X0340042Y0249381D01*
X0340042Y0239381D02*
X0346042Y0239381D01*
X0343585Y0195601D02*
X0349585Y0195601D01*
X0349585Y0185601D02*
X0343585Y0185601D01*
X0343585Y0175601D02*
X0349585Y0175601D01*
X0349585Y0165601D02*
X0343585Y0165601D01*
X0343585Y0155601D02*
X0349585Y0155601D01*
X0349585Y0145601D02*
X0343585Y0145601D01*
X0343585Y0135601D02*
X0349585Y0135601D01*
X0349585Y0125601D02*
X0343585Y0125601D01*
X0343585Y0115601D02*
X0349585Y0115601D01*
X0349585Y0105601D02*
X0343585Y0105601D01*
X0343585Y0095601D02*
X0349585Y0095601D01*
X0349585Y0085601D02*
X0343585Y0085601D01*
X0343585Y0075601D02*
X0349585Y0075601D01*
X0349585Y0065601D02*
X0343585Y0065601D01*
X0343585Y0055601D02*
X0349585Y0055601D01*
X0291475Y0055601D02*
X0285475Y0055601D01*
X0285475Y0065601D02*
X0291475Y0065601D01*
X0291475Y0075601D02*
X0285475Y0075601D01*
X0285475Y0085601D02*
X0291475Y0085601D01*
X0291475Y0095601D02*
X0285475Y0095601D01*
X0440330Y0175501D02*
X0446330Y0175501D01*
X0446330Y0185501D02*
X0440330Y0185501D01*
X0478861Y0140601D02*
X0484861Y0140601D01*
X0484861Y0130601D02*
X0478861Y0130601D01*
X0478861Y0120601D02*
X0484861Y0120601D01*
X0484861Y0110601D02*
X0478861Y0110601D01*
X0499806Y0105601D02*
X0505806Y0105601D01*
X0505806Y0115601D02*
X0499806Y0115601D01*
X0499806Y0125601D02*
X0505806Y0125601D01*
X0505806Y0135601D02*
X0499806Y0135601D01*
X0499806Y0145601D02*
X0505806Y0145601D01*
X0505806Y0155601D02*
X0499806Y0155601D01*
X0499806Y0165601D02*
X0505806Y0165601D01*
X0505806Y0175601D02*
X0499806Y0175601D01*
X0499806Y0185601D02*
X0505806Y0185601D01*
X0505806Y0195601D02*
X0499806Y0195601D01*
X0499648Y0239381D02*
X0505648Y0239381D01*
X0505648Y0249381D02*
X0499648Y0249381D01*
X0499648Y0259381D02*
X0505648Y0259381D01*
X0505648Y0269381D02*
X0499648Y0269381D01*
X0499648Y0279381D02*
X0505648Y0279381D01*
X0505648Y0289381D02*
X0499648Y0289381D01*
X0499648Y0299381D02*
X0505648Y0299381D01*
X0505648Y0309381D02*
X0499648Y0309381D01*
X0499648Y0319381D02*
X0505648Y0319381D01*
X0505648Y0329381D02*
X0499648Y0329381D01*
X0499648Y0339381D02*
X0505648Y0339381D01*
X0505648Y0349381D02*
X0499648Y0349381D01*
X0499648Y0359381D02*
X0505648Y0359381D01*
X0505648Y0369381D02*
X0499648Y0369381D01*
X0499648Y0379381D02*
X0505648Y0379381D01*
X0502144Y0423081D02*
X0496144Y0423081D01*
X0496144Y0433081D02*
X0502144Y0433081D01*
X0502144Y0443081D02*
X0496144Y0443081D01*
X0496144Y0453081D02*
X0502144Y0453081D01*
X0502144Y0463081D02*
X0496144Y0463081D01*
X0496144Y0473081D02*
X0502144Y0473081D01*
X0502144Y0483081D02*
X0496144Y0483081D01*
X0496144Y0493081D02*
X0502144Y0493081D01*
X0502144Y0503081D02*
X0496144Y0503081D01*
X0496144Y0513081D02*
X0502144Y0513081D01*
X0502144Y0523081D02*
X0496144Y0523081D01*
X0496144Y0533081D02*
X0502144Y0533081D01*
X0502144Y0543081D02*
X0496144Y0543081D01*
X0496144Y0553081D02*
X0502144Y0553081D01*
X0502144Y0563081D02*
X0496144Y0563081D01*
X0481200Y0508081D02*
X0475200Y0508081D01*
X0475200Y0498081D02*
X0481200Y0498081D01*
X0481200Y0488081D02*
X0475200Y0488081D01*
X0475200Y0478081D02*
X0481200Y0478081D01*
X0439283Y0542981D02*
X0433283Y0542981D01*
X0433283Y0552981D02*
X0439283Y0552981D01*
X0342538Y0553081D02*
X0336538Y0553081D01*
X0336538Y0563081D02*
X0342538Y0563081D01*
X0342538Y0543081D02*
X0336538Y0543081D01*
X0336538Y0533081D02*
X0342538Y0533081D01*
X0342538Y0523081D02*
X0336538Y0523081D01*
X0336538Y0513081D02*
X0342538Y0513081D01*
X0342538Y0503081D02*
X0336538Y0503081D01*
X0336538Y0493081D02*
X0342538Y0493081D01*
X0342538Y0483081D02*
X0336538Y0483081D01*
X0436787Y0369281D02*
X0442787Y0369281D01*
X0442787Y0359281D02*
X0436787Y0359281D01*
X0478704Y0324381D02*
X0484704Y0324381D01*
X0484704Y0314381D02*
X0478704Y0314381D01*
X0478704Y0304381D02*
X0484704Y0304381D01*
X0484704Y0294381D02*
X0478704Y0294381D01*
X0557759Y0299381D02*
X0563759Y0299381D01*
X0563759Y0309381D02*
X0557759Y0309381D01*
X0557759Y0319381D02*
X0563759Y0319381D01*
X0563759Y0329381D02*
X0557759Y0329381D01*
X0557759Y0339381D02*
X0563759Y0339381D01*
X0563759Y0349381D02*
X0557759Y0349381D01*
X0557759Y0359381D02*
X0563759Y0359381D01*
X0563759Y0369381D02*
X0557759Y0369381D01*
X0557759Y0379381D02*
X0563759Y0379381D01*
X0560255Y0423081D02*
X0554255Y0423081D01*
X0554255Y0433081D02*
X0560255Y0433081D01*
X0560255Y0443081D02*
X0554255Y0443081D01*
X0554255Y0453081D02*
X0560255Y0453081D01*
X0560255Y0463081D02*
X0554255Y0463081D01*
X0554255Y0473081D02*
X0560255Y0473081D01*
X0560255Y0483081D02*
X0554255Y0483081D01*
X0554255Y0493081D02*
X0560255Y0493081D01*
X0560255Y0503081D02*
X0554255Y0503081D01*
X0554255Y0513081D02*
X0560255Y0513081D01*
X0560255Y0523081D02*
X0554255Y0523081D01*
X0554255Y0533081D02*
X0560255Y0533081D01*
X0560255Y0543081D02*
X0554255Y0543081D01*
X0554255Y0553081D02*
X0560255Y0553081D01*
X0560255Y0563081D02*
X0554255Y0563081D01*
X0651000Y0552981D02*
X0657000Y0552981D01*
X0657000Y0542981D02*
X0651000Y0542981D01*
X0654504Y0369281D02*
X0660504Y0369281D01*
X0660504Y0359281D02*
X0654504Y0359281D01*
X0563759Y0289381D02*
X0557759Y0289381D01*
X0557759Y0279381D02*
X0563759Y0279381D01*
X0563759Y0269381D02*
X0557759Y0269381D01*
X0557759Y0259381D02*
X0563759Y0259381D01*
X0563759Y0249381D02*
X0557759Y0249381D01*
X0557759Y0239381D02*
X0563759Y0239381D01*
X0563916Y0195601D02*
X0557916Y0195601D01*
X0557916Y0185601D02*
X0563916Y0185601D01*
X0563916Y0175601D02*
X0557916Y0175601D01*
X0557916Y0165601D02*
X0563916Y0165601D01*
X0563916Y0155601D02*
X0557916Y0155601D01*
X0557916Y0145601D02*
X0563916Y0145601D01*
X0563916Y0135601D02*
X0557916Y0135601D01*
X0557916Y0125601D02*
X0563916Y0125601D01*
X0563916Y0115601D02*
X0557916Y0115601D01*
X0557916Y0105601D02*
X0563916Y0105601D01*
X0563916Y0095601D02*
X0557916Y0095601D01*
X0557916Y0085601D02*
X0563916Y0085601D01*
X0563916Y0075601D02*
X0557916Y0075601D01*
X0557916Y0065601D02*
X0563916Y0065601D01*
X0563916Y0055601D02*
X0557916Y0055601D01*
X0505806Y0055601D02*
X0499806Y0055601D01*
X0499806Y0065601D02*
X0505806Y0065601D01*
X0505806Y0075601D02*
X0499806Y0075601D01*
X0499806Y0085601D02*
X0505806Y0085601D01*
X0505806Y0095601D02*
X0499806Y0095601D01*
X0654661Y0175501D02*
X0660661Y0175501D01*
X0660661Y0185501D02*
X0654661Y0185501D01*
X0266987Y0294381D02*
X0260987Y0294381D01*
X0260987Y0304381D02*
X0266987Y0304381D01*
X0266987Y0314381D02*
X0260987Y0314381D01*
X0260987Y0324381D02*
X0266987Y0324381D01*
X0228614Y0359281D02*
X0222614Y0359281D01*
X0222614Y0369281D02*
X0228614Y0369281D01*
X0128365Y0483081D02*
X0122365Y0483081D01*
X0122365Y0493081D02*
X0128365Y0493081D01*
X0128365Y0503081D02*
X0122365Y0503081D01*
X0122365Y0513081D02*
X0128365Y0513081D01*
X0128365Y0523081D02*
X0122365Y0523081D01*
X0122365Y0533081D02*
X0128365Y0533081D01*
X0128365Y0543081D02*
X0122365Y0543081D01*
X0122365Y0553081D02*
X0128365Y0553081D01*
X0128365Y0563081D02*
X0122365Y0563081D01*
X0052814Y0324381D02*
X0046814Y0324381D01*
X0046814Y0314381D02*
X0052814Y0314381D01*
X0052814Y0304381D02*
X0046814Y0304381D01*
X0046814Y0294381D02*
X0052814Y0294381D01*
D11*
X0160444Y0307570D03*
X0160444Y0317412D03*
X0160444Y0327255D03*
X0217530Y0327255D03*
X0217530Y0307570D03*
X0374617Y0307570D03*
X0374617Y0317412D03*
X0374617Y0327255D03*
X0431704Y0327255D03*
X0431704Y0307570D03*
X0592333Y0307570D03*
X0592333Y0317412D03*
X0592333Y0327255D03*
X0649420Y0327255D03*
X0649420Y0307570D03*
X0649578Y0143475D03*
X0649578Y0123790D03*
X0592491Y0123790D03*
X0592491Y0133633D03*
X0592491Y0143475D03*
X0435247Y0143475D03*
X0435247Y0123790D03*
X0378160Y0123790D03*
X0378160Y0133633D03*
X0378160Y0143475D03*
X0221074Y0143475D03*
X0221074Y0123790D03*
X0163987Y0123790D03*
X0163987Y0133633D03*
X0163987Y0143475D03*
X0156940Y0491270D03*
X0156940Y0501113D03*
X0156940Y0510956D03*
X0214026Y0510956D03*
X0214026Y0491270D03*
X0371113Y0491270D03*
X0371113Y0501113D03*
X0371113Y0510956D03*
X0428200Y0510956D03*
X0428200Y0491270D03*
X0588830Y0491270D03*
X0588830Y0501113D03*
X0588830Y0510956D03*
X0645916Y0510956D03*
X0645916Y0491270D03*
D12*
X0618357Y0477097D03*
X0618357Y0525129D03*
X0621861Y0341428D03*
X0621861Y0293396D03*
X0622019Y0157648D03*
X0622019Y0109617D03*
X0407688Y0109617D03*
X0407688Y0157648D03*
X0404144Y0293396D03*
X0404144Y0341428D03*
X0400641Y0477097D03*
X0400641Y0525129D03*
X0186467Y0525129D03*
X0186467Y0477097D03*
X0189971Y0341428D03*
X0189971Y0293396D03*
X0193515Y0157648D03*
X0193515Y0109617D03*
D13*
X0193157Y0188001D02*
X0193157Y0193201D01*
X0203157Y0193201D02*
X0203157Y0188001D01*
X0183157Y0188001D02*
X0183157Y0193201D01*
X0179614Y0371781D02*
X0179614Y0376981D01*
X0189614Y0376981D02*
X0189614Y0371781D01*
X0199614Y0371781D02*
X0199614Y0376981D01*
X0393787Y0376981D02*
X0393787Y0371781D01*
X0403787Y0371781D02*
X0403787Y0376981D01*
X0413787Y0376981D02*
X0413787Y0371781D01*
X0611504Y0371781D02*
X0611504Y0376981D01*
X0621504Y0376981D02*
X0621504Y0371781D01*
X0631504Y0371781D02*
X0631504Y0376981D01*
X0628000Y0555481D02*
X0628000Y0560681D01*
X0618000Y0560681D02*
X0618000Y0555481D01*
X0608000Y0555481D02*
X0608000Y0560681D01*
X0410283Y0560681D02*
X0410283Y0555481D01*
X0400283Y0555481D02*
X0400283Y0560681D01*
X0390283Y0560681D02*
X0390283Y0555481D01*
X0196110Y0555481D02*
X0196110Y0560681D01*
X0186110Y0560681D02*
X0186110Y0555481D01*
X0176110Y0555481D02*
X0176110Y0560681D01*
X0397330Y0193201D02*
X0397330Y0188001D01*
X0407330Y0188001D02*
X0407330Y0193201D01*
X0417330Y0193201D02*
X0417330Y0188001D01*
X0611661Y0188001D02*
X0611661Y0193201D01*
X0621661Y0193201D02*
X0621661Y0188001D01*
X0631661Y0188001D02*
X0631661Y0193201D01*
D14*
X0623204Y0257881D03*
X0653204Y0257881D03*
X0649700Y0441581D03*
X0619700Y0441581D03*
X0431983Y0441581D03*
X0401983Y0441581D03*
X0217810Y0441581D03*
X0187810Y0441581D03*
X0191314Y0257881D03*
X0221314Y0257881D03*
X0405487Y0257881D03*
X0435487Y0257881D03*
X0439030Y0074101D03*
X0409030Y0074101D03*
X0224857Y0074101D03*
X0194857Y0074101D03*
X0623361Y0074101D03*
X0653361Y0074101D03*
D15*
X0602361Y0069444D03*
X0602361Y0099444D03*
X0602204Y0253223D03*
X0602204Y0283223D03*
X0598700Y0436924D03*
X0598700Y0466924D03*
X0384487Y0283223D03*
X0384487Y0253223D03*
X0388030Y0099444D03*
X0388030Y0069444D03*
X0173857Y0069444D03*
X0173857Y0099444D03*
X0170314Y0253223D03*
X0170314Y0283223D03*
X0166810Y0436924D03*
X0166810Y0466924D03*
X0380983Y0466924D03*
X0380983Y0436924D03*
D16*
X0381483Y0437281D02*
X0397683Y0437281D01*
X0401983Y0441581D01*
X0380883Y0467281D02*
X0380883Y0549233D01*
X0366951Y0567102D01*
X0357102Y0567102D01*
X0342412Y0553200D01*
X0339538Y0553081D01*
X0339538Y0563081D02*
X0347957Y0570556D01*
X0369015Y0570556D01*
X0395793Y0539053D01*
X0419809Y0539034D01*
X0428239Y0533121D01*
X0428200Y0510956D01*
X0416585Y0547944D02*
X0396521Y0547944D01*
X0390521Y0553944D01*
X0390483Y0557881D01*
X0400083Y0558481D02*
X0400045Y0570293D01*
X0395770Y0574568D01*
X0314417Y0574568D01*
X0301475Y0561233D01*
X0301475Y0430475D01*
X0292907Y0423088D01*
X0281428Y0423081D01*
X0317921Y0390867D02*
X0304979Y0377532D01*
X0304979Y0246774D01*
X0296411Y0239387D01*
X0284932Y0239381D01*
X0321464Y0207088D02*
X0308522Y0193752D01*
X0308522Y0062995D01*
X0299954Y0055607D01*
X0288475Y0055601D01*
X0347130Y0095601D02*
X0374730Y0123201D01*
X0377730Y0123201D01*
X0378160Y0123790D01*
X0365541Y0124212D02*
X0365541Y0140223D01*
X0369463Y0143357D01*
X0377730Y0143395D01*
X0378160Y0143475D01*
X0365541Y0124212D02*
X0347130Y0105801D01*
X0387930Y0099801D02*
X0387930Y0181752D01*
X0373998Y0199622D01*
X0364149Y0199622D01*
X0349459Y0185719D01*
X0346585Y0185601D01*
X0346585Y0195601D02*
X0355004Y0203075D01*
X0376063Y0203075D01*
X0402841Y0171573D01*
X0426856Y0171554D01*
X0435286Y0165641D01*
X0435247Y0143475D01*
X0423633Y0180464D02*
X0403568Y0180464D01*
X0397568Y0186464D01*
X0397530Y0190401D01*
X0407130Y0191001D02*
X0407093Y0202812D01*
X0402817Y0207088D01*
X0321464Y0207088D01*
X0288475Y0185601D02*
X0280050Y0185601D01*
X0277412Y0182963D01*
X0277412Y0142412D01*
X0273711Y0140601D02*
X0280168Y0134144D01*
X0280168Y0128633D01*
X0283318Y0125483D01*
X0288357Y0125483D01*
X0288475Y0125601D01*
X0280956Y0122727D02*
X0280956Y0117215D01*
X0283318Y0115641D01*
X0288436Y0115641D01*
X0288475Y0115601D01*
X0280956Y0122727D02*
X0272294Y0130601D01*
X0267530Y0130601D01*
X0267530Y0140601D02*
X0273711Y0140601D01*
X0277279Y0120759D02*
X0267688Y0120759D01*
X0267530Y0120601D01*
X0221074Y0143475D02*
X0221113Y0165641D01*
X0212683Y0171554D01*
X0188667Y0171573D01*
X0161889Y0203075D01*
X0140831Y0203075D01*
X0132412Y0195601D01*
X0132412Y0185601D02*
X0135286Y0185719D01*
X0149976Y0199622D01*
X0159825Y0199622D01*
X0173757Y0181752D01*
X0173757Y0099801D01*
X0163557Y0123201D02*
X0160557Y0123201D01*
X0132957Y0095601D01*
X0132957Y0105801D02*
X0151368Y0124212D01*
X0151368Y0140223D01*
X0155289Y0143357D01*
X0163557Y0143395D01*
X0163987Y0143475D01*
X0163987Y0123790D02*
X0163557Y0123201D01*
X0174357Y0069801D02*
X0190557Y0069801D01*
X0194857Y0074101D01*
X0094349Y0062995D02*
X0085781Y0055607D01*
X0074302Y0055601D01*
X0094349Y0062995D02*
X0094349Y0193752D01*
X0107291Y0207088D01*
X0188644Y0207088D01*
X0192919Y0202812D01*
X0192957Y0191001D01*
X0183395Y0186464D02*
X0189395Y0180464D01*
X0209459Y0180464D01*
X0215178Y0185395D01*
X0229157Y0185501D01*
X0183395Y0186464D02*
X0183357Y0190401D01*
X0187014Y0253581D02*
X0170814Y0253581D01*
X0187014Y0253581D02*
X0191314Y0257881D01*
X0170214Y0283581D02*
X0170214Y0365532D01*
X0156281Y0383401D01*
X0146433Y0383401D01*
X0131743Y0369499D01*
X0128869Y0369381D01*
X0128869Y0379381D02*
X0137288Y0386855D01*
X0158346Y0386855D01*
X0185124Y0355352D01*
X0209140Y0355333D01*
X0217570Y0349420D01*
X0217530Y0327255D01*
X0205916Y0364244D02*
X0185852Y0364244D01*
X0179852Y0370244D01*
X0179814Y0374181D01*
X0189414Y0374781D02*
X0189376Y0386592D01*
X0185100Y0390867D01*
X0103748Y0390867D01*
X0090806Y0377532D01*
X0090806Y0246774D01*
X0082237Y0239387D01*
X0070759Y0239381D01*
X0074302Y0185601D02*
X0065877Y0185601D01*
X0063239Y0182963D01*
X0063239Y0142412D01*
X0059538Y0140601D02*
X0053357Y0140601D01*
X0059538Y0140601D02*
X0065995Y0134144D01*
X0065995Y0128633D01*
X0069144Y0125483D01*
X0074184Y0125483D01*
X0074302Y0125601D01*
X0066782Y0122727D02*
X0066782Y0117215D01*
X0069144Y0115641D01*
X0074263Y0115641D01*
X0074302Y0115601D01*
X0066782Y0122727D02*
X0058121Y0130601D01*
X0053357Y0130601D01*
X0053515Y0120759D02*
X0053357Y0120601D01*
X0053515Y0120759D02*
X0063106Y0120759D01*
X0129414Y0279381D02*
X0157014Y0306981D01*
X0160014Y0306981D01*
X0160444Y0307570D01*
X0147825Y0307992D02*
X0129414Y0289581D01*
X0147825Y0307992D02*
X0147825Y0324003D01*
X0151746Y0327137D01*
X0160014Y0327174D01*
X0160444Y0327255D01*
X0205916Y0364244D02*
X0211634Y0369174D01*
X0225614Y0369281D01*
X0273869Y0366743D02*
X0273869Y0326192D01*
X0270168Y0324381D02*
X0276625Y0317924D01*
X0276625Y0312412D01*
X0279774Y0309263D01*
X0284814Y0309263D01*
X0284932Y0309381D01*
X0277412Y0306507D02*
X0277412Y0300995D01*
X0279774Y0299420D01*
X0284893Y0299420D01*
X0284932Y0299381D01*
X0277412Y0306507D02*
X0268751Y0314381D01*
X0263987Y0314381D01*
X0264144Y0304538D02*
X0263987Y0304381D01*
X0264144Y0304538D02*
X0273736Y0304538D01*
X0270168Y0324381D02*
X0263987Y0324381D01*
X0273869Y0366743D02*
X0276507Y0369381D01*
X0284932Y0369381D01*
X0317921Y0390867D02*
X0399274Y0390867D01*
X0403549Y0386592D01*
X0403587Y0374781D01*
X0393987Y0374181D02*
X0394025Y0370244D01*
X0400025Y0364244D01*
X0420089Y0364244D01*
X0425807Y0369174D01*
X0439787Y0369281D01*
X0431743Y0349420D02*
X0431704Y0327255D01*
X0431743Y0349420D02*
X0423313Y0355333D01*
X0399297Y0355352D01*
X0372519Y0386855D01*
X0351461Y0386855D01*
X0343042Y0379381D01*
X0343042Y0369381D02*
X0345916Y0369499D01*
X0360606Y0383401D01*
X0370455Y0383401D01*
X0384387Y0365532D01*
X0384387Y0283581D01*
X0374187Y0306981D02*
X0374617Y0307570D01*
X0374187Y0306981D02*
X0371187Y0306981D01*
X0343587Y0279381D01*
X0343587Y0289581D02*
X0361998Y0307992D01*
X0361998Y0324003D01*
X0365919Y0327137D01*
X0374187Y0327174D01*
X0374617Y0327255D01*
X0405487Y0257881D02*
X0401187Y0253581D01*
X0384987Y0253581D01*
X0429351Y0185395D02*
X0423633Y0180464D01*
X0429351Y0185395D02*
X0443330Y0185501D01*
X0491743Y0182963D02*
X0491743Y0142412D01*
X0488042Y0140601D02*
X0494499Y0134144D01*
X0494499Y0128633D01*
X0497648Y0125483D01*
X0502688Y0125483D01*
X0502806Y0125601D01*
X0495286Y0122727D02*
X0495286Y0117215D01*
X0497648Y0115641D01*
X0502767Y0115641D01*
X0502806Y0115601D01*
X0495286Y0122727D02*
X0486625Y0130601D01*
X0481861Y0130601D01*
X0481861Y0140601D02*
X0488042Y0140601D01*
X0491610Y0120759D02*
X0482019Y0120759D01*
X0481861Y0120601D01*
X0522853Y0062995D02*
X0514285Y0055607D01*
X0502806Y0055601D01*
X0522853Y0062995D02*
X0522853Y0193752D01*
X0535795Y0207088D01*
X0617148Y0207088D01*
X0621423Y0202812D01*
X0621461Y0191001D01*
X0611861Y0190401D02*
X0611899Y0186464D01*
X0617899Y0180464D01*
X0637963Y0180464D01*
X0643681Y0185395D01*
X0657661Y0185501D01*
X0649617Y0165641D02*
X0641187Y0171554D01*
X0617171Y0171573D01*
X0590393Y0203075D01*
X0569335Y0203075D01*
X0560916Y0195601D01*
X0560916Y0185601D02*
X0563790Y0185719D01*
X0578480Y0199622D01*
X0588329Y0199622D01*
X0602261Y0181752D01*
X0602261Y0099801D01*
X0592061Y0123201D02*
X0592491Y0123790D01*
X0592061Y0123201D02*
X0589061Y0123201D01*
X0561461Y0095601D01*
X0561461Y0105801D02*
X0579872Y0124212D01*
X0579872Y0140223D01*
X0583793Y0143357D01*
X0592061Y0143395D01*
X0592491Y0143475D01*
X0649578Y0143475D02*
X0649617Y0165641D01*
X0618904Y0253581D02*
X0602704Y0253581D01*
X0618904Y0253581D02*
X0623204Y0257881D01*
X0602104Y0283581D02*
X0602104Y0365532D01*
X0588171Y0383401D01*
X0578322Y0383401D01*
X0563633Y0369499D01*
X0560759Y0369381D01*
X0560759Y0379381D02*
X0569178Y0386855D01*
X0590236Y0386855D01*
X0617014Y0355352D01*
X0641030Y0355333D01*
X0649459Y0349420D01*
X0649420Y0327255D01*
X0637806Y0364244D02*
X0617741Y0364244D01*
X0611741Y0370244D01*
X0611704Y0374181D01*
X0621304Y0374781D02*
X0621266Y0386592D01*
X0616990Y0390867D01*
X0535637Y0390867D01*
X0522696Y0377532D01*
X0522696Y0246774D01*
X0514127Y0239387D01*
X0502648Y0239381D01*
X0561304Y0279381D02*
X0588904Y0306981D01*
X0591904Y0306981D01*
X0592333Y0307570D01*
X0579715Y0307992D02*
X0561304Y0289581D01*
X0579715Y0307992D02*
X0579715Y0324003D01*
X0583636Y0327137D01*
X0591904Y0327174D01*
X0592333Y0327255D01*
X0637806Y0364244D02*
X0643524Y0369174D01*
X0657504Y0369281D01*
X0615400Y0437281D02*
X0599200Y0437281D01*
X0615400Y0437281D02*
X0619700Y0441581D01*
X0598600Y0467281D02*
X0598600Y0549233D01*
X0584667Y0567102D01*
X0574819Y0567102D01*
X0560129Y0553200D01*
X0557255Y0553081D01*
X0557255Y0563081D02*
X0565674Y0570556D01*
X0586732Y0570556D01*
X0613510Y0539053D01*
X0637526Y0539034D01*
X0645956Y0533121D01*
X0645916Y0510956D01*
X0634302Y0547944D02*
X0614237Y0547944D01*
X0608237Y0553944D01*
X0608200Y0557881D01*
X0617800Y0558481D02*
X0617762Y0570293D01*
X0613486Y0574568D01*
X0532133Y0574568D01*
X0519192Y0561233D01*
X0519192Y0430475D01*
X0510623Y0423088D01*
X0499144Y0423081D01*
X0557800Y0463081D02*
X0585400Y0490681D01*
X0588400Y0490681D01*
X0588830Y0491270D01*
X0576211Y0491693D02*
X0557800Y0473281D01*
X0576211Y0491693D02*
X0576211Y0507704D01*
X0580132Y0510837D01*
X0588400Y0510875D01*
X0588830Y0510956D01*
X0634302Y0547944D02*
X0640020Y0552875D01*
X0654000Y0552981D01*
X0499144Y0553081D02*
X0490719Y0553081D01*
X0488081Y0550444D01*
X0488081Y0509893D01*
X0484381Y0508081D02*
X0490837Y0501625D01*
X0490837Y0496113D01*
X0493987Y0492963D01*
X0499026Y0492963D01*
X0499144Y0493081D01*
X0491625Y0490207D02*
X0491625Y0484696D01*
X0493987Y0483121D01*
X0499105Y0483121D01*
X0499144Y0483081D01*
X0491625Y0490207D02*
X0482963Y0498081D01*
X0478200Y0498081D01*
X0478357Y0488239D02*
X0478200Y0488081D01*
X0478357Y0488239D02*
X0487948Y0488239D01*
X0484381Y0508081D02*
X0478200Y0508081D01*
X0436283Y0552981D02*
X0422304Y0552875D01*
X0416585Y0547944D01*
X0371113Y0510956D02*
X0370683Y0510875D01*
X0362415Y0510837D01*
X0358494Y0507704D01*
X0358494Y0491693D01*
X0340083Y0473281D01*
X0340083Y0463081D02*
X0367683Y0490681D01*
X0370683Y0490681D01*
X0371113Y0491270D01*
X0281428Y0493081D02*
X0281310Y0492963D01*
X0276270Y0492963D01*
X0273121Y0496113D01*
X0273121Y0501625D01*
X0266664Y0508081D01*
X0260483Y0508081D01*
X0260483Y0498081D02*
X0265247Y0498081D01*
X0273908Y0490207D01*
X0273908Y0484696D01*
X0276270Y0483121D01*
X0281389Y0483121D01*
X0281428Y0483081D01*
X0270232Y0488239D02*
X0260641Y0488239D01*
X0260483Y0488081D01*
X0270365Y0509893D02*
X0270365Y0550444D01*
X0273003Y0553081D01*
X0281428Y0553081D01*
X0222110Y0552981D02*
X0208130Y0552875D01*
X0202412Y0547944D01*
X0182348Y0547944D01*
X0176348Y0553944D01*
X0176310Y0557881D01*
X0185910Y0558481D02*
X0185872Y0570293D01*
X0181596Y0574568D01*
X0100244Y0574568D01*
X0087302Y0561233D01*
X0087302Y0430475D01*
X0078733Y0423088D01*
X0067255Y0423081D01*
X0125910Y0463081D02*
X0153510Y0490681D01*
X0156510Y0490681D01*
X0156940Y0491270D01*
X0144321Y0491693D02*
X0125910Y0473281D01*
X0144321Y0491693D02*
X0144321Y0507704D01*
X0148242Y0510837D01*
X0156510Y0510875D01*
X0156940Y0510956D01*
X0181620Y0539053D02*
X0154842Y0570556D01*
X0133784Y0570556D01*
X0125365Y0563081D01*
X0125365Y0553081D02*
X0128239Y0553200D01*
X0142929Y0567102D01*
X0152778Y0567102D01*
X0166710Y0549233D01*
X0166710Y0467281D01*
X0187810Y0441581D02*
X0183510Y0437281D01*
X0167310Y0437281D01*
X0214026Y0510956D02*
X0214066Y0533121D01*
X0205636Y0539034D01*
X0181620Y0539053D01*
X0067255Y0553081D02*
X0058830Y0553081D01*
X0056192Y0550444D01*
X0056192Y0509893D01*
X0052491Y0508081D02*
X0058948Y0501625D01*
X0058948Y0496113D01*
X0062097Y0492963D01*
X0067137Y0492963D01*
X0067255Y0493081D01*
X0059735Y0490207D02*
X0059735Y0484696D01*
X0062097Y0483121D01*
X0067215Y0483121D01*
X0067255Y0483081D01*
X0059735Y0490207D02*
X0051074Y0498081D01*
X0046310Y0498081D01*
X0046467Y0488239D02*
X0046310Y0488081D01*
X0046467Y0488239D02*
X0056059Y0488239D01*
X0052491Y0508081D02*
X0046310Y0508081D01*
X0062333Y0369381D02*
X0059696Y0366743D01*
X0059696Y0326192D01*
X0055995Y0324381D02*
X0062452Y0317924D01*
X0062452Y0312412D01*
X0065601Y0309263D01*
X0070641Y0309263D01*
X0070759Y0309381D01*
X0063239Y0306507D02*
X0063239Y0300995D01*
X0065601Y0299420D01*
X0070719Y0299420D01*
X0070759Y0299381D01*
X0063239Y0306507D02*
X0054578Y0314381D01*
X0049814Y0314381D01*
X0049971Y0304538D02*
X0049814Y0304381D01*
X0049971Y0304538D02*
X0059563Y0304538D01*
X0055995Y0324381D02*
X0049814Y0324381D01*
X0062333Y0369381D02*
X0070759Y0369381D01*
X0388530Y0069801D02*
X0404730Y0069801D01*
X0409030Y0074101D01*
X0491743Y0182963D02*
X0494381Y0185601D01*
X0502806Y0185601D01*
X0602861Y0069801D02*
X0619061Y0069801D01*
X0623361Y0074101D01*
X0502648Y0299381D02*
X0502609Y0299420D01*
X0497491Y0299420D01*
X0495129Y0300995D01*
X0495129Y0306507D01*
X0486467Y0314381D01*
X0481704Y0314381D01*
X0481861Y0304538D02*
X0481704Y0304381D01*
X0481861Y0304538D02*
X0491452Y0304538D01*
X0497491Y0309263D02*
X0494341Y0312412D01*
X0494341Y0317924D01*
X0487885Y0324381D01*
X0481704Y0324381D01*
X0491585Y0326192D02*
X0491585Y0366743D01*
X0494223Y0369381D01*
X0502648Y0369381D01*
X0502648Y0309381D02*
X0502530Y0309263D01*
X0497491Y0309263D01*
D17*
X0560759Y0289381D02*
X0561304Y0289581D01*
X0561304Y0279381D02*
X0560759Y0279381D01*
X0602104Y0283581D02*
X0602204Y0283223D01*
X0602704Y0253581D02*
X0602204Y0253223D01*
X0611661Y0190601D02*
X0611861Y0190401D01*
X0621461Y0191001D02*
X0621661Y0190601D01*
X0561461Y0105801D02*
X0560916Y0105601D01*
X0560916Y0095601D02*
X0561461Y0095601D01*
X0602261Y0099801D02*
X0602361Y0099444D01*
X0602861Y0069801D02*
X0602361Y0069444D01*
X0407330Y0190601D02*
X0407130Y0191001D01*
X0397530Y0190401D02*
X0397330Y0190601D01*
X0384487Y0253223D02*
X0384987Y0253581D01*
X0384487Y0283223D02*
X0384387Y0283581D01*
X0343587Y0279381D02*
X0343042Y0279381D01*
X0343042Y0289381D02*
X0343587Y0289581D01*
X0393987Y0374181D02*
X0393787Y0374381D01*
X0403587Y0374781D02*
X0403787Y0374381D01*
X0380983Y0436924D02*
X0381483Y0437281D01*
X0380983Y0466924D02*
X0380883Y0467281D01*
X0340083Y0463081D02*
X0339538Y0463081D01*
X0339538Y0473081D02*
X0340083Y0473281D01*
X0390483Y0557881D02*
X0390283Y0558081D01*
X0400083Y0558481D02*
X0400283Y0558081D01*
X0557255Y0473081D02*
X0557800Y0473281D01*
X0557800Y0463081D02*
X0557255Y0463081D01*
X0598600Y0467281D02*
X0598700Y0466924D01*
X0599200Y0437281D02*
X0598700Y0436924D01*
X0611504Y0374381D02*
X0611704Y0374181D01*
X0621304Y0374781D02*
X0621504Y0374381D01*
X0618000Y0558081D02*
X0617800Y0558481D01*
X0608200Y0557881D02*
X0608000Y0558081D01*
X0186110Y0558081D02*
X0185910Y0558481D01*
X0176310Y0557881D02*
X0176110Y0558081D01*
X0125910Y0473281D02*
X0125365Y0473081D01*
X0125365Y0463081D02*
X0125910Y0463081D01*
X0166710Y0467281D02*
X0166810Y0466924D01*
X0167310Y0437281D02*
X0166810Y0436924D01*
X0179614Y0374381D02*
X0179814Y0374181D01*
X0189414Y0374781D02*
X0189614Y0374381D01*
X0129414Y0289581D02*
X0128869Y0289381D01*
X0128869Y0279381D02*
X0129414Y0279381D01*
X0170214Y0283581D02*
X0170314Y0283223D01*
X0170814Y0253581D02*
X0170314Y0253223D01*
X0183157Y0190601D02*
X0183357Y0190401D01*
X0192957Y0191001D02*
X0193157Y0190601D01*
X0132957Y0105801D02*
X0132412Y0105601D01*
X0132412Y0095601D02*
X0132957Y0095601D01*
X0173757Y0099801D02*
X0173857Y0099444D01*
X0174357Y0069801D02*
X0173857Y0069444D01*
X0346585Y0095601D02*
X0347130Y0095601D01*
X0346585Y0105601D02*
X0347130Y0105801D01*
X0387930Y0099801D02*
X0388030Y0099444D01*
X0388530Y0069801D02*
X0388030Y0069444D01*
D18*
X0491610Y0120759D03*
X0491743Y0142412D03*
X0491452Y0304538D03*
X0491585Y0326192D03*
X0487948Y0488239D03*
X0488081Y0509893D03*
X0270365Y0509893D03*
X0270232Y0488239D03*
X0273869Y0326192D03*
X0273736Y0304538D03*
X0277412Y0142412D03*
X0277279Y0120759D03*
X0063106Y0120759D03*
X0063239Y0142412D03*
X0059563Y0304538D03*
X0059696Y0326192D03*
X0056059Y0488239D03*
X0056192Y0509893D03*
M02*
